<?xml version='1.0' encoding='utf-8'?>
<svg xmlns="http://www.w3.org/2000/svg" version="1.0" width="1024.000000pt" height="1024.000000pt" viewBox="0 0 1024.000000 1024.000000" preserveAspectRatio="xMidYMid meet">
<metadata>
Created by potrace 1.16, written by Peter Selinger 2001-2019
</metadata>

<g transform="translate(0.000000,1024.000000) scale(0.100000,-0.100000)" fill="#C9A962" stroke="none">
<path fill="#C9A962" d="M 4915.0,9415.0 C 4828.0,9400.0 4656.0,9343.0 4576.0,9303.0 C 4363.0,9197.0 4149.0,8986.0 4045.0,8780.0 C 3884.0,8461.0 3881.0,8036.0 4036.0,7727.0 C 4084.0,7631.0 4159.0,7525.0 4222.0,7463.0 C 4268.0,7418.0 4281.0,7411.0 4323.0,7408.0 C 4349.0,7406.0 4370.0,7406.0 4370.0,7407.0 C 4370.0,7408.0 4351.0,7430.0 4328.0,7455.0 C 4087.0,7719.0 3975.0,8062.0 4021.0,8397.0 C 4054.0,8640.0 4139.0,8823.0 4298.0,8992.0 C 4553.0,9263.0 4942.0,9390.0 5305.0,9320.0 C 5564.0,9270.0 5753.0,9170.0 5919.0,8994.0 C 6044.0,8863.0 6126.0,8716.0 6177.0,8534.0 C 6203.0,8441.0 6204.0,8422.0 6204.0,8240.0 C 6204.0,8071.0 6202.0,8034.0 6183.0,7965.0 C 6156.0,7868.0 6112.0,7758.0 6068.0,7682.0 C 6022.0,7601.0 5904.0,7464.0 5822.0,7395.0 C 5782.0,7363.0 5750.0,7335.0 5750.0,7333.0 C 5750.0,7332.0 5756.0,7332.0 5763.0,7334.0 C 5769.0,7336.0 5798.0,7344.0 5825.0,7351.0 C 5853.0,7357.0 5891.0,7371.0 5910.0,7381.0 C 5950.0,7401.0 6082.0,7534.0 6127.0,7600.0 C 6208.0,7720.0 6279.0,7904.0 6301.0,8049.0 C 6320.0,8182.0 6308.0,8433.0 6277.0,8550.0 C 6220.0,8763.0 6137.0,8911.0 5993.0,9061.0 C 5840.0,9219.0 5691.0,9315.0 5504.0,9373.0 C 5326.0,9429.0 5097.0,9445.0 4915.0,9415.0" /><path fill="#C9A962" d="M 4920.0,9201.0 C 4696.0,9160.0 4481.0,9025.0 4340.0,8838.0 C 4267.0,8742.0 4187.0,8582.0 4158.0,8475.0 C 4126.0,8359.0 4127.0,8140.0 4159.0,8020.0 C 4200.0,7867.0 4284.0,7731.0 4415.0,7610.0 C 4448.0,7580.0 4446.0,7584.0 4402.0,7637.0 C 4213.0,7868.0 4145.0,8196.0 4224.0,8487.0 C 4316.0,8821.0 4608.0,9087.0 4950.0,9147.0 C 5356.0,9219.0 5805.0,8975.0 5960.0,8599.0 C 6059.0,8359.0 6045.0,8071.0 5923.0,7825.0 C 5853.0,7684.0 5725.0,7541.0 5614.0,7478.0 C 5555.0,7445.0 5544.0,7434.0 5588.0,7453.0 C 5758.0,7525.0 5910.0,7671.0 5999.0,7847.0 C 6061.0,7972.0 6075.0,8044.0 6075.0,8250.0 C 6074.0,8470.0 6066.0,8510.0 5983.0,8680.0 C 5931.0,8788.0 5921.0,8801.0 5816.0,8905.0 C 5663.0,9056.0 5537.0,9129.0 5342.0,9182.0 C 5257.0,9205.0 5004.0,9216.0 4920.0,9201.0" /><path fill="#C9A962" d="M 5082.0,9009.0 C 5040.0,8997.0 4996.0,8936.0 4980.0,8868.0 C 4968.0,8819.0 4971.0,8672.0 4986.0,8565.0 C 4991.0,8526.0 4990.0,8524.0 4946.0,8497.0 C 4781.0,8394.0 4694.0,8250.0 4702.0,8092.0 C 4708.0,7955.0 4786.0,7839.0 4908.0,7782.0 C 4958.0,7759.0 4978.0,7755.0 5067.0,7755.0 C 5185.0,7755.0 5177.0,7764.0 5187.0,7633.0 C 5195.0,7520.0 5177.0,7470.0 5115.0,7440.0 C 5068.0,7417.0 5022.0,7419.0 5000.0,7445.0 C 4992.0,7455.0 4995.0,7464.0 5015.0,7484.0 C 5071.0,7540.0 5033.0,7640.0 4956.0,7640.0 C 4930.0,7640.0 4915.0,7632.0 4892.0,7606.0 C 4855.0,7564.0 4845.0,7524.0 4859.0,7472.0 C 4874.0,7419.0 4905.0,7381.0 4954.0,7359.0 C 5053.0,7314.0 5186.0,7359.0 5238.0,7455.0 C 5257.0,7490.0 5259.0,7655.0 5242.0,7728.0 L 5232.0,7771.0 L 5276.0,7791.0 C 5332.0,7818.0 5393.0,7879.0 5421.0,7936.0 C 5439.0,7974.0 5442.0,7994.0 5438.0,8058.0 C 5435.0,8104.0 5426.0,8149.0 5416.0,8170.0 C 5394.0,8213.0 5334.0,8277.0 5298.0,8296.0 C 5267.0,8312.0 5174.0,8315.0 5136.0,8300.0 C 5108.0,8290.0 5111.0,8284.0 5091.0,8378.0 L 5082.0,8420.0 L 5154.0,8479.0 C 5306.0,8603.0 5341.0,8663.0 5341.0,8792.0 C 5341.0,8949.0 5222.0,9049.0 5082.0,9009.0 M 5205.0,8904.0 C 5278.0,8825.0 5249.0,8708.0 5135.0,8620.0 C 5105.0,8597.0 5076.0,8580.0 5072.0,8584.0 C 5062.0,8594.0 5057.0,8782.0 5064.0,8835.0 C 5078.0,8922.0 5154.0,8959.0 5205.0,8904.0 M 5037.0,8328.0 C 5046.0,8280.0 5046.0,8274.0 5028.0,8262.0 C 4915.0,8183.0 4899.0,8035.0 4994.0,7954.0 C 5039.0,7915.0 5052.0,7916.0 5021.0,7955.0 C 5010.0,7970.0 4998.0,7998.0 4994.0,8016.0 C 4982.0,8079.0 5046.0,8199.0 5070.0,8160.0 C 5081.0,8142.0 5160.0,7817.0 5154.0,7811.0 C 5152.0,7809.0 5128.0,7805.0 5102.0,7802.0 C 5030.0,7796.0 4952.0,7822.0 4896.0,7871.0 C 4828.0,7931.0 4805.0,7979.0 4806.0,8065.0 C 4807.0,8155.0 4835.0,8221.0 4898.0,8282.0 C 4947.0,8328.0 5011.0,8380.0 5021.0,8380.0 C 5024.0,8380.0 5031.0,8356.0 5037.0,8328.0 M 5254.0,8159.0 C 5330.0,8107.0 5359.0,8016.0 5326.0,7937.0 C 5313.0,7906.0 5248.0,7840.0 5230.0,7840.0 C 5226.0,7840.0 5208.0,7897.0 5191.0,7968.0 C 5174.0,8038.0 5154.0,8117.0 5146.0,8144.0 L 5131.0,8192.0 L 5176.0,8187.0 C 5200.0,8185.0 5236.0,8172.0 5254.0,8159.0" /><path fill="#C9A962" d="M 5529.0,8780.0 C 5672.0,8661.0 5780.0,8431.0 5780.0,8244.0 C 5780.0,8106.0 5734.0,7941.0 5669.0,7847.0 L 5646.0,7815.0 L 5669.0,7834.0 C 5704.0,7866.0 5787.0,8041.0 5806.0,8126.0 C 5835.0,8257.0 5813.0,8415.0 5748.0,8548.0 C 5713.0,8618.0 5620.0,8724.0 5537.0,8788.0 C 5462.0,8846.0 5456.0,8841.0 5529.0,8780.0" /><path fill="#C9A962" d="M 3353.0,8758.0 C 3337.0,8674.0 3296.0,8611.0 3236.0,8579.0 C 3190.0,8554.0 3189.0,8552.0 3213.0,8546.0 C 3276.0,8530.0 3334.0,8450.0 3355.0,8350.0 L 3367.0,8295.0 L 3379.0,8350.0 C 3399.0,8444.0 3442.0,8503.0 3516.0,8539.0 L 3555.0,8558.0 L 3525.0,8570.0 C 3461.0,8594.0 3399.0,8676.0 3385.0,8755.0 C 3373.0,8822.0 3365.0,8822.0 3353.0,8758.0" /><path fill="#C9A962" d="M 6862.0,8769.0 C 6842.0,8682.0 6798.0,8615.0 6737.0,8580.0 C 6701.0,8560.0 6692.0,8550.0 6706.0,8550.0 C 6768.0,8550.0 6853.0,8440.0 6867.0,8343.0 L 6873.0,8296.0 L 6890.0,8356.0 C 6919.0,8461.0 6964.0,8520.0 7034.0,8544.0 L 7071.0,8557.0 L 7030.0,8575.0 C 6985.0,8595.0 6925.0,8656.0 6908.0,8698.0 C 6902.0,8713.0 6892.0,8747.0 6886.0,8774.0 L 6874.0,8823.0 L 6862.0,8769.0" /><path fill="#C9A962" d="M 4541.0,8710.0 C 4451.0,8597.0 4398.0,8468.0 4379.0,8321.0 C 4363.0,8198.0 4384.0,8086.0 4444.0,7965.0 C 4468.0,7916.0 4503.0,7862.0 4521.0,7845.0 L 4553.0,7815.0 L 4522.0,7855.0 C 4414.0,7993.0 4384.0,8235.0 4444.0,8473.0 C 4472.0,8581.0 4485.0,8610.0 4547.0,8698.0 C 4600.0,8772.0 4596.0,8780.0 4541.0,8710.0" /><path fill="#C9A962" d="M 5408.0,8580.0 C 5493.0,8513.0 5540.0,8437.0 5560.0,8332.0 C 5572.0,8273.0 5569.0,8162.0 5556.0,8115.0 C 5552.0,8104.0 5557.0,8111.0 5566.0,8130.0 C 5590.0,8179.0 5590.0,8318.0 5566.0,8391.0 C 5544.0,8460.0 5490.0,8533.0 5425.0,8582.0 C 5359.0,8632.0 5344.0,8631.0 5408.0,8580.0" /><path fill="#C9A962" d="M 3009.0,8166.0 C 3007.0,8164.0 3006.0,7912.0 3008.0,7607.0 L 3010.0,7052.0 L 3069.0,7068.0 L 3127.0,7083.0 L 3133.0,7338.0 C 3137.0,7479.0 3140.0,7723.0 3140.0,7882.0 L 3140.0,8170.0 L 3077.0,8170.0 C 3042.0,8170.0 3011.0,8168.0 3009.0,8166.0" /><path fill="#C9A962" d="M 6528.0,7812.0 L 6531.0,7475.0 L 6595.0,7484.0 L 6660.0,7494.0 L 6660.0,7822.0 L 6660.0,8150.0 L 6593.0,8150.0 L 6525.0,8150.0 L 6528.0,7812.0" /><path fill="#C9A962" d="M 3580.0,7666.0 L 3580.0,7203.0 L 3639.0,7219.0 C 3672.0,7228.0 3701.0,7237.0 3703.0,7240.0 C 3705.0,7243.0 3710.0,7444.0 3713.0,7688.0 L 3718.0,8130.0 L 3649.0,8130.0 L 3580.0,8130.0 L 3580.0,7666.0" /><path fill="#C9A962" d="M 7103.0,7818.0 C 7107.0,7646.0 7110.0,7414.0 7110.0,7304.0 L 7110.0,7102.0 L 7158.0,7091.0 C 7184.0,7084.0 7213.0,7077.0 7223.0,7074.0 C 7240.0,7069.0 7241.0,7093.0 7236.0,7597.0 L 7230.0,8125.0 L 7164.0,8128.0 L 7097.0,8131.0 L 7103.0,7818.0" /><path fill="#C9A962" d="M 2452.0,8008.0 C 2437.0,7993.0 2436.0,7948.0 2452.0,7932.0 C 2470.0,7914.0 2505.0,7918.0 2525.0,7940.0 C 2552.0,7970.0 2535.0,8014.0 2495.0,8018.0 C 2478.0,8020.0 2459.0,8015.0 2452.0,8008.0" /><path fill="#C9A962" d="M 7716.0,8004.0 C 7695.0,7983.0 7696.0,7957.0 7718.0,7937.0 C 7745.0,7913.0 7777.0,7916.0 7796.0,7945.0 C 7811.0,7968.0 7811.0,7972.0 7796.0,7995.0 C 7777.0,8024.0 7740.0,8028.0 7716.0,8004.0" /><path fill="#C9A962" d="M 3290.0,7500.0 C 3290.0,7238.0 3293.0,7130.0 3301.0,7130.0 C 3307.0,7130.0 3336.0,7137.0 3366.0,7146.0 L 3420.0,7161.0 L 3420.0,7516.0 L 3420.0,7870.0 L 3355.0,7870.0 L 3290.0,7870.0 L 3290.0,7500.0" /><path fill="#C9A962" d="M 6820.0,7670.0 L 6820.0,7471.0 L 6850.0,7455.0 C 6866.0,7447.0 6896.0,7426.0 6915.0,7409.0 L 6950.0,7378.0 L 6950.0,7624.0 L 6950.0,7870.0 L 6885.0,7870.0 L 6820.0,7870.0 L 6820.0,7670.0" /><path fill="#C9A962" d="M 2732.0,7405.0 C 2730.0,7171.0 2732.0,6980.0 2735.0,6980.0 C 2739.0,6980.0 2766.0,6987.0 2796.0,6996.0 L 2850.0,7011.0 L 2850.0,7421.0 L 2850.0,7830.0 L 2793.0,7830.0 L 2735.0,7830.0 L 2732.0,7405.0" /><path fill="#C9A962" d="M 7390.0,7436.0 L 7390.0,7042.0 L 7450.0,7027.0 L 7510.0,7012.0 L 7510.0,7421.0 L 7510.0,7830.0 L 7450.0,7830.0 L 7390.0,7830.0 L 7390.0,7436.0" /><path fill="#C9A962" d="M 2450.0,7460.0 C 2450.0,7359.0 2452.0,7350.0 2471.0,7340.0 C 2482.0,7333.0 2509.0,7312.0 2531.0,7293.0 L 2570.0,7258.0 L 2570.0,7414.0 L 2570.0,7570.0 L 2510.0,7570.0 L 2450.0,7570.0 L 2450.0,7460.0" /><path fill="#C9A962" d="M 7680.0,7419.0 C 7680.0,7267.0 7680.0,7267.0 7699.0,7292.0 C 7710.0,7305.0 7737.0,7325.0 7759.0,7335.0 L 7800.0,7353.0 L 7800.0,7462.0 L 7800.0,7570.0 L 7740.0,7570.0 L 7680.0,7570.0 L 7680.0,7419.0" /><path fill="#C9A962" d="M 6260.0,7415.0 C 6260.0,7341.0 6262.0,7280.0 6264.0,7280.0 C 6267.0,7280.0 6283.0,7305.0 6300.0,7335.0 C 6317.0,7365.0 6342.0,7398.0 6356.0,7409.0 C 6377.0,7425.0 6380.0,7436.0 6380.0,7489.0 L 6380.0,7550.0 L 6320.0,7550.0 L 6260.0,7550.0 L 6260.0,7415.0" /><path fill="#C9A962" d="M 3877.0,7534.0 C 3873.0,7530.0 3870.0,7473.0 3870.0,7408.0 C 3870.0,7277.0 3866.0,7283.0 3945.0,7303.0 L 3995.0,7316.0 L 3995.0,7426.0 L 3995.0,7535.0 L 3940.0,7538.0 C 3909.0,7540.0 3881.0,7538.0 3877.0,7534.0" /><path fill="#C9A962" d="M 6575.0,7356.0 C 6526.0,7349.0 6475.0,7338.0 6464.0,7332.0 C 6430.0,7314.0 6392.0,7200.0 6419.0,7200.0 C 6443.0,7200.0 6462.0,7215.0 6475.0,7246.0 C 6485.0,7271.0 6497.0,7281.0 6527.0,7289.0 C 6597.0,7309.0 6666.0,7296.0 6699.0,7257.0 C 6715.0,7236.0 6752.0,7236.0 6805.0,7255.0 C 6841.0,7268.0 6846.0,7268.0 6858.0,7253.0 C 6874.0,7231.0 6873.0,7177.0 6856.0,7137.0 C 6840.0,7097.0 6787.0,7051.0 6749.0,7043.0 C 6734.0,7040.0 6719.0,7032.0 6716.0,7024.0 C 6712.0,7014.0 6717.0,7013.0 6738.0,7021.0 C 6836.0,7058.0 6881.0,7112.0 6882.0,7195.0 C 6883.0,7229.0 6876.0,7249.0 6849.0,7287.0 C 6789.0,7370.0 6751.0,7380.0 6575.0,7356.0" /><path fill="#C9A962" d="M 1872.0,7310.0 C 1779.0,7285.0 1715.0,7250.0 1640.0,7183.0 C 1395.0,6961.0 1331.0,6557.0 1492.0,6247.0 C 1564.0,6108.0 1681.0,6013.0 1825.0,5975.0 C 2027.0,5923.0 2268.0,6025.0 2399.0,6219.0 C 2504.0,6374.0 2544.0,6499.0 2545.0,6680.0 C 2545.0,6829.0 2533.0,6883.0 2473.0,7009.0 C 2396.0,7170.0 2268.0,7275.0 2099.0,7315.0 C 2015.0,7334.0 1961.0,7333.0 1872.0,7310.0 M 2153.0,7203.0 C 2331.0,7118.0 2440.0,6920.0 2440.0,6681.0 C 2439.0,6476.0 2374.0,6314.0 2239.0,6181.0 C 2140.0,6083.0 2040.0,6045.0 1904.0,6052.0 C 1653.0,6065.0 1477.0,6292.0 1476.0,6605.0 C 1474.0,6897.0 1624.0,7147.0 1845.0,7220.0 C 1890.0,7235.0 1927.0,7239.0 1995.0,7237.0 C 2073.0,7235.0 2094.0,7231.0 2153.0,7203.0" /><path fill="#C9A962" d="M 1890.0,7124.0 C 1814.0,7103.0 1761.0,7070.0 1700.0,7003.0 C 1607.0,6901.0 1560.0,6770.0 1560.0,6612.0 C 1560.0,6499.0 1579.0,6419.0 1627.0,6327.0 C 1696.0,6196.0 1801.0,6135.0 1945.0,6142.0 C 2050.0,6148.0 2118.0,6180.0 2192.0,6258.0 C 2237.0,6305.0 2322.0,6440.0 2307.0,6440.0 C 2305.0,6440.0 2286.0,6413.0 2266.0,6381.0 C 2167.0,6221.0 1999.0,6153.0 1846.0,6210.0 C 1665.0,6278.0 1562.0,6521.0 1615.0,6749.0 C 1648.0,6887.0 1746.0,7016.0 1857.0,7068.0 C 1940.0,7106.0 2053.0,7106.0 2125.0,7068.0 C 2232.0,7012.0 2317.0,6887.0 2344.0,6744.0 C 2367.0,6623.0 2368.0,6622.0 2369.0,6655.0 C 2371.0,6709.0 2350.0,6813.0 2323.0,6890.0 C 2301.0,6953.0 2286.0,6975.0 2231.0,7031.0 C 2129.0,7133.0 2028.0,7161.0 1890.0,7124.0" /><path fill="#C9A962" d="M 1950.0,6778.0 C 1859.0,6715.0 1858.0,6583.0 1949.0,6523.0 C 2073.0,6440.0 2215.0,6594.0 2139.0,6730.0 C 2099.0,6800.0 2015.0,6822.0 1950.0,6778.0 M 2144.0,6613.0 C 2140.0,6595.0 2132.0,6576.0 2126.0,6571.0 C 2117.0,6563.0 2115.0,6575.0 2118.0,6623.0 C 2120.0,6657.0 2124.0,6692.0 2127.0,6700.0 C 2136.0,6724.0 2150.0,6650.0 2144.0,6613.0" /><path fill="#C9A962" d="M 1703.0,6723.0 C 1672.0,6649.0 1677.0,6465.0 1711.0,6444.0 C 1716.0,6441.0 1715.0,6451.0 1709.0,6467.0 C 1693.0,6507.0 1696.0,6656.0 1713.0,6713.0 C 1731.0,6769.0 1725.0,6775.0 1703.0,6723.0" /><path fill="#C9A962" d="M 8140.0,7314.0 C 7977.0,7279.0 7831.0,7171.0 7764.0,7035.0 C 7707.0,6918.0 7695.0,6855.0 7696.0,6680.0 C 7696.0,6529.0 7697.0,6522.0 7732.0,6423.0 C 7777.0,6291.0 7819.0,6223.0 7907.0,6134.0 C 8057.0,5983.0 8253.0,5926.0 8432.0,5983.0 C 8773.0,6092.0 8933.0,6513.0 8784.0,6908.0 C 8707.0,7114.0 8532.0,7275.0 8343.0,7315.0 C 8260.0,7333.0 8224.0,7333.0 8140.0,7314.0 M 8381.0,7220.0 C 8513.0,7180.0 8616.0,7087.0 8686.0,6945.0 C 8747.0,6820.0 8764.0,6748.0 8764.0,6615.0 C 8763.0,6484.0 8743.0,6395.0 8692.0,6296.0 C 8644.0,6204.0 8578.0,6140.0 8483.0,6093.0 C 8408.0,6056.0 8403.0,6055.0 8296.0,6055.0 C 8192.0,6055.0 8181.0,6057.0 8117.0,6087.0 C 7824.0,6226.0 7700.0,6667.0 7862.0,6989.0 C 7920.0,7104.0 8018.0,7193.0 8123.0,7225.0 C 8187.0,7246.0 8307.0,7243.0 8381.0,7220.0" /><path fill="#C9A962" d="M 8143.0,7126.0 C 8054.0,7097.0 7973.0,7024.0 7925.0,6930.0 C 7895.0,6870.0 7869.0,6751.0 7871.0,6677.0 C 7873.0,6626.0 7873.0,6626.0 7881.0,6695.0 C 7913.0,6944.0 8073.0,7116.0 8254.0,7097.0 C 8347.0,7087.0 8419.0,7053.0 8485.0,6986.0 C 8586.0,6883.0 8630.0,6775.0 8630.0,6625.0 C 8630.0,6424.0 8529.0,6254.0 8379.0,6205.0 C 8311.0,6182.0 8198.0,6189.0 8135.0,6220.0 C 8072.0,6251.0 7996.0,6322.0 7954.0,6391.0 C 7895.0,6486.0 7899.0,6460.0 7958.0,6357.0 C 8002.0,6281.0 8079.0,6207.0 8148.0,6173.0 C 8198.0,6148.0 8216.0,6145.0 8300.0,6145.0 C 8379.0,6145.0 8403.0,6149.0 8442.0,6168.0 C 8523.0,6208.0 8577.0,6264.0 8620.0,6354.0 C 8683.0,6486.0 8697.0,6622.0 8660.0,6764.0 C 8606.0,6976.0 8445.0,7125.0 8259.0,7136.0 C 8212.0,7138.0 8170.0,7135.0 8143.0,7126.0" /><path fill="#C9A962" d="M 8129.0,6773.0 C 8094.0,6743.0 8070.0,6695.0 8070.0,6653.0 C 8071.0,6608.0 8106.0,6542.0 8142.0,6520.0 C 8238.0,6462.0 8350.0,6536.0 8350.0,6657.0 C 8350.0,6770.0 8212.0,6842.0 8129.0,6773.0 M 8340.0,6658.0 C 8340.0,6642.0 8336.0,6630.0 8330.0,6630.0 C 8325.0,6630.0 8320.0,6649.0 8320.0,6673.0 C 8320.0,6704.0 8323.0,6711.0 8330.0,6700.0 C 8335.0,6692.0 8340.0,6673.0 8340.0,6658.0 M 8150.0,6608.0 C 8150.0,6570.0 8147.0,6559.0 8140.0,6570.0 C 8127.0,6590.0 8127.0,6660.0 8140.0,6660.0 C 8146.0,6660.0 8150.0,6636.0 8150.0,6608.0" /><path fill="#C9A962" d="M 8526.0,6700.0 C 8541.0,6647.0 8540.0,6532.0 8526.0,6470.0 C 8521.0,6449.0 8522.0,6450.0 8534.0,6475.0 C 8567.0,6543.0 8562.0,6686.0 8525.0,6736.0 C 8514.0,6751.0 8514.0,6745.0 8526.0,6700.0" /><path fill="#C9A962" d="M 6506.0,7259.0 C 6471.0,7232.0 6473.0,7219.0 6511.0,7232.0 C 6554.0,7247.0 6623.0,7219.0 6650.0,7176.0 C 6672.0,7140.0 6676.0,7081.0 6659.0,7047.0 C 6652.0,7032.0 6658.0,7035.0 6679.0,7058.0 C 6704.0,7084.0 6710.0,7099.0 6710.0,7134.0 C 6710.0,7239.0 6582.0,7318.0 6506.0,7259.0" /><path fill="#C9A962" d="M 4520.0,7229.0 C 4261.0,7211.0 4036.0,7172.0 3863.0,7114.0 C 3695.0,7058.0 3620.0,7007.0 3574.0,6917.0 C 3520.0,6814.0 3598.0,6686.0 3768.0,6597.0 C 3880.0,6538.0 4001.0,6506.0 4300.0,6455.0 C 4528.0,6415.0 4658.0,6407.0 4960.0,6413.0 C 5335.0,6420.0 5550.0,6450.0 5779.0,6525.0 C 6030.0,6609.0 6182.0,6742.0 6152.0,6851.0 C 6144.0,6880.0 6142.0,6882.0 6136.0,6865.0 C 6103.0,6770.0 6036.0,6696.0 5921.0,6632.0 C 5574.0,6438.0 4782.0,6403.0 4075.0,6550.0 C 3853.0,6596.0 3665.0,6696.0 3613.0,6794.0 C 3593.0,6832.0 3601.0,6899.0 3629.0,6938.0 C 3668.0,6993.0 3851.0,7077.0 4035.0,7125.0 C 4286.0,7190.0 4561.0,7215.0 4939.0,7207.0 C 5253.0,7200.0 5481.0,7171.0 5710.0,7108.0 C 5818.0,7079.0 5985.0,7008.0 5968.0,6999.0 C 5957.0,6993.0 5732.0,6932.0 5657.0,6916.0 C 5633.0,6910.0 5630.0,6907.0 5640.0,6895.0 C 5647.0,6887.0 5663.0,6880.0 5676.0,6880.0 C 5718.0,6880.0 6014.0,6961.0 6100.0,6996.0 C 6267.0,7064.0 6510.0,7149.0 6584.0,7165.0 C 6611.0,7171.0 6612.0,7172.0 6597.0,7187.0 C 6588.0,7196.0 6566.0,7203.0 6548.0,7203.0 C 6521.0,7203.0 6290.0,7125.0 6079.0,7044.0 L 6034.0,7027.0 L 5904.0,7078.0 C 5582.0,7205.0 5032.0,7265.0 4520.0,7229.0" /><path fill="#C9A962" d="M 3205.0,6930.0 C 2996.0,6865.0 2814.0,6807.0 2800.0,6802.0 L 2774.0,6792.0 L 2785.0,6704.0 L 2795.0,6617.0 L 2925.0,6574.0 C 2997.0,6551.0 3289.0,6455.0 3575.0,6362.0 C 3861.0,6268.0 4226.0,6150.0 4385.0,6100.0 C 4545.0,6050.0 4789.0,5972.0 4928.0,5927.0 L 5182.0,5846.0 L 5238.0,5862.0 C 5296.0,5878.0 6051.0,6170.0 6305.0,6275.0 C 6382.0,6306.0 6477.0,6344.0 6515.0,6357.0 C 6554.0,6371.0 6748.0,6449.0 6946.0,6531.0 C 7145.0,6613.0 7334.0,6689.0 7366.0,6701.0 C 7438.0,6727.0 7450.0,6736.0 7450.0,6764.0 C 7450.0,6783.0 7432.0,6790.0 7283.0,6833.0 C 7190.0,6859.0 7072.0,6891.0 7020.0,6905.0 C 6968.0,6918.0 6915.0,6932.0 6903.0,6936.0 C 6881.0,6942.0 6880.0,6940.0 6880.0,6876.0 C 6880.0,6819.0 6877.0,6809.0 6857.0,6796.0 C 6811.0,6765.0 6742.0,6748.0 6645.0,6743.0 C 6551.0,6738.0 6478.0,6748.0 6406.0,6776.0 C 6390.0,6782.0 6388.0,6780.0 6395.0,6764.0 C 6400.0,6754.0 6405.0,6726.0 6408.0,6703.0 C 6422.0,6559.0 6163.0,6360.0 5839.0,6266.0 C 5583.0,6192.0 4963.0,6150.0 4620.0,6184.0 C 4426.0,6202.0 4143.0,6248.0 3998.0,6285.0 C 3825.0,6329.0 3573.0,6437.0 3467.0,6512.0 C 3412.0,6552.0 3355.0,6616.0 3340.0,6655.0 C 3323.0,6700.0 3329.0,6771.0 3354.0,6825.0 C 3380.0,6881.0 3448.0,6949.0 3533.0,7003.0 C 3564.0,7023.0 3590.0,7042.0 3590.0,7045.0 C 3590.0,7048.0 3589.0,7050.0 3588.0,7049.0 C 3586.0,7048.0 3414.0,6995.0 3205.0,6930.0 M 3206.0,6776.0 C 3214.0,6765.0 3220.0,6739.0 3220.0,6718.0 C 3220.0,6670.0 3198.0,6655.0 3099.0,6634.0 C 3017.0,6616.0 2943.0,6620.0 2886.0,6644.0 C 2849.0,6659.0 2848.0,6662.0 2853.0,6697.0 C 2861.0,6744.0 2864.0,6746.0 2946.0,6776.0 C 3003.0,6796.0 3030.0,6800.0 3103.0,6798.0 C 3177.0,6795.0 3194.0,6792.0 3206.0,6776.0 M 7238.0,6739.0 C 7241.0,6721.0 7155.0,6680.0 7114.0,6680.0 C 7085.0,6680.0 7061.0,6717.0 7084.0,6726.0 C 7176.0,6761.0 7233.0,6766.0 7238.0,6739.0 M 6975.0,6676.0 C 6993.0,6663.0 6992.0,6662.0 6969.0,6648.0 C 6956.0,6639.0 6844.0,6595.0 6721.0,6550.0 C 6529.0,6480.0 6493.0,6470.0 6473.0,6479.0 C 6433.0,6497.0 6449.0,6523.0 6515.0,6547.0 C 6548.0,6559.0 6647.0,6595.0 6735.0,6628.0 C 6902.0,6691.0 6944.0,6699.0 6975.0,6676.0 M 5508.0,6069.0 C 5490.0,6060.0 5449.0,6044.0 5418.0,6034.0 C 5372.0,6020.0 5356.0,6019.0 5335.0,6028.0 C 5321.0,6034.0 5310.0,6044.0 5310.0,6050.0 C 5310.0,6063.0 5361.0,6086.0 5433.0,6104.0 C 5479.0,6116.0 5488.0,6116.0 5513.0,6102.0 L 5540.0,6086.0 L 5508.0,6069.0 M 5220.0,6046.0 C 5254.0,6036.0 5267.0,6026.0 5275.0,6005.0 C 5283.0,5982.0 5281.0,5975.0 5262.0,5960.0 C 5218.0,5924.0 5064.0,5922.0 5013.0,5956.0 C 4984.0,5974.0 4981.0,6034.0 5008.0,6049.0 C 5033.0,6064.0 5167.0,6062.0 5220.0,6046.0" /><path fill="#C9A962" d="M 3010.0,6754.0 C 2952.0,6744.0 2900.0,6727.0 2900.0,6718.0 C 2900.0,6704.0 2947.0,6690.0 2993.0,6690.0 C 3075.0,6690.0 3187.0,6726.0 3167.0,6746.0 C 3159.0,6754.0 3043.0,6760.0 3010.0,6754.0" /><path fill="#C9A962" d="M 5038.0,6034.0 C 5007.0,6004.0 5074.0,5977.0 5167.0,5982.0 C 5272.0,5988.0 5232.0,6022.0 5105.0,6036.0 C 5072.0,6039.0 5042.0,6038.0 5038.0,6034.0" /><path fill="#C9A962" d="M 6505.0,7035.0 C 6500.0,7033.0 6483.0,7029.0 6468.0,7026.0 C 6433.0,7018.0 6433.0,7004.0 6466.0,6969.0 C 6488.0,6946.0 6497.0,6943.0 6533.0,6947.0 C 6588.0,6954.0 6600.0,6965.0 6600.0,7006.0 C 6600.0,7039.0 6599.0,7040.0 6558.0,7039.0 C 6534.0,7039.0 6511.0,7037.0 6505.0,7035.0" /><path fill="#C9A962" d="M 2595.0,6963.0 C 2611.0,6920.0 2631.0,6720.0 2625.0,6650.0 C 2611.0,6473.0 2563.0,6314.0 2489.0,6200.0 C 2443.0,6128.0 2367.0,6045.0 2325.0,6019.0 C 2308.0,6008.0 2302.0,6000.0 2311.0,6000.0 C 2319.0,6000.0 2346.0,6013.0 2371.0,6028.0 C 2586.0,6166.0 2716.0,6515.0 2656.0,6796.0 C 2641.0,6867.0 2603.0,6980.0 2593.0,6980.0 C 2590.0,6980.0 2591.0,6972.0 2595.0,6963.0" /><path fill="#C9A962" d="M 4653.0,6966.0 C 4550.0,6946.0 4486.0,6923.0 4460.0,6896.0 C 4387.0,6817.0 4558.0,6756.0 4855.0,6756.0 C 5060.0,6755.0 5100.0,6762.0 5100.0,6794.0 C 5100.0,6823.0 5145.0,6866.0 5194.0,6883.0 L 5233.0,6896.0 L 5174.0,6918.0 C 5031.0,6971.0 4795.0,6993.0 4653.0,6966.0 M 4898.0,6944.0 C 4915.0,6932.0 4920.0,6919.0 4920.0,6886.0 C 4920.0,6839.0 4911.0,6830.0 4861.0,6830.0 C 4808.0,6830.0 4770.0,6850.0 4770.0,6877.0 C 4770.0,6904.0 4787.0,6941.0 4804.0,6952.0 C 4823.0,6965.0 4875.0,6961.0 4898.0,6944.0" /><path fill="#C9A962" d="M 4827.0,6923.0 C 4812.0,6909.0 4820.0,6870.0 4838.0,6870.0 C 4855.0,6870.0 4883.0,6914.0 4872.0,6925.0 C 4865.0,6932.0 4835.0,6931.0 4827.0,6923.0" /><path fill="#C9A962" d="M 7602.0,6897.0 C 7560.0,6782.0 7546.0,6671.0 7560.0,6573.0 C 7592.0,6338.0 7719.0,6113.0 7864.0,6029.0 C 7934.0,5990.0 7953.0,5992.0 7894.0,6033.0 C 7759.0,6126.0 7651.0,6336.0 7620.0,6568.0 C 7606.0,6668.0 7611.0,6829.0 7630.0,6918.0 C 7648.0,7000.0 7636.0,6990.0 7602.0,6897.0" /><path fill="#C9A962" d="M 5354.0,6881.0 C 5145.0,6817.0 5142.0,6815.0 5211.0,6807.0 C 5257.0,6801.0 5289.0,6806.0 5391.0,6834.0 C 5459.0,6853.0 5528.0,6873.0 5543.0,6879.0 C 5583.0,6895.0 5588.0,6893.0 5605.0,6860.0 C 5627.0,6817.0 5624.0,6784.0 5594.0,6761.0 C 5579.0,6749.0 5573.0,6740.0 5579.0,6740.0 C 5586.0,6740.0 5602.0,6751.0 5616.0,6765.0 C 5637.0,6786.0 5640.0,6796.0 5635.0,6823.0 C 5631.0,6841.0 5623.0,6863.0 5618.0,6873.0 C 5606.0,6897.0 5550.0,6930.0 5525.0,6929.0 C 5514.0,6928.0 5437.0,6907.0 5354.0,6881.0" /><path fill="#C9A962" d="M 5925.0,6870.0 C 5865.0,6854.0 5784.0,6835.0 5746.0,6829.0 C 5690.0,6819.0 5681.0,6814.0 5694.0,6805.0 C 5707.0,6795.0 5738.0,6800.0 5848.0,6831.0 C 5992.0,6871.0 6075.0,6899.0 6050.0,6898.0 C 6042.0,6898.0 5986.0,6885.0 5925.0,6870.0" /><path fill="#C9A962" d="M 6228.0,6863.0 C 6294.0,6778.0 6301.0,6726.0 6260.0,6642.0 C 6243.0,6609.0 6212.0,6566.0 6191.0,6547.0 C 6058.0,6427.0 5807.0,6338.0 5480.0,6296.0 C 4984.0,6232.0 4462.0,6259.0 4033.0,6370.0 C 3796.0,6432.0 3725.0,6458.0 3629.0,6521.0 C 3478.0,6620.0 3436.0,6704.0 3477.0,6823.0 L 3498.0,6881.0 L 3468.0,6853.0 C 3406.0,6795.0 3394.0,6729.0 3431.0,6654.0 C 3462.0,6589.0 3521.0,6543.0 3656.0,6478.0 C 4080.0,6276.0 4651.0,6194.0 5287.0,6245.0 C 5660.0,6275.0 5856.0,6321.0 6060.0,6426.0 C 6107.0,6450.0 6168.0,6488.0 6195.0,6511.0 C 6252.0,6558.0 6329.0,6673.0 6330.0,6710.0 C 6330.0,6747.0 6297.0,6812.0 6255.0,6859.0 C 6208.0,6910.0 6188.0,6913.0 6228.0,6863.0" /><path fill="#C9A962" d="M 6414.0,6878.0 C 6406.0,6850.0 6427.0,6835.0 6492.0,6821.0 C 6637.0,6789.0 6862.0,6832.0 6805.0,6880.0 C 6793.0,6890.0 6781.0,6890.0 6752.0,6882.0 C 6670.0,6858.0 6607.0,6858.0 6516.0,6879.0 C 6468.0,6891.0 6427.0,6900.0 6425.0,6900.0 C 6423.0,6900.0 6418.0,6890.0 6414.0,6878.0" /><path fill="#C9A962" d="M 4186.0,6842.0 C 4225.0,6807.0 4305.0,6758.0 4348.0,6741.0 C 4410.0,6716.0 4416.0,6721.0 4360.0,6750.0 C 4338.0,6761.0 4292.0,6788.0 4259.0,6810.0 C 4204.0,6845.0 4159.0,6865.0 4186.0,6842.0" /><path fill="#C9A962" d="M 4075.0,6797.0 C 4085.0,6772.0 4177.0,6727.0 4269.0,6704.0 C 4410.0,6668.0 4409.0,6675.0 4265.0,6729.0 C 4194.0,6755.0 4120.0,6784.0 4103.0,6793.0 C 4080.0,6805.0 4072.0,6806.0 4075.0,6797.0" /><path fill="#C9A962" d="M 3925.0,6775.0 C 3979.0,6728.0 4114.0,6670.0 4216.0,6649.0 C 4269.0,6638.0 4314.0,6631.0 4316.0,6633.0 C 4318.0,6635.0 4247.0,6663.0 4158.0,6695.0 C 4068.0,6727.0 3973.0,6764.0 3945.0,6777.0 L 3895.0,6801.0 L 3925.0,6775.0" /><path fill="#C9A962" d="M 5153.0,6784.0 C 5151.0,6777.0 5150.0,6759.0 5152.0,6744.0 C 5154.0,6720.0 5161.0,6715.0 5195.0,6708.0 C 5250.0,6696.0 5258.0,6702.0 5251.0,6747.0 C 5245.0,6783.0 5242.0,6785.0 5201.0,6791.0 C 5171.0,6795.0 5157.0,6793.0 5153.0,6784.0" /><path fill="#C9A962" d="M 3501.0,6770.0 C 3500.0,6695.0 3601.0,6584.0 3723.0,6526.0 C 3858.0,6463.0 4138.0,6390.0 4410.0,6349.0 C 4537.0,6329.0 4597.0,6326.0 4890.0,6326.0 C 5244.0,6325.0 5333.0,6331.0 5578.0,6376.0 C 5813.0,6419.0 5961.0,6470.0 6084.0,6550.0 C 6161.0,6600.0 6204.0,6651.0 6215.0,6705.0 C 6221.0,6730.0 6216.0,6726.0 6192.0,6684.0 C 6140.0,6597.0 6040.0,6528.0 5883.0,6471.0 C 5614.0,6373.0 5139.0,6317.0 4764.0,6339.0 C 4504.0,6355.0 4133.0,6416.0 3913.0,6480.0 C 3708.0,6539.0 3562.0,6638.0 3521.0,6744.0 C 3506.0,6781.0 3501.0,6788.0 3501.0,6770.0" /><path fill="#C9A962" d="M 3780.0,6760.0 C 3795.0,6733.0 3913.0,6666.0 3990.0,6641.0 C 4082.0,6612.0 4221.0,6590.0 4304.0,6591.0 L 4375.0,6593.0 L 4280.0,6606.0 C 4139.0,6627.0 3862.0,6717.0 3806.0,6761.0 C 3775.0,6785.0 3767.0,6785.0 3780.0,6760.0" /><path fill="#C9A962" d="M 5390.0,6688.0 C 5347.0,6673.0 5316.0,6669.0 5252.0,6672.0 C 5207.0,6673.0 5170.0,6674.0 5170.0,6672.0 C 5170.0,6665.0 5196.0,6624.0 5205.0,6618.0 C 5211.0,6614.0 5234.0,6610.0 5257.0,6610.0 C 5280.0,6610.0 5301.0,6605.0 5304.0,6598.0 C 5309.0,6588.0 5311.0,6588.0 5316.0,6598.0 C 5319.0,6604.0 5328.0,6610.0 5336.0,6610.0 C 5367.0,6610.0 5431.0,6643.0 5426.0,6657.0 C 5423.0,6664.0 5429.0,6679.0 5440.0,6690.0 C 5464.0,6714.0 5460.0,6714.0 5390.0,6688.0 M 5387.0,6645.0 C 5365.0,6629.0 5292.0,6615.0 5282.0,6625.0 C 5274.0,6633.0 5301.0,6650.0 5320.0,6648.0 C 5328.0,6648.0 5342.0,6650.0 5350.0,6653.0 C 5398.0,6671.0 5417.0,6667.0 5387.0,6645.0 M 5254.0,6644.0 C 5281.0,6634.0 5272.0,6619.0 5243.0,6626.0 C 5206.0,6635.0 5190.0,6650.0 5217.0,6650.0 C 5229.0,6650.0 5245.0,6647.0 5254.0,6644.0" /><path fill="#C9A962" d="M 7285.0,6593.0 C 7208.0,6563.0 6999.0,6479.0 6820.0,6408.0 C 6641.0,6337.0 6416.0,6248.0 6320.0,6211.0 C 6091.0,6123.0 5583.0,5923.0 5400.0,5848.0 C 5320.0,5816.0 5237.0,5787.0 5214.0,5783.0 C 5180.0,5779.0 5111.0,5798.0 4789.0,5903.0 C 4578.0,5972.0 4297.0,6063.0 4165.0,6105.0 C 4033.0,6147.0 3777.0,6231.0 3595.0,6290.0 C 3414.0,6350.0 3236.0,6407.0 3200.0,6418.0 C 3164.0,6429.0 3057.0,6464.0 2962.0,6495.0 C 2866.0,6526.0 2787.0,6550.0 2785.0,6548.0 C 2783.0,6547.0 2780.0,6527.0 2779.0,6506.0 L 2775.0,6466.0 L 3265.0,6304.0 C 3535.0,6215.0 3865.0,6107.0 4000.0,6065.0 C 4135.0,6023.0 4448.0,5922.0 4695.0,5842.0 C 5054.0,5725.0 5156.0,5695.0 5200.0,5695.0 C 5248.0,5695.0 5321.0,5721.0 5785.0,5907.0 C 6077.0,6023.0 6459.0,6175.0 6635.0,6245.0 C 6811.0,6314.0 7064.0,6414.0 7198.0,6467.0 L 7440.0,6564.0 L 7440.0,6607.0 C 7440.0,6631.0 7437.0,6650.0 7433.0,6649.0 C 7428.0,6649.0 7362.0,6624.0 7285.0,6593.0" /><path fill="#C9A962" d="M 2840.0,6210.0 C 2840.0,6205.0 2828.0,6200.0 2813.0,6200.0 C 2797.0,6200.0 2790.0,6196.0 2796.0,6191.0 C 2803.0,6183.0 3127.0,6070.0 3335.0,6002.0 C 3368.0,5991.0 3586.0,5915.0 3820.0,5832.0 C 4054.0,5749.0 4283.0,5672.0 4330.0,5661.0 C 4377.0,5650.0 4429.0,5636.0 4445.0,5630.0 C 4462.0,5624.0 4471.0,5623.0 4465.0,5628.0 C 4445.0,5647.0 3988.0,5823.0 3560.0,5975.0 C 3354.0,6048.0 2852.0,6220.0 2843.0,6220.0 C 2841.0,6220.0 2840.0,6216.0 2840.0,6210.0" /><path fill="#C9A962" d="M 6940.0,6121.0 C 6592.0,5998.0 5726.0,5633.0 5776.0,5631.0 C 5782.0,5630.0 5865.0,5657.0 5961.0,5689.0 C 6135.0,5748.0 6455.0,5878.0 6690.0,5985.0 C 6759.0,6016.0 6871.0,6066.0 6939.0,6096.0 C 7143.0,6186.0 7143.0,6193.0 6940.0,6121.0" /><path fill="#C9A962" d="M 7172.0,6026.0 C 7043.0,5974.0 6935.0,5929.0 6932.0,5926.0 C 6920.0,5914.0 7169.0,5921.0 7234.0,5935.0 C 7271.0,5943.0 7333.0,5964.0 7371.0,5981.0 L 7440.0,6013.0 L 7440.0,6066.0 C 7440.0,6111.0 7437.0,6120.0 7423.0,6120.0 C 7413.0,6120.0 7300.0,6077.0 7172.0,6026.0" /><path fill="#C9A962" d="M 2736.0,6084.0 C 2727.0,6061.0 2729.0,5972.0 2738.0,5966.0 C 2742.0,5964.0 2779.0,5953.0 2820.0,5942.0 C 2890.0,5924.0 2902.0,5923.0 3005.0,5936.0 C 3149.0,5955.0 3154.0,5957.0 3100.0,5981.0 C 3057.0,6001.0 2764.0,6100.0 2749.0,6100.0 C 2745.0,6100.0 2739.0,6093.0 2736.0,6084.0" /><path fill="#C9A962" d="M 7340.0,5865.0 C 7299.0,5852.0 7214.0,5837.0 7153.0,5830.0 C 7091.0,5823.0 7043.0,5814.0 7045.0,5809.0 C 7048.0,5805.0 7084.0,5794.0 7126.0,5785.0 C 7252.0,5756.0 7373.0,5787.0 7413.0,5858.0 C 7423.0,5875.0 7428.0,5889.0 7423.0,5889.0 C 7419.0,5888.0 7381.0,5877.0 7340.0,5865.0" /><path fill="#C9A962" d="M 2802.0,5830.0 C 2839.0,5801.0 2882.0,5790.0 2959.0,5790.0 C 3034.0,5790.0 3093.0,5806.0 3117.0,5832.0 C 3133.0,5850.0 3132.0,5851.0 3049.0,5843.0 C 2941.0,5833.0 2876.0,5833.0 2820.0,5844.0 L 2775.0,5852.0 L 2802.0,5830.0" /><path fill="#C9A962" d="M 7603.0,5783.0 C 7612.0,5739.0 7590.0,5671.0 7555.0,5634.0 L 7523.0,5600.0 L 7069.0,5599.0 C 6819.0,5598.0 6566.0,5595.0 6505.0,5591.0 L 6395.0,5585.0 L 6395.0,5555.0 L 6395.0,5525.0 L 7345.0,5525.0 L 8295.0,5525.0 L 8298.0,5549.0 C 8300.0,5562.0 8297.0,5577.0 8292.0,5582.0 C 8286.0,5588.0 8170.0,5594.0 8008.0,5597.0 L 7735.0,5601.0 L 7701.0,5629.0 C 7660.0,5661.0 7630.0,5715.0 7623.0,5770.0 C 7620.0,5792.0 7613.0,5810.0 7608.0,5810.0 C 7602.0,5810.0 7600.0,5798.0 7603.0,5783.0" /><path fill="#C9A962" d="M 4851.0,5666.0 C 4853.0,5663.0 4918.0,5636.0 4995.0,5605.0 C 5162.0,5537.0 5193.0,5535.0 5313.0,5593.0 C 5355.0,5613.0 5394.0,5630.0 5399.0,5630.0 C 5405.0,5630.0 5411.0,5634.0 5414.0,5639.0 C 5417.0,5644.0 5381.0,5637.0 5333.0,5624.0 C 5214.0,5591.0 5151.0,5593.0 4991.0,5635.0 C 4852.0,5671.0 4844.0,5673.0 4851.0,5666.0" /><path fill="#C9A962" d="M 1595.0,5630.0 C 1558.0,5589.0 1611.0,5524.0 1661.0,5550.0 C 1706.0,5575.0 1687.0,5650.0 1635.0,5650.0 C 1623.0,5650.0 1605.0,5641.0 1595.0,5630.0" /><path fill="#C9A962" d="M 8587.0,5638.0 C 8560.0,5617.0 8562.0,5580.0 8591.0,5558.0 C 8612.0,5542.0 8622.0,5540.0 8638.0,5549.0 C 8667.0,5565.0 8675.0,5596.0 8656.0,5625.0 C 8638.0,5652.0 8613.0,5657.0 8587.0,5638.0" /><path fill="#C9A962" d="M 2165.0,5590.0 C 1954.0,5585.0 1935.0,5584.0 1932.0,5567.0 C 1922.0,5518.0 1886.0,5520.0 2895.0,5520.0 C 3743.0,5520.0 3839.0,5522.0 3851.0,5536.0 C 3860.0,5547.0 3861.0,5556.0 3853.0,5568.0 C 3844.0,5584.0 3780.0,5585.0 3119.0,5590.0 C 2721.0,5593.0 2292.0,5593.0 2165.0,5590.0" /><path fill="#C9A962" d="M 5000.0,5484.0 C 5162.0,5423.0 5170.0,5422.0 5250.0,5449.0 C 5289.0,5462.0 5318.0,5475.0 5316.0,5477.0 C 5314.0,5479.0 5283.0,5473.0 5246.0,5463.0 L 5180.0,5446.0 L 5068.0,5479.0 C 4913.0,5525.0 4887.0,5527.0 5000.0,5484.0" /><path fill="#C9A962" d="M 4575.0,5247.0 C 4396.0,5200.0 4288.0,5039.0 4320.0,4868.0 C 4343.0,4750.0 4410.0,4664.0 4547.0,4581.0 C 4803.0,4423.0 4830.0,4399.0 4830.0,4320.0 C 4830.0,4236.0 4780.0,4193.0 4671.0,4183.0 C 4573.0,4174.0 4465.0,4214.0 4365.0,4295.0 L 4309.0,4341.0 L 4316.0,4203.0 C 4321.0,4093.0 4326.0,4062.0 4339.0,4052.0 C 4366.0,4030.0 4480.0,3999.0 4574.0,3988.0 C 4793.0,3962.0 4966.0,4033.0 5037.0,4178.0 C 5062.0,4230.0 5065.0,4245.0 5065.0,4345.0 C 5065.0,4451.0 5064.0,4457.0 5031.0,4518.0 C 4987.0,4599.0 4919.0,4659.0 4782.0,4740.0 C 4608.0,4843.0 4560.0,4890.0 4560.0,4957.0 C 4560.0,5021.0 4620.0,5060.0 4718.0,5060.0 C 4810.0,5060.0 4862.0,5040.0 4969.0,4963.0 L 4992.0,4946.0 L 4985.0,5030.0 C 4981.0,5077.0 4975.0,5135.0 4971.0,5160.0 L 4965.0,5205.0 L 4895.0,5228.0 C 4808.0,5257.0 4650.0,5266.0 4575.0,5247.0" /><path fill="#C9A962" d="M 7230.0,5246.0 C 6929.0,5182.0 6740.0,4958.0 6723.0,4644.0 C 6713.0,4458.0 6773.0,4289.0 6893.0,4167.0 C 6994.0,4065.0 7105.0,4012.0 7264.0,3990.0 C 7412.0,3969.0 7625.0,3996.0 7766.0,4052.0 L 7825.0,4075.0 L 7830.0,4310.0 C 7836.0,4571.0 7840.0,4592.0 7903.0,4630.0 L 7935.0,4650.0 L 7675.0,4650.0 L 7415.0,4649.0 L 7470.0,4627.0 C 7506.0,4612.0 7532.0,4594.0 7547.0,4571.0 C 7569.0,4539.0 7570.0,4527.0 7570.0,4370.0 C 7570.0,4177.0 7581.0,4195.0 7455.0,4184.0 C 7273.0,4168.0 7109.0,4255.0 7038.0,4406.0 C 6956.0,4580.0 6985.0,4800.0 7105.0,4929.0 C 7186.0,5015.0 7290.0,5060.0 7410.0,5060.0 C 7522.0,5060.0 7664.0,5006.0 7734.0,4936.0 L 7773.0,4897.0 L 7767.0,4951.0 C 7763.0,4981.0 7760.0,5044.0 7760.0,5091.0 L 7760.0,5178.0 L 7713.0,5198.0 C 7613.0,5240.0 7556.0,5252.0 7425.0,5256.0 C 7339.0,5258.0 7273.0,5255.0 7230.0,5246.0" /><path fill="#C9A962" d="M 1354.0,5204.0 C 1368.0,5189.0 1384.0,5161.0 1390.0,5141.0 C 1396.0,5119.0 1400.0,4914.0 1400.0,4617.0 C 1400.0,4093.0 1400.0,4088.0 1348.0,4033.0 L 1327.0,4010.0 L 1523.0,4010.0 L 1719.0,4010.0 L 1695.0,4034.0 C 1659.0,4070.0 1650.0,4121.0 1650.0,4291.0 L 1650.0,4447.0 L 1766.0,4448.0 C 2035.0,4451.0 2175.0,4551.0 2212.0,4768.0 C 2243.0,4950.0 2166.0,5110.0 2015.0,5181.0 C 1935.0,5219.0 1830.0,5230.0 1551.0,5230.0 L 1327.0,5230.0 L 1354.0,5204.0 M 1870.0,5021.0 C 1939.0,4986.0 1978.0,4887.0 1960.0,4790.0 C 1936.0,4666.0 1872.0,4620.0 1718.0,4620.0 L 1650.0,4620.0 L 1650.0,4829.0 L 1650.0,5039.0 L 1683.0,5043.0 C 1738.0,5050.0 1834.0,5039.0 1870.0,5021.0" /><path fill="#C9A962" d="M 2332.0,5203.0 C 2346.0,5187.0 2362.0,5160.0 2369.0,5141.0 C 2383.0,5099.0 2384.0,4165.0 2371.0,4106.0 C 2366.0,4085.0 2349.0,4055.0 2334.0,4039.0 L 2306.0,4010.0 L 2504.0,4010.0 L 2703.0,4010.0 L 2677.0,4035.0 C 2640.0,4073.0 2630.0,4131.0 2630.0,4320.0 L 2630.0,4491.0 L 2671.0,4488.0 L 2712.0,4485.0 L 2795.0,4350.0 C 2840.0,4276.0 2905.0,4169.0 2939.0,4113.0 L 3002.0,4010.0 L 3162.0,4010.0 L 3322.0,4010.0 L 3291.0,4035.0 C 3266.0,4057.0 2992.0,4477.0 2975.0,4521.0 C 2971.0,4533.0 2978.0,4541.0 3002.0,4551.0 C 3055.0,4572.0 3130.0,4650.0 3158.0,4710.0 C 3181.0,4758.0 3184.0,4779.0 3184.0,4870.0 C 3185.0,4965.0 3182.0,4980.0 3157.0,5032.0 C 3106.0,5135.0 3006.0,5200.0 2865.0,5221.0 C 2832.0,5226.0 2693.0,5230.0 2556.0,5230.0 L 2306.0,5230.0 L 2332.0,5203.0 M 2840.0,5018.0 C 2905.0,4985.0 2933.0,4928.0 2927.0,4838.0 C 2919.0,4710.0 2861.0,4659.0 2718.0,4652.0 L 2630.0,4648.0 L 2630.0,4844.0 L 2630.0,5040.0 L 2713.0,5040.0 C 2779.0,5040.0 2805.0,5035.0 2840.0,5018.0" /><path fill="#C9A962" d="M 3438.0,5207.0 C 3451.0,5194.0 3465.0,5168.0 3470.0,5149.0 C 3484.0,5101.0 3483.0,4157.0 3469.0,4105.0 C 3463.0,4083.0 3446.0,4053.0 3432.0,4038.0 L 3406.0,4010.0 L 3777.0,4010.0 L 4147.0,4010.0 L 4169.0,4123.0 C 4181.0,4184.0 4194.0,4245.0 4197.0,4257.0 C 4202.0,4278.0 4198.0,4277.0 4133.0,4244.0 L 4063.0,4208.0 L 3897.0,4203.0 L 3730.0,4197.0 L 3730.0,4374.0 L 3730.0,4550.0 L 3871.0,4550.0 C 4006.0,4550.0 4044.0,4543.0 4062.0,4516.0 C 4066.0,4510.0 4070.0,4567.0 4070.0,4642.0 L 4070.0,4780.0 L 4038.0,4760.0 C 4009.0,4743.0 3987.0,4740.0 3868.0,4740.0 L 3730.0,4740.0 L 3730.0,4890.0 L 3730.0,5040.0 L 3854.0,5040.0 C 3998.0,5040.0 4070.0,5029.0 4112.0,4999.0 L 4142.0,4977.0 L 4136.0,5036.0 C 4133.0,5068.0 4128.0,5125.0 4124.0,5163.0 L 4118.0,5230.0 L 3767.0,5230.0 L 3417.0,5230.0 L 3438.0,5207.0" /><path fill="#C9A962" d="M 5166.0,5188.0 C 5163.0,5164.0 5158.0,5102.0 5154.0,5050.0 L 5148.0,4955.0 L 5172.0,4976.0 C 5220.0,5021.0 5260.0,5033.0 5377.0,5038.0 L 5490.0,5043.0 L 5490.0,4589.0 C 5490.0,4315.0 5486.0,4121.0 5480.0,4099.0 C 5474.0,4079.0 5458.0,4051.0 5444.0,4036.0 L 5417.0,4010.0 L 5613.0,4010.0 L 5809.0,4010.0 L 5785.0,4034.0 C 5743.0,4076.0 5740.0,4111.0 5740.0,4588.0 L 5740.0,5040.0 L 5838.0,5040.0 C 5952.0,5040.0 5998.0,5029.0 6041.0,4992.0 L 6073.0,4965.0 L 6067.0,5029.0 C 6063.0,5064.0 6060.0,5124.0 6060.0,5161.0 L 6060.0,5230.0 L 5616.0,5230.0 L 5171.0,5230.0 L 5166.0,5188.0" /><path fill="#C9A962" d="M 6190.0,5220.0 C 6190.0,5215.0 6194.0,5210.0 6200.0,5210.0 C 6205.0,5210.0 6219.0,5192.0 6230.0,5170.0 C 6250.0,5130.0 6251.0,5115.0 6250.0,4618.0 C 6250.0,4067.0 6249.0,4062.0 6196.0,4025.0 C 6178.0,4012.0 6197.0,4010.0 6374.0,4010.0 L 6572.0,4010.0 L 6546.0,4041.0 C 6532.0,4058.0 6517.0,4084.0 6512.0,4098.0 C 6508.0,4113.0 6505.0,4350.0 6505.0,4625.0 L 6505.0,5125.0 L 6528.0,5168.0 C 6540.0,5191.0 6555.0,5210.0 6560.0,5210.0 C 6566.0,5210.0 6570.0,5215.0 6570.0,5220.0 C 6570.0,5226.0 6500.0,5230.0 6380.0,5230.0 C 6260.0,5230.0 6190.0,5226.0 6190.0,5220.0" /><path fill="#C9A962" d="M 8077.0,5208.0 C 8126.0,5154.0 8125.0,5164.0 8128.0,4647.0 C 8131.0,4109.0 8128.0,4074.0 8074.0,4031.0 L 8047.0,4010.0 L 8427.0,4010.0 L 8806.0,4010.0 L 8832.0,4143.0 C 8846.0,4215.0 8857.0,4276.0 8855.0,4278.0 C 8853.0,4280.0 8835.0,4271.0 8813.0,4257.0 C 8746.0,4215.0 8710.0,4208.0 8543.0,4203.0 L 8380.0,4197.0 L 8380.0,4374.0 L 8380.0,4550.0 L 8523.0,4550.0 C 8647.0,4550.0 8669.0,4547.0 8698.0,4530.0 L 8730.0,4510.0 L 8730.0,4645.0 L 8730.0,4780.0 L 8698.0,4760.0 C 8669.0,4743.0 8647.0,4740.0 8523.0,4740.0 L 8380.0,4740.0 L 8380.0,4890.0 L 8380.0,5040.0 L 8504.0,5040.0 C 8647.0,5040.0 8720.0,5029.0 8761.0,4999.0 L 8790.0,4978.0 L 8784.0,5092.0 C 8781.0,5154.0 8777.0,5211.0 8774.0,5218.0 C 8771.0,5227.0 8690.0,5230.0 8414.0,5230.0 L 8057.0,5230.0 L 8077.0,5208.0" /><path fill="#C9A962" d="M 3603.0,3721.0 C 3550.0,3696.0 3520.0,3650.0 3520.0,3592.0 C 3520.0,3512.0 3561.0,3466.0 3680.0,3412.0 C 3716.0,3396.0 3751.0,3376.0 3758.0,3367.0 C 3778.0,3344.0 3769.0,3317.0 3737.0,3302.0 C 3702.0,3285.0 3624.0,3301.0 3585.0,3332.0 C 3570.0,3343.0 3557.0,3351.0 3556.0,3349.0 C 3554.0,3347.0 3542.0,3325.0 3530.0,3301.0 L 3508.0,3257.0 L 3531.0,3238.0 C 3544.0,3228.0 3577.0,3213.0 3604.0,3205.0 C 3700.0,3176.0 3789.0,3190.0 3848.0,3245.0 C 3883.0,3277.0 3885.0,3281.0 3885.0,3344.0 C 3885.0,3402.0 3882.0,3412.0 3855.0,3441.0 C 3839.0,3458.0 3789.0,3490.0 3744.0,3511.0 C 3665.0,3548.0 3630.0,3572.0 3630.0,3591.0 C 3630.0,3596.0 3639.0,3609.0 3650.0,3620.0 C 3677.0,3647.0 3753.0,3647.0 3799.0,3619.0 C 3817.0,3608.0 3833.0,3600.0 3835.0,3602.0 C 3836.0,3604.0 3847.0,3627.0 3858.0,3653.0 L 3879.0,3701.0 L 3842.0,3718.0 C 3784.0,3743.0 3655.0,3745.0 3603.0,3721.0" /><path fill="#C9A962" d="M 4300.0,3728.0 C 4281.0,3723.0 4247.0,3707.0 4225.0,3692.0 C 4085.0,3596.0 4077.0,3375.0 4208.0,3260.0 C 4309.0,3170.0 4481.0,3167.0 4593.0,3253.0 C 4640.0,3288.0 4681.0,3370.0 4687.0,3439.0 C 4703.0,3614.0 4579.0,3742.0 4396.0,3739.0 C 4363.0,3738.0 4319.0,3734.0 4300.0,3728.0 M 4488.0,3613.0 C 4537.0,3577.0 4554.0,3543.0 4558.0,3477.0 C 4564.0,3369.0 4505.0,3300.0 4406.0,3300.0 C 4335.0,3300.0 4290.0,3325.0 4263.0,3380.0 C 4217.0,3470.0 4247.0,3575.0 4330.0,3618.0 C 4383.0,3645.0 4447.0,3643.0 4488.0,3613.0" /><path fill="#C9A962" d="M 4932.0,3525.0 C 4935.0,3315.0 4935.0,3313.0 4962.0,3273.0 C 4994.0,3224.0 5040.0,3201.0 5123.0,3193.0 C 5237.0,3183.0 5330.0,3226.0 5360.0,3304.0 C 5366.0,3320.0 5371.0,3415.0 5371.0,3534.0 L 5371.0,3735.0 L 5313.0,3735.0 L 5255.0,3735.0 L 5250.0,3539.0 C 5246.0,3364.0 5243.0,3340.0 5226.0,3321.0 C 5201.0,3294.0 5148.0,3284.0 5109.0,3301.0 C 5058.0,3322.0 5050.0,3356.0 5050.0,3559.0 L 5050.0,3738.0 L 4989.0,3738.0 L 4929.0,3737.0 L 4932.0,3525.0" /><path fill="#C9A962" d="M 5630.0,3469.0 L 5630.0,3200.0 L 5691.0,3200.0 L 5751.0,3200.0 L 5748.0,3370.0 C 5746.0,3464.0 5745.0,3540.0 5746.0,3540.0 C 5747.0,3540.0 5798.0,3464.0 5860.0,3370.0 L 5973.0,3200.0 L 6026.0,3200.0 L 6080.0,3200.0 L 6080.0,3470.0 L 6080.0,3739.0 L 6025.0,3738.0 L 5970.0,3736.0 L 5970.0,3572.0 L 5970.0,3407.0 L 5917.0,3491.0 C 5888.0,3537.0 5839.0,3612.0 5809.0,3657.0 L 5755.0,3739.0 L 5693.0,3739.0 L 5630.0,3738.0 L 5630.0,3469.0" /><path fill="#C9A962" d="M 6339.0,3739.0 C 6339.0,3737.0 6337.0,3614.0 6334.0,3466.0 L 6330.0,3198.0 L 6473.0,3202.0 C 6631.0,3206.0 6665.0,3217.0 6727.0,3282.0 C 6774.0,3331.0 6790.0,3378.0 6790.0,3467.0 C 6790.0,3528.0 6785.0,3556.0 6766.0,3595.0 C 6718.0,3698.0 6655.0,3728.0 6470.0,3737.0 C 6399.0,3740.0 6340.0,3741.0 6339.0,3739.0 M 6602.0,3614.0 C 6665.0,3582.0 6690.0,3459.0 6651.0,3374.0 C 6629.0,3325.0 6577.0,3300.0 6500.0,3300.0 L 6450.0,3300.0 L 6450.0,3463.0 C 6450.0,3553.0 6452.0,3629.0 6455.0,3632.0 C 6464.0,3641.0 6575.0,3628.0 6602.0,3614.0" /><path fill="#C9A962" d="M 1422.0,3658.0 C 1415.0,3651.0 1410.0,3639.0 1410.0,3630.0 C 1410.0,3590.0 1400.0,3590.0 2336.0,3590.0 C 3143.0,3590.0 3240.0,3592.0 3254.0,3606.0 C 3274.0,3625.0 3274.0,3635.0 3254.0,3654.0 C 3240.0,3668.0 3143.0,3670.0 2336.0,3670.0 C 1648.0,3670.0 1431.0,3667.0 1422.0,3658.0" /><path fill="#C9A962" d="M 7046.0,3654.0 C 7037.0,3646.0 7030.0,3635.0 7030.0,3630.0 C 7030.0,3625.0 7037.0,3614.0 7046.0,3606.0 C 7060.0,3592.0 7154.0,3590.0 7935.0,3590.0 C 8789.0,3590.0 8810.0,3590.0 8820.0,3609.0 C 8833.0,3634.0 8833.0,3636.0 8814.0,3654.0 C 8800.0,3668.0 8706.0,3670.0 7930.0,3670.0 C 7154.0,3670.0 7060.0,3668.0 7046.0,3654.0" /><path fill="#C9A962" d="M 1768.0,3399.0 C 1747.0,3387.0 1745.0,3359.0 1762.0,3342.0 C 1771.0,3333.0 1936.0,3330.0 2442.0,3330.0 C 3080.0,3330.0 3110.0,3331.0 3119.0,3348.0 C 3126.0,3362.0 3125.0,3373.0 3114.0,3388.0 L 3099.0,3410.0 L 2442.0,3410.0 C 2014.0,3409.0 1779.0,3406.0 1768.0,3399.0" /><path fill="#C9A962" d="M 7168.0,3399.0 C 7147.0,3387.0 7145.0,3359.0 7162.0,3342.0 C 7179.0,3325.0 8481.0,3325.0 8498.0,3342.0 C 8516.0,3360.0 8512.0,3388.0 8491.0,3400.0 C 8464.0,3414.0 7192.0,3413.0 7168.0,3399.0" /><path fill="#C9A962" d="M 2706.0,3120.0 C 2247.0,3115.0 2206.0,3114.0 2196.0,3098.0 C 2188.0,3084.0 2189.0,3077.0 2201.0,3065.0 C 2214.0,3052.0 2275.0,3050.0 2655.0,3049.0 C 3294.0,3048.0 3248.0,3047.0 3259.0,3069.0 C 3271.0,3091.0 3255.0,3116.0 3225.0,3121.0 C 3214.0,3123.0 2980.0,3123.0 2706.0,3120.0" /><path fill="#C9A962" d="M 6989.0,3098.0 C 6979.0,3080.0 6981.0,3074.0 7000.0,3058.0 C 7021.0,3041.0 7054.0,3040.0 7520.0,3040.0 C 7997.0,3040.0 8018.0,3041.0 8034.0,3059.0 C 8048.0,3074.0 8049.0,3083.0 8040.0,3099.0 C 8029.0,3120.0 8026.0,3120.0 7515.0,3120.0 L 7001.0,3120.0 L 6989.0,3098.0" /><path fill="#C9A962" d="M 4960.0,2955.0 C 4836.0,2929.0 4760.0,2894.0 4653.0,2814.0 C 4528.0,2721.0 4437.0,2591.0 4378.0,2420.0 C 4347.0,2330.0 4346.0,2317.0 4346.0,2185.0 C 4346.0,2071.0 4350.0,2029.0 4368.0,1960.0 C 4442.0,1685.0 4635.0,1480.0 4900.0,1398.0 C 4965.0,1378.0 4995.0,1375.0 5130.0,1375.0 C 5273.0,1376.0 5291.0,1378.0 5365.0,1403.0 C 5629.0,1496.0 5806.0,1688.0 5881.0,1966.0 C 5913.0,2084.0 5914.0,2285.0 5882.0,2394.0 C 5841.0,2535.0 5778.0,2643.0 5675.0,2746.0 C 5599.0,2823.0 5570.0,2844.0 5490.0,2883.0 C 5438.0,2909.0 5368.0,2937.0 5335.0,2946.0 C 5253.0,2968.0 5044.0,2973.0 4960.0,2955.0 M 5250.0,2856.0 C 5500.0,2803.0 5698.0,2626.0 5777.0,2385.0 C 5799.0,2317.0 5803.0,2287.0 5803.0,2185.0 C 5804.0,2041.0 5786.0,1961.0 5728.0,1840.0 C 5695.0,1771.0 5671.0,1739.0 5601.0,1669.0 C 5528.0,1596.0 5501.0,1576.0 5420.0,1537.0 C 5368.0,1513.0 5304.0,1487.0 5278.0,1481.0 C 4972.0,1409.0 4661.0,1558.0 4517.0,1846.0 C 4461.0,1957.0 4446.0,2027.0 4445.0,2175.0 C 4445.0,2320.0 4464.0,2401.0 4523.0,2515.0 C 4564.0,2592.0 4696.0,2726.0 4778.0,2774.0 C 4923.0,2858.0 5098.0,2888.0 5250.0,2856.0" /><path fill="#C9A962" d="M 5018.0,2651.0 C 4919.0,2611.0 4859.0,2545.0 4840.0,2454.0 C 4830.0,2407.0 4831.0,2395.0 4847.0,2363.0 C 4877.0,2303.0 4925.0,2272.0 5019.0,2253.0 C 5161.0,2225.0 5239.0,2152.0 5240.0,2047.0 C 5240.0,1918.0 5122.0,1810.0 4993.0,1823.0 C 4932.0,1829.0 4868.0,1862.0 4849.0,1896.0 C 4821.0,1948.0 4842.0,2020.0 4892.0,2046.0 C 4929.0,2065.0 4950.0,2064.0 4977.0,2038.0 L 5000.0,2017.0 L 5000.0,2038.0 C 5000.0,2116.0 4854.0,2137.0 4784.0,2069.0 C 4709.0,1997.0 4699.0,1879.0 4761.0,1814.0 C 4808.0,1765.0 4857.0,1742.0 4937.0,1730.0 C 5066.0,1712.0 5172.0,1742.0 5248.0,1818.0 C 5329.0,1899.0 5361.0,2034.0 5322.0,2123.0 C 5310.0,2149.0 5305.0,2170.0 5309.0,2170.0 C 5325.0,2170.0 5393.0,2095.0 5407.0,2062.0 C 5432.0,2002.0 5426.0,1916.0 5390.0,1844.0 C 5345.0,1751.0 5272.0,1691.0 5180.0,1669.0 C 5154.0,1663.0 5162.0,1662.0 5216.0,1664.0 C 5347.0,1670.0 5464.0,1757.0 5505.0,1881.0 C 5548.0,2009.0 5477.0,2155.0 5339.0,2226.0 L 5287.0,2252.0 L 5325.0,2273.0 C 5346.0,2285.0 5372.0,2307.0 5383.0,2322.0 C 5408.0,2356.0 5417.0,2444.0 5400.0,2495.0 C 5384.0,2543.0 5329.0,2604.0 5272.0,2637.0 C 5211.0,2673.0 5088.0,2680.0 5018.0,2651.0 M 5223.0,2566.0 C 5335.0,2518.0 5351.0,2379.0 5251.0,2313.0 C 5221.0,2293.0 5204.0,2290.0 5119.0,2290.0 C 5065.0,2290.0 5010.0,2295.0 4996.0,2302.0 C 4923.0,2335.0 4913.0,2451.0 4978.0,2524.0 C 5023.0,2574.0 5151.0,2597.0 5223.0,2566.0" /><path fill="#C9A962" d="M 2522.0,2858.0 C 2506.0,2842.0 2507.0,2815.0 2524.0,2801.0 C 2534.0,2793.0 2780.0,2791.0 3435.0,2792.0 C 4278.0,2795.0 4334.0,2796.0 4344.0,2813.0 C 4352.0,2825.0 4352.0,2835.0 4344.0,2848.0 C 4334.0,2864.0 4278.0,2865.0 3433.0,2868.0 C 2742.0,2870.0 2531.0,2867.0 2522.0,2858.0" /><path fill="#C9A962" d="M 5892.0,2858.0 C 5876.0,2842.0 5877.0,2825.0 5896.0,2806.0 C 5910.0,2792.0 6006.0,2790.0 6809.0,2790.0 C 7781.0,2790.0 7736.0,2787.0 7728.0,2842.0 L 7725.0,2865.0 L 6815.0,2868.0 C 6115.0,2870.0 5901.0,2867.0 5892.0,2858.0" /><path fill="#C9A962" d="M 3130.0,2612.0 C 3130.0,2598.0 3163.0,2572.0 3203.0,2555.0 C 3234.0,2542.0 3308.0,2540.0 3699.0,2540.0 C 4159.0,2540.0 4159.0,2540.0 4174.0,2562.0 C 4185.0,2577.0 4186.0,2588.0 4179.0,2602.0 C 4170.0,2619.0 4145.0,2620.0 3650.0,2620.0 C 3364.0,2620.0 3130.0,2616.0 3130.0,2612.0" /><path fill="#C9A962" d="M 6051.0,2606.0 C 6037.0,2589.0 6046.0,2563.0 6071.0,2550.0 C 6082.0,2544.0 6267.0,2540.0 6542.0,2540.0 C 6898.0,2541.0 7003.0,2544.0 7033.0,2554.0 C 7072.0,2568.0 7110.0,2596.0 7110.0,2612.0 C 7110.0,2616.0 6874.0,2620.0 6586.0,2620.0 C 6154.0,2620.0 6060.0,2618.0 6051.0,2606.0" /><path fill="#C9A962" d="M 2861.0,2589.0 C 2857.0,2499.0 2796.0,2395.0 2731.0,2365.0 L 2691.0,2347.0 L 2731.0,2327.0 C 2753.0,2316.0 2782.0,2293.0 2796.0,2274.0 C 2826.0,2235.0 2860.0,2151.0 2860.0,2112.0 C 2861.0,2095.0 2870.0,2112.0 2885.0,2160.0 C 2913.0,2247.0 2952.0,2299.0 3012.0,2329.0 C 3042.0,2343.0 3048.0,2350.0 3034.0,2350.0 C 3022.0,2350.0 2994.0,2364.0 2971.0,2381.0 C 2923.0,2415.0 2884.0,2489.0 2870.0,2568.0 C 2866.0,2594.0 2862.0,2603.0 2861.0,2589.0" /><path fill="#C9A962" d="M 7357.0,2570.0 C 7341.0,2471.0 7270.0,2370.0 7204.0,2354.0 L 7178.0,2347.0 L 7206.0,2335.0 C 7281.0,2304.0 7330.0,2236.0 7354.0,2132.0 L 7367.0,2075.0 L 7373.0,2123.0 C 7385.0,2208.0 7442.0,2294.0 7507.0,2325.0 L 7544.0,2343.0 L 7508.0,2361.0 C 7443.0,2394.0 7388.0,2480.0 7371.0,2573.0 L 7364.0,2615.0 L 7357.0,2570.0" /><path fill="#C9A962" d="M 3705.0,2416.0 C 3601.0,2383.0 3518.0,2312.0 3478.0,2222.0 C 3449.0,2155.0 3449.0,2052.0 3480.0,1982.0 C 3558.0,1802.0 3803.0,1752.0 3939.0,1888.0 C 4014.0,1963.0 4026.0,2047.0 3967.0,2096.0 C 3925.0,2131.0 3862.0,2127.0 3840.0,2087.0 C 3826.0,2060.0 3826.0,2058.0 3853.0,2034.0 C 3875.0,2015.0 3881.0,2004.0 3876.0,1986.0 C 3868.0,1955.0 3798.0,1920.0 3744.0,1920.0 C 3688.0,1920.0 3621.0,1957.0 3598.0,2000.0 C 3574.0,2046.0 3574.0,2142.0 3599.0,2196.0 C 3672.0,2357.0 3937.0,2373.0 4097.0,2227.0 C 4160.0,2169.0 4206.0,2106.0 4231.0,2041.0 C 4258.0,1972.0 4253.0,2024.0 4226.0,2103.0 C 4167.0,2268.0 4056.0,2373.0 3893.0,2415.0 C 3825.0,2433.0 3759.0,2433.0 3705.0,2416.0" /><path fill="#C9A962" d="M 6377.0,2420.0 C 6308.0,2408.0 6208.0,2358.0 6156.0,2310.0 C 6099.0,2257.0 6040.0,2164.0 6012.0,2082.0 C 5983.0,1998.0 5985.0,1970.0 6014.0,2043.0 C 6044.0,2115.0 6109.0,2202.0 6163.0,2241.0 C 6279.0,2327.0 6444.0,2350.0 6549.0,2296.0 C 6583.0,2278.0 6638.0,2217.0 6651.0,2183.0 C 6665.0,2146.0 6662.0,2053.0 6646.0,2022.0 C 6597.0,1928.0 6482.0,1896.0 6392.0,1950.0 C 6354.0,1974.0 6352.0,1992.0 6385.0,2014.0 C 6413.0,2032.0 6420.0,2086.0 6398.0,2108.0 C 6378.0,2128.0 6324.0,2122.0 6292.0,2095.0 C 6220.0,2034.0 6261.0,1905.0 6373.0,1844.0 C 6443.0,1806.0 6552.0,1803.0 6620.0,1839.0 C 6724.0,1893.0 6771.0,1965.0 6778.0,2081.0 C 6784.0,2183.0 6764.0,2243.0 6700.0,2314.0 C 6620.0,2401.0 6498.0,2441.0 6377.0,2420.0" /></g>
</svg>