<?xml version="1.0" standalone="no"?>
<!DOCTYPE svg PUBLIC "-//W3C//DTD SVG 20010904//EN"
 "http://www.w3.org/TR/2001/REC-SVG-20010904/DTD/svg10.dtd">
<svg version="1.0" xmlns="http://www.w3.org/2000/svg"
 width="1024.000000pt" height="1024.000000pt" viewBox="0 0 1024.000000 1024.000000"
 preserveAspectRatio="xMidYMid meet">
<metadata>
Created by potrace 1.16, written by Peter Selinger 2001-2019
</metadata>

<g transform="translate(0.000000,1024.000000) scale(0.100000,-0.100000)"
fill="#C9A962" stroke="none">
<path fill="#C9A962" d="M4915 9415 c-87 -15 -259 -72 -339 -112 -213 -106 -427 -317 -531
-523 -161 -319 -164 -744 -9 -1053 48 -96 123 -202 186 -264 46 -45 59 -52
101 -55 26 -2 47 -2 47 -1 0 1 -19 23 -42 48 -241 264 -353 607 -307 942 33
243 118 426 277 595 255 271 644 398 1007 328 259 -50 448 -150 614 -326 125
-131 207 -278 258 -460 26 -93 27 -112 27 -294 0 -169 -2 -206 -21 -275 -27
-97 -71 -207 -115 -283 -46 -81 -164 -218 -246 -287 -40 -32 -72 -60 -72 -62
0 -1 6 -1 13 1 6 2 35 10 62 17 28 6 66 20 85 30 40 20 172 153 217 219 81
120 152 304 174 449 19 133 7 384 -24 501 -57 213 -140 361 -284 511 -153 158
-302 254 -489 312 -178 56 -407 72 -589 42z"/>
<path fill="#C9A962" d="M4920 9201 c-224 -41 -439 -176 -580 -363 -73 -96 -153 -256 -182
-363 -32 -116 -31 -335 1 -455 41 -153 125 -289 256 -410 33 -30 31 -26 -13
27 -189 231 -257 559 -178 850 92 334 384 600 726 660 406 72 855 -172 1010
-548 99 -240 85 -528 -37 -774 -70 -141 -198 -284 -309 -347 -59 -33 -70 -44
-26 -25 170 72 322 218 411 394 62 125 76 197 76 403 -1 220 -9 260 -92 430
-52 108 -62 121 -167 225 -153 151 -279 224 -474 277 -85 23 -338 34 -422 19z"/>
<path fill="#C9A962" d="M5082 9009 c-42 -12 -86 -73 -102 -141 -12 -49 -9 -196 6 -303 5 -39
4 -41 -40 -68 -165 -103 -252 -247 -244 -405 6 -137 84 -253 206 -310 50 -23
70 -27 159 -27 118 0 110 9 120 -122 8 -113 -10 -163 -72 -193 -47 -23 -93
-21 -115 5 -8 10 -5 19 15 39 56 56 18 156 -59 156 -26 0 -41 -8 -64 -34 -37
-42 -47 -82 -33 -134 15 -53 46 -91 95 -113 99 -45 232 0 284 96 19 35 21 200
4 273 l-10 43 44 20 c56 27 117 88 145 145 18 38 21 58 17 122 -3 46 -12 91
-22 112 -22 43 -82 107 -118 126 -31 16 -124 19 -162 4 -28 -10 -25 -16 -45
78 l-9 42 72 59 c152 124 187 184 187 313 0 157 -119 257 -259 217z m123 -105
c73 -79 44 -196 -70 -284 -30 -23 -59 -40 -63 -36 -10 10 -15 198 -8 251 14
87 90 124 141 69z m-168 -576 c9 -48 9 -54 -9 -66 -113 -79 -129 -227 -34
-308 45 -39 58 -38 27 1 -11 15 -23 43 -27 61 -12 63 52 183 76 144 11 -18 90
-343 84 -349 -2 -2 -26 -6 -52 -9 -72 -6 -150 20 -206 69 -68 60 -91 108 -90
194 1 90 29 156 92 217 49 46 113 98 123 98 3 0 10 -24 16 -52z m217 -169 c76
-52 105 -143 72 -222 -13 -31 -78 -97 -96 -97 -4 0 -22 57 -39 128 -17 70 -37
149 -45 176 l-15 48 45 -5 c24 -2 60 -15 78 -28z"/>
<path fill="#C9A962" d="M5529 8780 c143 -119 251 -349 251 -536 0 -138 -46 -303 -111 -397
l-23 -32 23 19 c35 32 118 207 137 292 29 131 7 289 -58 422 -35 70 -128 176
-211 240 -75 58 -81 53 -8 -8z"/>
<path fill="#C9A962" d="M3353 8758 c-16 -84 -57 -147 -117 -179 -46 -25 -47 -27 -23 -33 63
-16 121 -96 142 -196 l12 -55 12 55 c20 94 63 153 137 189 l39 19 -30 12 c-64
24 -126 106 -140 185 -12 67 -20 67 -32 3z"/>
<path fill="#C9A962" d="M6862 8769 c-20 -87 -64 -154 -125 -189 -36 -20 -45 -30 -31 -30 62
0 147 -110 161 -207 l6 -47 17 60 c29 105 74 164 144 188 l37 13 -41 18 c-45
20 -105 81 -122 123 -6 15 -16 49 -22 76 l-12 49 -12 -54z"/>
<path fill="#C9A962" d="M4541 8710 c-90 -113 -143 -242 -162 -389 -16 -123 5 -235 65 -356
24 -49 59 -103 77 -120 l32 -30 -31 40 c-108 138 -138 380 -78 618 28 108 41
137 103 225 53 74 49 82 -6 12z"/>
<path fill="#C9A962" d="M5408 8580 c85 -67 132 -143 152 -248 12 -59 9 -170 -4 -217 -4 -11
1 -4 10 15 24 49 24 188 0 261 -22 69 -76 142 -141 191 -66 50 -81 49 -17 -2z"/>
<path fill="#C9A962" d="M3009 8166 c-2 -2 -3 -254 -1 -559 l2 -555 59 16 58 15 6 255 c4 141
7 385 7 544 l0 288 -63 0 c-35 0 -66 -2 -68 -4z"/>
<path fill="#C9A962" d="M6528 7812 l3 -337 64 9 65 10 0 328 0 328 -67 0 -68 0 3 -338z"/>
<path fill="#C9A962" d="M3580 7666 l0 -463 59 16 c33 9 62 18 64 21 2 3 7 204 10 448 l5 442
-69 0 -69 0 0 -464z"/>
<path fill="#C9A962" d="M7103 7818 c4 -172 7 -404 7 -514 l0 -202 48 -11 c26 -7 55 -14 65
-17 17 -5 18 19 13 523 l-6 528 -66 3 -67 3 6 -313z"/>
<path fill="#C9A962" d="M2452 8008 c-15 -15 -16 -60 0 -76 18 -18 53 -14 73 8 27 30 10 74
-30 78 -17 2 -36 -3 -43 -10z"/>
<path fill="#C9A962" d="M7716 8004 c-21 -21 -20 -47 2 -67 27 -24 59 -21 78 8 15 23 15 27 0
50 -19 29 -56 33 -80 9z"/>
<path fill="#C9A962" d="M3290 7500 c0 -262 3 -370 11 -370 6 0 35 7 65 16 l54 15 0 355 0
354 -65 0 -65 0 0 -370z"/>
<path fill="#C9A962" d="M6820 7670 l0 -199 30 -16 c16 -8 46 -29 65 -46 l35 -31 0 246 0 246
-65 0 -65 0 0 -200z"/>
<path fill="#C9A962" d="M2732 7405 c-2 -234 0 -425 3 -425 4 0 31 7 61 16 l54 15 0 410 0
409 -57 0 -58 0 -3 -425z"/>
<path fill="#C9A962" d="M7390 7436 l0 -394 60 -15 60 -15 0 409 0 409 -60 0 -60 0 0 -394z"/>
<path fill="#C9A962" d="M2450 7460 c0 -101 2 -110 21 -120 11 -7 38 -28 60 -47 l39 -35 0
156 0 156 -60 0 -60 0 0 -110z"/>
<path fill="#C9A962" d="M7680 7419 c0 -152 0 -152 19 -127 11 13 38 33 60 43 l41 18 0 109 0
108 -60 0 -60 0 0 -151z"/>
<path fill="#C9A962" d="M6260 7415 c0 -74 2 -135 4 -135 3 0 19 25 36 55 17 30 42 63 56 74
21 16 24 27 24 80 l0 61 -60 0 -60 0 0 -135z"/>
<path fill="#C9A962" d="M3877 7534 c-4 -4 -7 -61 -7 -126 0 -131 -4 -125 75 -105 l50 13 0
110 0 109 -55 3 c-31 2 -59 0 -63 -4z"/>
<path fill="#C9A962" d="M6575 7356 c-49 -7 -100 -18 -111 -24 -34 -18 -72 -132 -45 -132 24
0 43 15 56 46 10 25 22 35 52 43 70 20 139 7 172 -32 16 -21 53 -21 106 -2 36
13 41 13 53 -2 16 -22 15 -76 -2 -116 -16 -40 -69 -86 -107 -94 -15 -3 -30
-11 -33 -19 -4 -10 1 -11 22 -3 98 37 143 91 144 174 1 34 -6 54 -33 92 -60
83 -98 93 -274 69z"/>
<path fill="#C9A962" d="M1872 7310 c-93 -25 -157 -60 -232 -127 -245 -222 -309 -626 -148
-936 72 -139 189 -234 333 -272 202 -52 443 50 574 244 105 155 145 280 146
461 0 149 -12 203 -72 329 -77 161 -205 266 -374 306 -84 19 -138 18 -227 -5z
m281 -107 c178 -85 287 -283 287 -522 -1 -205 -66 -367 -201 -500 -99 -98
-199 -136 -335 -129 -251 13 -427 240 -428 553 -2 292 148 542 369 615 45 15
82 19 150 17 78 -2 99 -6 158 -34z"/>
<path fill="#C9A962" d="M1890 7124 c-76 -21 -129 -54 -190 -121 -93 -102 -140 -233 -140
-391 0 -113 19 -193 67 -285 69 -131 174 -192 318 -185 105 6 173 38 247 116
45 47 130 182 115 182 -2 0 -21 -27 -41 -59 -99 -160 -267 -228 -420 -171
-181 68 -284 311 -231 539 33 138 131 267 242 319 83 38 196 38 268 0 107 -56
192 -181 219 -324 23 -121 24 -122 25 -89 2 54 -19 158 -46 235 -22 63 -37 85
-92 141 -102 102 -203 130 -341 93z"/>
<path fill="#C9A962" d="M1950 6778 c-91 -63 -92 -195 -1 -255 124 -83 266 71 190 207 -40 70
-124 92 -189 48z m194 -165 c-4 -18 -12 -37 -18 -42 -9 -8 -11 4 -8 52 2 34 6
69 9 77 9 24 23 -50 17 -87z"/>
<path fill="#C9A962" d="M1703 6723 c-31 -74 -26 -258 8 -279 5 -3 4 7 -2 23 -16 40 -13 189
4 246 18 56 12 62 -10 10z"/>
<path fill="#C9A962" d="M8140 7314 c-163 -35 -309 -143 -376 -279 -57 -117 -69 -180 -68
-355 0 -151 1 -158 36 -257 45 -132 87 -200 175 -289 150 -151 346 -208 525
-151 341 109 501 530 352 925 -77 206 -252 367 -441 407 -83 18 -119 18 -203
-1z m241 -94 c132 -40 235 -133 305 -275 61 -125 78 -197 78 -330 -1 -131 -21
-220 -72 -319 -48 -92 -114 -156 -209 -203 -75 -37 -80 -38 -187 -38 -104 0
-115 2 -179 32 -293 139 -417 580 -255 902 58 115 156 204 261 236 64 21 184
18 258 -5z"/>
<path fill="#C9A962" d="M8143 7126 c-89 -29 -170 -102 -218 -196 -30 -60 -56 -179 -54 -253
2 -51 2 -51 10 18 32 249 192 421 373 402 93 -10 165 -44 231 -111 101 -103
145 -211 145 -361 0 -201 -101 -371 -251 -420 -68 -23 -181 -16 -244 15 -63
31 -139 102 -181 171 -59 95 -55 69 4 -34 44 -76 121 -150 190 -184 50 -25 68
-28 152 -28 79 0 103 4 142 23 81 40 135 96 178 186 63 132 77 268 40 410 -54
212 -215 361 -401 372 -47 2 -89 -1 -116 -10z"/>
<path fill="#C9A962" d="M8129 6773 c-35 -30 -59 -78 -59 -120 1 -45 36 -111 72 -133 96 -58
208 16 208 137 0 113 -138 185 -221 116z m211 -115 c0 -16 -4 -28 -10 -28 -5
0 -10 19 -10 43 0 31 3 38 10 27 5 -8 10 -27 10 -42z m-190 -50 c0 -38 -3 -49
-10 -38 -13 20 -13 90 0 90 6 0 10 -24 10 -52z"/>
<path fill="#C9A962" d="M8526 6700 c15 -53 14 -168 0 -230 -5 -21 -4 -20 8 5 33 68 28 211
-9 261 -11 15 -11 9 1 -36z"/>
<path fill="#C9A962" d="M6506 7259 c-35 -27 -33 -40 5 -27 43 15 112 -13 139 -56 22 -36 26
-95 9 -129 -7 -15 -1 -12 20 11 25 26 31 41 31 76 0 105 -128 184 -204 125z"/>
<path fill="#C9A962" d="M4520 7229 c-259 -18 -484 -57 -657 -115 -168 -56 -243 -107 -289
-197 -54 -103 24 -231 194 -320 112 -59 233 -91 532 -142 228 -40 358 -48 660
-42 375 7 590 37 819 112 251 84 403 217 373 326 -8 29 -10 31 -16 14 -33 -95
-100 -169 -215 -233 -347 -194 -1139 -229 -1846 -82 -222 46 -410 146 -462
244 -20 38 -12 105 16 144 39 55 222 139 406 187 251 65 526 90 904 82 314 -7
542 -36 771 -99 108 -29 275 -100 258 -109 -11 -6 -236 -67 -311 -83 -24 -6
-27 -9 -17 -21 7 -8 23 -15 36 -15 42 0 338 81 424 116 167 68 410 153 484
169 27 6 28 7 13 22 -9 9 -31 16 -49 16 -27 0 -258 -78 -469 -159 l-45 -17
-130 51 c-322 127 -872 187 -1384 151z"/>
<path fill="#C9A962" d="M3205 6930 c-209 -65 -391 -123 -405 -128 l-26 -10 11 -88 10 -87
130 -43 c72 -23 364 -119 650 -212 286 -94 651 -212 810 -262 160 -50 404
-128 543 -173 l254 -81 56 16 c58 16 813 308 1067 413 77 31 172 69 210 82 39
14 233 92 431 174 199 82 388 158 420 170 72 26 84 35 84 63 0 19 -18 26 -167
69 -93 26 -211 58 -263 72 -52 13 -105 27 -117 31 -22 6 -23 4 -23 -60 0 -57
-3 -67 -23 -80 -46 -31 -115 -48 -212 -53 -94 -5 -167 5 -239 33 -16 6 -18 4
-11 -12 5 -10 10 -38 13 -61 14 -144 -245 -343 -569 -437 -256 -74 -876 -116
-1219 -82 -194 18 -477 64 -622 101 -173 44 -425 152 -531 227 -55 40 -112
104 -127 143 -17 45 -11 116 14 170 26 56 94 124 179 178 31 20 57 39 57 42 0
3 -1 5 -2 4 -2 -1 -174 -54 -383 -119z m1 -154 c8 -11 14 -37 14 -58 0 -48
-22 -63 -121 -84 -82 -18 -156 -14 -213 10 -37 15 -38 18 -33 53 8 47 11 49
93 79 57 20 84 24 157 22 74 -3 91 -6 103 -22z m4032 -37 c3 -18 -83 -59 -124
-59 -29 0 -53 37 -30 46 92 35 149 40 154 13z m-263 -63 c18 -13 17 -14 -6
-28 -13 -9 -125 -53 -248 -98 -192 -70 -228 -80 -248 -71 -40 18 -24 44 42 68
33 12 132 48 220 81 167 63 209 71 240 48z m-1467 -607 c-18 -9 -59 -25 -90
-35 -46 -14 -62 -15 -83 -6 -14 6 -25 16 -25 22 0 13 51 36 123 54 46 12 55
12 80 -2 l27 -16 -32 -17z m-288 -23 c34 -10 47 -20 55 -41 8 -23 6 -30 -13
-45 -44 -36 -198 -38 -249 -4 -29 18 -32 78 -5 93 25 15 159 13 212 -3z"/>
<path fill="#C9A962" d="M3010 6754 c-58 -10 -110 -27 -110 -36 0 -14 47 -28 93 -28 82 0 194
36 174 56 -8 8 -124 14 -157 8z"/>
<path fill="#C9A962" d="M5038 6034 c-31 -30 36 -57 129 -52 105 6 65 40 -62 54 -33 3 -63 2
-67 -2z"/>
<path fill="#C9A962" d="M6505 7035 c-5 -2 -22 -6 -37 -9 -35 -8 -35 -22 -2 -57 22 -23 31
-26 67 -22 55 7 67 18 67 59 0 33 -1 34 -42 33 -24 0 -47 -2 -53 -4z"/>
<path fill="#C9A962" d="M2595 6963 c16 -43 36 -243 30 -313 -14 -177 -62 -336 -136 -450 -46
-72 -122 -155 -164 -181 -17 -11 -23 -19 -14 -19 8 0 35 13 60 28 215 138 345
487 285 768 -15 71 -53 184 -63 184 -3 0 -2 -8 2 -17z"/>
<path fill="#C9A962" d="M4653 6966 c-103 -20 -167 -43 -193 -70 -73 -79 98 -140 395 -140
205 -1 245 6 245 38 0 29 45 72 94 89 l39 13 -59 22 c-143 53 -379 75 -521 48z
m245 -22 c17 -12 22 -25 22 -58 0 -47 -9 -56 -59 -56 -53 0 -91 20 -91 47 0
27 17 64 34 75 19 13 71 9 94 -8z"/>
<path fill="#C9A962" d="M4827 6923 c-15 -14 -7 -53 11 -53 17 0 45 44 34 55 -7 7 -37 6 -45
-2z"/>
<path fill="#C9A962" d="M7602 6897 c-42 -115 -56 -226 -42 -324 32 -235 159 -460 304 -544
70 -39 89 -37 30 4 -135 93 -243 303 -274 535 -14 100 -9 261 10 350 18 82 6
72 -28 -21z"/>
<path fill="#C9A962" d="M5354 6881 c-209 -64 -212 -66 -143 -74 46 -6 78 -1 180 27 68 19
137 39 152 45 40 16 45 14 62 -19 22 -43 19 -76 -11 -99 -15 -12 -21 -21 -15
-21 7 0 23 11 37 25 21 21 24 31 19 58 -4 18 -12 40 -17 50 -12 24 -68 57 -93
56 -11 -1 -88 -22 -171 -48z"/>
<path fill="#C9A962" d="M5925 6870 c-60 -16 -141 -35 -179 -41 -56 -10 -65 -15 -52 -24 13
-10 44 -5 154 26 144 40 227 68 202 67 -8 0 -64 -13 -125 -28z"/>
<path fill="#C9A962" d="M6228 6863 c66 -85 73 -137 32 -221 -17 -33 -48 -76 -69 -95 -133
-120 -384 -209 -711 -251 -496 -64 -1018 -37 -1447 74 -237 62 -308 88 -404
151 -151 99 -193 183 -152 302 l21 58 -30 -28 c-62 -58 -74 -124 -37 -199 31
-65 90 -111 225 -176 424 -202 995 -284 1631 -233 373 30 569 76 773 181 47
24 108 62 135 85 57 47 134 162 135 199 0 37 -33 102 -75 149 -47 51 -67 54
-27 4z"/>
<path fill="#C9A962" d="M6414 6878 c-8 -28 13 -43 78 -57 145 -32 370 11 313 59 -12 10 -24
10 -53 2 -82 -24 -145 -24 -236 -3 -48 12 -89 21 -91 21 -2 0 -7 -10 -11 -22z"/>
<path fill="#C9A962" d="M4186 6842 c39 -35 119 -84 162 -101 62 -25 68 -20 12 9 -22 11 -68
38 -101 60 -55 35 -100 55 -73 32z"/>
<path fill="#C9A962" d="M4075 6797 c10 -25 102 -70 194 -93 141 -36 140 -29 -4 25 -71 26
-145 55 -162 64 -23 12 -31 13 -28 4z"/>
<path fill="#C9A962" d="M3925 6775 c54 -47 189 -105 291 -126 53 -11 98 -18 100 -16 2 2 -69
30 -158 62 -90 32 -185 69 -213 82 l-50 24 30 -26z"/>
<path fill="#C9A962" d="M5153 6784 c-2 -7 -3 -25 -1 -40 2 -24 9 -29 43 -36 55 -12 63 -6 56
39 -6 36 -9 38 -50 44 -30 4 -44 2 -48 -7z"/>
<path fill="#C9A962" d="M3501 6770 c-1 -75 100 -186 222 -244 135 -63 415 -136 687 -177 127
-20 187 -23 480 -23 354 -1 443 5 688 50 235 43 383 94 506 174 77 50 120 101
131 155 6 25 1 21 -23 -21 -52 -87 -152 -156 -309 -213 -269 -98 -744 -154
-1119 -132 -260 16 -631 77 -851 141 -205 59 -351 158 -392 264 -15 37 -20 44
-20 26z"/>
<path fill="#C9A962" d="M3780 6760 c15 -27 133 -94 210 -119 92 -29 231 -51 314 -50 l71 2
-95 13 c-141 21 -418 111 -474 155 -31 24 -39 24 -26 -1z"/>
<path fill="#C9A962" d="M5390 6688 c-43 -15 -74 -19 -138 -16 -45 1 -82 2 -82 0 0 -7 26 -48
35 -54 6 -4 29 -8 52 -8 23 0 44 -5 47 -12 5 -10 7 -10 12 0 3 6 12 12 20 12
31 0 95 33 90 47 -3 7 3 22 14 33 24 24 20 24 -50 -2z m-3 -43 c-22 -16 -95
-30 -105 -20 -8 8 19 25 38 23 8 0 22 2 30 5 48 18 67 14 37 -8z m-133 -1 c27
-10 18 -25 -11 -18 -37 9 -53 24 -26 24 12 0 28 -3 37 -6z"/>
<path fill="#C9A962" d="M7285 6593 c-77 -30 -286 -114 -465 -185 -179 -71 -404 -160 -500
-197 -229 -88 -737 -288 -920 -363 -80 -32 -163 -61 -186 -65 -34 -4 -103 15
-425 120 -211 69 -492 160 -624 202 -132 42 -388 126 -570 185 -181 60 -359
117 -395 128 -36 11 -143 46 -238 77 -96 31 -175 55 -177 53 -2 -1 -5 -21 -6
-42 l-4 -40 490 -162 c270 -89 600 -197 735 -239 135 -42 448 -143 695 -223
359 -117 461 -147 505 -147 48 0 121 26 585 212 292 116 674 268 850 338 176
69 429 169 563 222 l242 97 0 43 c0 24 -3 43 -7 42 -5 0 -71 -25 -148 -56z"/>
<path fill="#C9A962" d="M2840 6210 c0 -5 -12 -10 -27 -10 -16 0 -23 -4 -17 -9 7 -8 331 -121
539 -189 33 -11 251 -87 485 -170 234 -83 463 -160 510 -171 47 -11 99 -25
115 -31 17 -6 26 -7 20 -2 -20 19 -477 195 -905 347 -206 73 -708 245 -717
245 -2 0 -3 -4 -3 -10z"/>
<path fill="#C9A962" d="M6940 6121 c-348 -123 -1214 -488 -1164 -490 6 -1 89 26 185 58 174
59 494 189 729 296 69 31 181 81 249 111 204 90 204 97 1 25z"/>
<path fill="#C9A962" d="M7172 6026 c-129 -52 -237 -97 -240 -100 -12 -12 237 -5 302 9 37 8
99 29 137 46 l69 32 0 53 c0 45 -3 54 -17 54 -10 0 -123 -43 -251 -94z"/>
<path fill="#C9A962" d="M2736 6084 c-9 -23 -7 -112 2 -118 4 -2 41 -13 82 -24 70 -18 82 -19
185 -6 144 19 149 21 95 45 -43 20 -336 119 -351 119 -4 0 -10 -7 -13 -16z"/>
<path fill="#C9A962" d="M7340 5865 c-41 -13 -126 -28 -187 -35 -62 -7 -110 -16 -108 -21 3
-4 39 -15 81 -24 126 -29 247 2 287 73 10 17 15 31 10 31 -4 -1 -42 -12 -83
-24z"/>
<path fill="#C9A962" d="M2802 5830 c37 -29 80 -40 157 -40 75 0 134 16 158 42 16 18 15 19
-68 11 -108 -10 -173 -10 -229 1 l-45 8 27 -22z"/>
<path fill="#C9A962" d="M7603 5783 c9 -44 -13 -112 -48 -149 l-32 -34 -454 -1 c-250 -1 -503
-4 -564 -8 l-110 -6 0 -30 0 -30 950 0 950 0 3 24 c2 13 -1 28 -6 33 -6 6
-122 12 -284 15 l-273 4 -34 28 c-41 32 -71 86 -78 141 -3 22 -10 40 -15 40
-6 0 -8 -12 -5 -27z"/>
<path fill="#C9A962" d="M4851 5666 c2 -3 67 -30 144 -61 167 -68 198 -70 318 -12 42 20 81
37 86 37 6 0 12 4 15 9 3 5 -33 -2 -81 -15 -119 -33 -182 -31 -342 11 -139 36
-147 38 -140 31z"/>
<path fill="#C9A962" d="M1595 5630 c-37 -41 16 -106 66 -80 45 25 26 100 -26 100 -12 0 -30
-9 -40 -20z"/>
<path fill="#C9A962" d="M8587 5638 c-27 -21 -25 -58 4 -80 21 -16 31 -18 47 -9 29 16 37 47
18 76 -18 27 -43 32 -69 13z"/>
<path fill="#C9A962" d="M2165 5590 c-211 -5 -230 -6 -233 -23 -10 -49 -46 -47 963 -47 848 0
944 2 956 16 9 11 10 20 2 32 -9 16 -73 17 -734 22 -398 3 -827 3 -954 0z"/>
<path fill="#C9A962" d="M5000 5484 c162 -61 170 -62 250 -35 39 13 68 26 66 28 -2 2 -33 -4
-70 -14 l-66 -17 -112 33 c-155 46 -181 48 -68 5z"/>
<path fill="#C9A962" d="M4575 5247 c-179 -47 -287 -208 -255 -379 23 -118 90 -204 227 -287
256 -158 283 -182 283 -261 0 -84 -50 -127 -159 -137 -98 -9 -206 31 -306 112
l-56 46 7 -138 c5 -110 10 -141 23 -151 27 -22 141 -53 235 -64 219 -26 392
45 463 190 25 52 28 67 28 167 0 106 -1 112 -34 173 -44 81 -112 141 -249 222
-174 103 -222 150 -222 217 0 64 60 103 158 103 92 0 144 -20 251 -97 l23 -17
-7 84 c-4 47 -10 105 -14 130 l-6 45 -70 23 c-87 29 -245 38 -320 19z"/>
<path fill="#C9A962" d="M7230 5246 c-301 -64 -490 -288 -507 -602 -10 -186 50 -355 170 -477
101 -102 212 -155 371 -177 148 -21 361 6 502 62 l59 23 5 235 c6 261 10 282
73 320 l32 20 -260 0 -260 -1 55 -22 c36 -15 62 -33 77 -56 22 -32 23 -44 23
-201 0 -193 11 -175 -115 -186 -182 -16 -346 71 -417 222 -82 174 -53 394 67
523 81 86 185 131 305 131 112 0 254 -54 324 -124 l39 -39 -6 54 c-4 30 -7 93
-7 140 l0 87 -47 20 c-100 42 -157 54 -288 58 -86 2 -152 -1 -195 -10z"/>
<path fill="#C9A962" d="M1354 5204 c14 -15 30 -43 36 -63 6 -22 10 -227 10 -524 0 -524 0
-529 -52 -584 l-21 -23 196 0 196 0 -24 24 c-36 36 -45 87 -45 257 l0 156 116
1 c269 3 409 103 446 320 31 182 -46 342 -197 413 -80 38 -185 49 -464 49
l-224 0 27 -26z m516 -183 c69 -35 108 -134 90 -231 -24 -124 -88 -170 -242
-170 l-68 0 0 209 0 210 33 4 c55 7 151 -4 187 -22z"/>
<path fill="#C9A962" d="M2332 5203 c14 -16 30 -43 37 -62 14 -42 15 -976 2 -1035 -5 -21 -22
-51 -37 -67 l-28 -29 198 0 199 0 -26 25 c-37 38 -47 96 -47 285 l0 171 41 -3
41 -3 83 -135 c45 -74 110 -181 144 -237 l63 -103 160 0 160 0 -31 25 c-25 22
-299 442 -316 486 -4 12 3 20 27 30 53 21 128 99 156 159 23 48 26 69 26 160
1 95 -2 110 -27 162 -51 103 -151 168 -292 189 -33 5 -172 9 -309 9 l-250 0
26 -27z m508 -185 c65 -33 93 -90 87 -180 -8 -128 -66 -179 -209 -186 l-88 -4
0 196 0 196 83 0 c66 0 92 -5 127 -22z"/>
<path fill="#C9A962" d="M3438 5207 c13 -13 27 -39 32 -58 14 -48 13 -992 -1 -1044 -6 -22
-23 -52 -37 -67 l-26 -28 371 0 370 0 22 113 c12 61 25 122 28 134 5 21 1 20
-64 -13 l-70 -36 -166 -5 -167 -6 0 177 0 176 141 0 c135 0 173 -7 191 -34 4
-6 8 51 8 126 l0 138 -32 -20 c-29 -17 -51 -20 -170 -20 l-138 0 0 150 0 150
124 0 c144 0 216 -11 258 -41 l30 -22 -6 59 c-3 32 -8 89 -12 127 l-6 67 -351
0 -350 0 21 -23z"/>
<path fill="#C9A962" d="M5166 5188 c-3 -24 -8 -86 -12 -138 l-6 -95 24 21 c48 45 88 57 205
62 l113 5 0 -454 c0 -274 -4 -468 -10 -490 -6 -20 -22 -48 -36 -63 l-27 -26
196 0 196 0 -24 24 c-42 42 -45 77 -45 554 l0 452 98 0 c114 0 160 -11 203
-48 l32 -27 -6 64 c-4 35 -7 95 -7 132 l0 69 -444 0 -445 0 -5 -42z"/>
<path fill="#C9A962" d="M6190 5220 c0 -5 4 -10 10 -10 5 0 19 -18 30 -40 20 -40 21 -55 20
-552 0 -551 -1 -556 -54 -593 -18 -13 1 -15 178 -15 l198 0 -26 31 c-14 17
-29 43 -34 57 -4 15 -7 252 -7 527 l0 500 23 43 c12 23 27 42 32 42 6 0 10 5
10 10 0 6 -70 10 -190 10 -120 0 -190 -4 -190 -10z"/>
<path fill="#C9A962" d="M8077 5208 c49 -54 48 -44 51 -561 3 -538 0 -573 -54 -616 l-27 -21
380 0 379 0 26 133 c14 72 25 133 23 135 -2 2 -20 -7 -42 -21 -67 -42 -103
-49 -270 -54 l-163 -6 0 177 0 176 143 0 c124 0 146 -3 175 -20 l32 -20 0 135
0 135 -32 -20 c-29 -17 -51 -20 -175 -20 l-143 0 0 150 0 150 124 0 c143 0
216 -11 257 -41 l29 -21 -6 114 c-3 62 -7 119 -10 126 -3 9 -84 12 -360 12
l-357 0 20 -22z"/>
<path fill="#C9A962" d="M3603 3721 c-53 -25 -83 -71 -83 -129 0 -80 41 -126 160 -180 36 -16
71 -36 78 -45 20 -23 11 -50 -21 -65 -35 -17 -113 -1 -152 30 -15 11 -28 19
-29 17 -2 -2 -14 -24 -26 -48 l-22 -44 23 -19 c13 -10 46 -25 73 -33 96 -29
185 -15 244 40 35 32 37 36 37 99 0 58 -3 68 -30 97 -16 17 -66 49 -111 70
-79 37 -114 61 -114 80 0 5 9 18 20 29 27 27 103 27 149 -1 18 -11 34 -19 36
-17 1 2 12 25 23 51 l21 48 -37 17 c-58 25 -187 27 -239 3z"/>
<path fill="#C9A962" d="M4300 3728 c-19 -5 -53 -21 -75 -36 -140 -96 -148 -317 -17 -432 101
-90 273 -93 385 -7 47 35 88 117 94 186 16 175 -108 303 -291 300 -33 -1 -77
-5 -96 -11z m188 -115 c49 -36 66 -70 70 -136 6 -108 -53 -177 -152 -177 -71
0 -116 25 -143 80 -46 90 -16 195 67 238 53 27 117 25 158 -5z"/>
<path fill="#C9A962" d="M4932 3525 c3 -210 3 -212 30 -252 32 -49 78 -72 161 -80 114 -10
207 33 237 111 6 16 11 111 11 230 l0 201 -58 0 -58 0 -5 -196 c-4 -175 -7
-199 -24 -218 -25 -27 -78 -37 -117 -20 -51 21 -59 55 -59 258 l0 179 -61 0
-60 -1 3 -212z"/>
<path fill="#C9A962" d="M5630 3469 l0 -269 61 0 60 0 -3 170 c-2 94 -3 170 -2 170 1 0 52
-76 114 -170 l113 -170 53 0 54 0 0 270 0 269 -55 -1 -55 -2 0 -164 0 -165
-53 84 c-29 46 -78 121 -108 166 l-54 82 -62 0 -63 -1 0 -269z"/>
<path fill="#C9A962" d="M6339 3739 c0 -2 -2 -125 -5 -273 l-4 -268 143 4 c158 4 192 15 254
80 47 49 63 96 63 185 0 61 -5 89 -24 128 -48 103 -111 133 -296 142 -71 3
-130 4 -131 2z m263 -125 c63 -32 88 -155 49 -240 -22 -49 -74 -74 -151 -74
l-50 0 0 163 c0 90 2 166 5 169 9 9 120 -4 147 -18z"/>
<path fill="#C9A962" d="M1422 3658 c-7 -7 -12 -19 -12 -28 0 -40 -10 -40 926 -40 807 0 904
2 918 16 20 19 20 29 0 48 -14 14 -111 16 -918 16 -688 0 -905 -3 -914 -12z"/>
<path fill="#C9A962" d="M7046 3654 c-9 -8 -16 -19 -16 -24 0 -5 7 -16 16 -24 14 -14 108 -16
889 -16 854 0 875 0 885 19 13 25 13 27 -6 45 -14 14 -108 16 -884 16 -776 0
-870 -2 -884 -16z"/>
<path fill="#C9A962" d="M1768 3399 c-21 -12 -23 -40 -6 -57 9 -9 174 -12 680 -12 638 0 668
1 677 18 7 14 6 25 -5 40 l-15 22 -657 0 c-428 -1 -663 -4 -674 -11z"/>
<path fill="#C9A962" d="M7168 3399 c-21 -12 -23 -40 -6 -57 17 -17 1319 -17 1336 0 18 18 14
46 -7 58 -27 14 -1299 13 -1323 -1z"/>
<path fill="#C9A962" d="M2706 3120 c-459 -5 -500 -6 -510 -22 -8 -14 -7 -21 5 -33 13 -13 74
-15 454 -16 639 -1 593 -2 604 20 12 22 -4 47 -34 52 -11 2 -245 2 -519 -1z"/>
<path fill="#C9A962" d="M6989 3098 c-10 -18 -8 -24 11 -40 21 -17 54 -18 520 -18 477 0 498
1 514 19 14 15 15 24 6 40 -11 21 -14 21 -525 21 l-514 0 -12 -22z"/>
<path fill="#C9A962" d="M4960 2955 c-124 -26 -200 -61 -307 -141 -125 -93 -216 -223 -275
-394 -31 -90 -32 -103 -32 -235 0 -114 4 -156 22 -225 74 -275 267 -480 532
-562 65 -20 95 -23 230 -23 143 1 161 3 235 28 264 93 441 285 516 563 32 118
33 319 1 428 -41 141 -104 249 -207 352 -76 77 -105 98 -185 137 -52 26 -122
54 -155 63 -82 22 -291 27 -375 9z m290 -99 c250 -53 448 -230 527 -471 22
-68 26 -98 26 -200 1 -144 -17 -224 -75 -345 -33 -69 -57 -101 -127 -171 -73
-73 -100 -93 -181 -132 -52 -24 -116 -50 -142 -56 -306 -72 -617 77 -761 365
-56 111 -71 181 -72 329 0 145 19 226 78 340 41 77 173 211 255 259 145 84
320 114 472 82z"/>
<path fill="#C9A962" d="M5018 2651 c-99 -40 -159 -106 -178 -197 -10 -47 -9 -59 7 -91 30
-60 78 -91 172 -110 142 -28 220 -101 221 -206 0 -129 -118 -237 -247 -224
-61 6 -125 39 -144 73 -28 52 -7 124 43 150 37 19 58 18 85 -8 l23 -21 0 21
c0 78 -146 99 -216 31 -75 -72 -85 -190 -23 -255 47 -49 96 -72 176 -84 129
-18 235 12 311 88 81 81 113 216 74 305 -12 26 -17 47 -13 47 16 0 84 -75 98
-108 25 -60 19 -146 -17 -218 -45 -93 -118 -153 -210 -175 -26 -6 -18 -7 36
-5 131 6 248 93 289 217 43 128 -28 274 -166 345 l-52 26 38 21 c21 12 47 34
58 49 25 34 34 122 17 173 -16 48 -71 109 -128 142 -61 36 -184 43 -254 14z
m205 -85 c112 -48 128 -187 28 -253 -30 -20 -47 -23 -132 -23 -54 0 -109 5
-123 12 -73 33 -83 149 -18 222 45 50 173 73 245 42z"/>
<path fill="#C9A962" d="M2522 2858 c-16 -16 -15 -43 2 -57 10 -8 256 -10 911 -9 843 3 899 4
909 21 8 12 8 22 0 35 -10 16 -66 17 -911 20 -691 2 -902 -1 -911 -10z"/>
<path fill="#C9A962" d="M5892 2858 c-16 -16 -15 -33 4 -52 14 -14 110 -16 913 -16 972 0 927
-3 919 52 l-3 23 -910 3 c-700 2 -914 -1 -923 -10z"/>
<path fill="#C9A962" d="M3130 2612 c0 -14 33 -40 73 -57 31 -13 105 -15 496 -15 460 0 460 0
475 22 11 15 12 26 5 40 -9 17 -34 18 -529 18 -286 0 -520 -4 -520 -8z"/>
<path fill="#C9A962" d="M6051 2606 c-14 -17 -5 -43 20 -56 11 -6 196 -10 471 -10 356 1 461
4 491 14 39 14 77 42 77 58 0 4 -236 8 -524 8 -432 0 -526 -2 -535 -14z"/>
<path fill="#C9A962" d="M2861 2589 c-4 -90 -65 -194 -130 -224 l-40 -18 40 -20 c22 -11 51
-34 65 -53 30 -39 64 -123 64 -162 1 -17 10 0 25 48 28 87 67 139 127 169 30
14 36 21 22 21 -12 0 -40 14 -63 31 -48 34 -87 108 -101 187 -4 26 -8 35 -9
21z"/>
<path fill="#C9A962" d="M7357 2570 c-16 -99 -87 -200 -153 -216 l-26 -7 28 -12 c75 -31 124
-99 148 -203 l13 -57 6 48 c12 85 69 171 134 202 l37 18 -36 18 c-65 33 -120
119 -137 212 l-7 42 -7 -45z"/>
<path fill="#C9A962" d="M3705 2416 c-104 -33 -187 -104 -227 -194 -29 -67 -29 -170 2 -240
78 -180 323 -230 459 -94 75 75 87 159 28 208 -42 35 -105 31 -127 -9 -14 -27
-14 -29 13 -53 22 -19 28 -30 23 -48 -8 -31 -78 -66 -132 -66 -56 0 -123 37
-146 80 -24 46 -24 142 1 196 73 161 338 177 498 31 63 -58 109 -121 134 -186
27 -69 22 -17 -5 62 -59 165 -170 270 -333 312 -68 18 -134 18 -188 1z"/>
<path fill="#C9A962" d="M6377 2420 c-69 -12 -169 -62 -221 -110 -57 -53 -116 -146 -144 -228
-29 -84 -27 -112 2 -39 30 72 95 159 149 198 116 86 281 109 386 55 34 -18 89
-79 102 -113 14 -37 11 -130 -5 -161 -49 -94 -164 -126 -254 -72 -38 24 -40
42 -7 64 28 18 35 72 13 94 -20 20 -74 14 -106 -13 -72 -61 -31 -190 81 -251
70 -38 179 -41 247 -5 104 54 151 126 158 242 6 102 -14 162 -78 233 -80 87
-202 127 -323 106z"/>
</g>
</svg>
