<?xml version="1.0" encoding="UTF-8"?>
<!-- Generated by Pixelmator Pro 4.0 -->
<svg width="1365" height="1365" viewBox="0 0 1365 1365" xmlns="http://www.w3.org/2000/svg">
    <g id="Associer">
        <path id="Trac" fill="#ffffff" stroke="#000000" stroke-width="4" stroke-opacity="0.557038" stroke-linecap="round" stroke-linejoin="round" d="M 656.607727 66.900146 C 643.64325 69.135376 618.012207 77.629517 606.090881 83.590088 C 574.350159 99.385864 542.460449 130.828735 526.962585 161.526245 C 502.970764 209.062866 502.523743 272.395142 525.62146 318.441528 C 532.774292 332.747192 543.950562 348.543091 553.338684 357.782166 C 560.193481 364.487915 562.130676 365.531006 568.389465 365.978088 C 572.263855 366.276123 575.39325 366.276123 575.39325 366.127136 C 575.39325 365.978088 572.561951 362.699646 569.134521 358.974243 C 533.221375 319.633789 516.531372 268.52063 523.38623 218.599854 C 528.303772 182.388672 540.970215 155.118408 564.664001 129.93457 C 602.663391 89.550781 660.631226 70.62561 714.724487 81.056885 C 753.320007 88.50769 781.484253 103.409546 806.221191 129.636597 C 824.848328 149.157837 837.067749 171.063354 844.667664 198.184448 C 848.542114 212.043091 848.691162 214.87439 848.691162 241.995605 C 848.691162 267.179565 848.393127 272.693237 845.561829 282.975342 C 841.538269 297.430054 834.981567 313.822021 828.424744 325.147217 C 821.570007 337.217773 803.985962 357.633118 791.766479 367.915283 C 785.805847 372.683838 781.037292 376.856323 781.037292 377.154358 C 781.037292 377.303406 781.931335 377.303406 782.974487 377.005371 C 783.868591 376.707275 788.190063 375.515198 792.213562 374.472046 C 796.386047 373.577942 802.048706 371.49176 804.880005 370.001526 C 810.840698 367.02124 830.511047 347.201904 837.216797 337.366821 C 849.287231 319.484619 859.867432 292.06543 863.145874 270.458008 C 865.977173 250.63855 864.188904 213.235229 859.569458 195.800171 C 851.075378 164.059448 838.70697 142.005005 817.248474 119.652344 C 794.448853 96.107666 772.245178 81.80188 744.378967 73.158936 C 717.853882 64.813965 683.728882 62.429565 656.607727 66.900146 Z"/>
        <path id="path1" fill="#ffffff" stroke="#000000" stroke-width="4" stroke-opacity="0.557038" stroke-linecap="round" stroke-linejoin="round" d="M 657.352844 98.789795 C 623.972961 104.899536 591.934204 125.016968 570.922729 152.883179 C 560.044495 167.188965 548.123047 191.031616 543.801575 206.976563 C 539.03302 224.262573 539.182007 256.897339 543.950562 274.779419 C 550.060303 297.579102 562.577759 317.845459 582.09906 335.876587 C 587.016602 340.347046 586.718567 339.750977 580.161804 331.853149 C 551.997498 297.430054 541.86438 248.552368 553.636719 205.188354 C 567.346313 155.416504 610.859436 115.777954 661.823364 106.836914 C 722.324402 96.107666 789.233215 132.467896 812.330933 188.498413 C 827.083618 224.262573 824.997375 267.179565 806.817261 303.837769 C 796.386047 324.849243 777.311768 346.158752 760.770874 355.546875 C 751.978882 360.464417 750.339661 362.103638 756.896423 359.272278 C 782.22937 348.543091 804.880005 326.786499 818.142517 300.559326 C 827.381714 281.932251 829.467896 271.203003 829.467896 240.505493 C 829.318848 207.721558 828.126709 201.760986 815.758301 176.427856 C 808.009399 160.334106 806.519226 158.396851 790.872375 142.899048 C 768.072693 120.397461 749.29657 109.519165 720.238159 101.621216 C 707.571716 98.193848 669.8703 96.554565 657.352844 98.789795 Z"/>
        <path id="path2" fill="#ffffff" stroke="#000000" stroke-width="4" stroke-opacity="0.557038" stroke-linecap="round" stroke-linejoin="round" d="M 681.493591 127.401245 C 675.234924 129.189453 668.678162 138.279541 666.293884 148.41272 C 664.505676 155.714478 664.952698 177.619995 667.187927 193.564941 C 667.933044 199.376587 667.783997 199.674683 661.227295 203.69812 C 636.639404 219.046997 623.674866 240.505493 624.867065 264.050171 C 625.761108 284.465576 637.384521 301.751587 655.564636 310.245605 C 663.015442 313.672974 665.99585 314.269043 679.258362 314.269043 C 696.842407 314.269043 695.650269 312.927979 697.140442 332.449219 C 698.332642 349.288086 695.650269 356.739014 686.411194 361.209534 C 679.40741 364.636902 672.552551 364.338867 669.274231 360.464417 C 668.082031 358.974243 668.529114 357.633118 671.50946 354.652771 C 679.854492 346.3078 674.191772 331.406006 662.717407 331.406006 C 658.842957 331.406006 656.607727 332.598267 653.180298 336.472656 C 647.666687 342.731384 646.176514 348.692078 648.262695 356.440979 C 650.497986 364.338867 655.117554 370.001526 662.419373 373.279907 C 677.172119 379.985718 696.991455 373.279907 704.740356 358.974243 C 707.571716 353.758606 707.869751 329.170776 705.336426 318.29248 L 703.846191 311.884766 L 710.403015 308.904419 C 718.747986 304.880981 727.838013 295.790894 732.010498 287.296997 C 734.692871 281.634277 735.139893 278.653809 734.543823 269.116699 C 734.096802 262.261963 732.755615 255.556152 731.265442 252.426758 C 727.987061 246.019043 719.046021 236.482056 713.681396 233.650635 C 709.061829 231.266357 695.203186 230.819336 689.540527 233.054565 C 685.368042 234.544678 685.815125 235.438843 682.834778 221.431274 L 681.493591 215.172485 L 692.2229 206.380493 C 714.873535 187.902344 720.089172 178.961304 720.089172 159.737915 C 720.089172 136.342285 702.356079 121.440552 681.493591 127.401245 Z M 699.822754 143.048096 C 710.70105 154.820435 706.379517 172.255493 689.391602 185.369019 C 684.921082 188.796387 680.599487 191.329712 680.003479 190.733643 C 678.513306 189.243408 677.768188 161.228149 678.81134 153.330322 C 680.897522 140.365723 692.2229 134.852173 699.822754 143.048096 Z M 674.787842 228.88208 C 676.128967 236.034912 676.128967 236.929077 673.446716 238.717285 C 656.607727 250.489624 654.22345 272.544189 668.380066 284.614624 C 675.085876 290.42627 677.023071 290.277222 672.403564 284.465576 C 670.764404 282.230347 668.976196 278.057739 668.380066 275.375488 C 666.591858 265.987427 676.128967 248.105347 679.705444 253.916992 C 681.344604 256.599365 693.117004 305.029907 692.2229 305.924072 C 691.924866 306.222168 688.34845 306.818237 684.473999 307.265137 C 673.744751 308.159302 662.121338 304.284912 653.776367 296.983032 C 643.64325 288.041992 640.21582 280.88916 640.364807 268.073608 C 640.513855 254.661987 644.68634 244.827026 654.074402 235.736816 C 661.376282 228.88208 670.913452 221.133179 672.403564 221.133179 C 672.850586 221.133179 673.893738 224.709595 674.787842 228.88208 Z M 707.124634 254.06604 C 718.449951 261.814941 722.771423 275.375488 717.853882 287.147827 C 715.916687 291.767456 706.23053 301.602539 703.548157 301.602539 C 702.952148 301.602539 700.269836 293.108521 697.736572 282.52832 C 695.203186 272.097168 692.2229 260.324707 691.030762 256.30127 L 688.795532 249.148438 L 695.501282 249.893555 C 699.077637 250.191528 704.442322 252.128784 707.124634 254.06604 Z"/>
        <path id="path3" fill="#ffffff" stroke="#000000" stroke-width="4" stroke-opacity="0.557038" stroke-linecap="round" stroke-linejoin="round" d="M 748.104431 161.526245 C 769.413879 179.259277 785.507813 213.533325 785.507813 241.399658 C 785.507813 261.963867 778.652954 286.551758 768.966797 300.559326 L 765.539429 305.328003 L 768.966797 302.496704 C 774.182434 297.728027 786.550842 271.650146 789.382263 258.983643 C 793.703735 239.46228 790.425354 215.917603 780.739258 196.098267 C 775.523621 185.667114 761.664978 169.871216 749.29657 160.334106 C 738.120239 151.69104 737.226135 152.436157 748.104431 161.526245 Z"/>
        <path id="path4" fill="#ffffff" stroke="#000000" stroke-width="4" stroke-opacity="0.557038" stroke-linecap="round" stroke-linejoin="round" d="M 423.84259 164.804688 C 421.458282 177.322021 415.348572 186.710205 406.407532 191.478638 C 399.552734 195.204102 399.403717 195.502075 402.980133 196.39624 C 412.368225 198.780518 421.01123 210.702026 424.140625 225.603638 L 425.928802 233.799683 L 427.71701 225.603638 C 430.697388 211.596069 437.105103 202.804077 448.132385 197.439453 L 453.944092 194.608154 L 449.473541 192.819946 C 439.936462 189.243408 430.697388 177.023926 428.611145 165.251587 C 426.822906 155.267456 425.630768 155.267456 423.84259 164.804688 Z"/>
        <path id="path5" fill="#ffffff" stroke="#000000" stroke-width="4" stroke-opacity="0.557038" stroke-linecap="round" stroke-linejoin="round" d="M 946.744629 163.165527 C 943.764221 176.130005 937.20752 186.114136 928.117432 191.329712 C 922.752808 194.310059 921.411621 195.800171 923.497925 195.800171 C 932.737 195.800171 945.403442 212.192139 947.489624 226.646851 L 948.383789 233.650635 L 950.917114 224.709595 C 955.238586 209.062866 961.944336 200.270752 972.375549 196.694336 L 977.889221 194.75708 L 971.77948 192.074707 C 965.07373 189.094482 956.132629 180.004395 953.599365 173.745728 C 952.705261 171.510498 951.215149 166.443726 950.321045 162.420288 L 948.532776 155.118408 L 946.744629 163.165527 Z"/>
        <path id="path6" fill="#ffffff" stroke="#000000" stroke-width="4" stroke-opacity="0.557038" stroke-linecap="round" stroke-linejoin="round" d="M 600.875244 171.957397 C 587.463684 188.796387 579.565735 208.019653 576.734375 229.925171 C 574.350159 248.254395 577.479492 264.944336 586.420532 282.975342 C 589.996948 290.277222 595.212585 298.324097 597.894836 300.857422 L 602.663391 305.328003 L 598.043884 299.36731 C 581.950012 278.802979 577.479492 242.740723 586.420532 207.274658 C 590.593018 191.180664 592.530273 186.859131 601.769348 173.745728 C 609.667236 162.718384 609.071167 161.526245 600.875244 171.957397 Z"/>
        <path id="path7" fill="#ffffff" stroke="#000000" stroke-width="4" stroke-opacity="0.557038" stroke-linecap="round" stroke-linejoin="round" d="M 730.073303 191.329712 C 742.739807 201.313843 749.743591 212.63916 752.723938 228.286011 C 754.512146 237.078003 754.065063 253.618896 752.127869 260.622803 C 751.531799 262.261963 752.276917 261.218872 753.618103 258.387573 C 757.194458 251.085693 757.194458 230.372314 753.618103 219.493896 C 750.339661 209.211792 742.292725 198.333618 732.606567 191.031616 C 722.771423 183.580811 720.536194 183.729736 730.073303 191.329712 Z"/>
        <path id="path8" fill="#ffffff" stroke="#000000" stroke-width="4" stroke-opacity="0.557038" stroke-linecap="round" stroke-linejoin="round" d="M 372.580597 253.022827 C 372.282532 253.320923 372.133514 290.873291 372.43158 336.323608 L 372.729614 419.028259 L 381.521637 416.643982 L 390.164612 414.408691 L 391.058746 376.409302 C 391.654816 355.397827 392.101837 319.03772 392.101837 295.343872 L 392.101837 252.426758 L 382.713776 252.426758 C 377.498169 252.426758 372.878632 252.724854 372.580597 253.022827 Z"/>
        <path id="path9" fill="#ffffff" stroke="#000000" stroke-width="4" stroke-opacity="0.557038" stroke-linecap="round" stroke-linejoin="round" d="M 896.972778 305.775024 L 897.4198 355.993896 L 906.956909 354.652771 L 916.643066 353.162598 L 916.643066 304.284912 L 916.643066 255.407227 L 906.658875 255.407227 L 896.525696 255.407227 L 896.972778 305.775024 Z"/>
        <path id="path10" fill="#ffffff" stroke="#000000" stroke-width="4" stroke-opacity="0.557038" stroke-linecap="round" stroke-linejoin="round" d="M 457.669525 327.531616 L 457.669525 396.526611 L 466.461548 394.142395 C 471.37912 392.801208 475.700623 391.460022 475.998657 391.013 C 476.296692 390.565918 477.041748 360.613464 477.488831 324.253174 L 478.233917 258.387573 L 467.951691 258.387573 L 457.669525 258.387573 L 457.669525 327.531616 Z"/>
        <path id="path11" fill="#ffffff" stroke="#000000" stroke-width="4" stroke-opacity="0.557038" stroke-linecap="round" stroke-linejoin="round" d="M 982.657776 304.880981 C 983.253845 330.511963 983.700928 365.083984 983.700928 381.475952 L 983.700928 411.577393 L 990.85376 413.216614 C 994.728149 414.259705 999.049683 415.302856 1000.539856 415.749878 C 1003.07312 416.494995 1003.222168 412.918579 1002.477051 337.813721 L 1001.583008 259.132568 L 991.747864 258.685669 L 981.763672 258.238525 L 982.657776 304.880981 Z"/>
        <path id="path12" fill="#ffffff" stroke="#000000" stroke-width="4" stroke-opacity="0.557038" stroke-linecap="round" stroke-linejoin="round" d="M 289.577881 276.567749 C 287.342621 278.802979 287.193604 285.508789 289.577881 287.892944 C 292.260223 290.575317 297.47583 289.979248 300.456146 286.700928 C 304.479645 282.230347 301.94635 275.673584 295.985626 275.077515 C 293.452332 274.779419 290.621033 275.524536 289.577881 276.567749 Z"/>
        <path id="path13" fill="#ffffff" stroke="#000000" stroke-width="4" stroke-opacity="0.557038" stroke-linecap="round" stroke-linejoin="round" d="M 1074.005493 277.163818 C 1070.876099 280.293091 1071.025024 284.16748 1074.303467 287.147827 C 1078.326904 290.724365 1083.095459 290.277222 1085.92688 285.955688 C 1088.162109 282.52832 1088.162109 281.932251 1085.92688 278.504883 C 1083.095459 274.18335 1077.581909 273.58728 1074.005493 277.163818 Z"/>
        <path id="path14" fill="#ffffff" stroke="#000000" stroke-width="4" stroke-opacity="0.557038" stroke-linecap="round" stroke-linejoin="round" d="M 414.454468 352.268494 C 414.454468 391.311035 414.90155 407.404907 416.093658 407.404907 C 416.987762 407.404907 421.309265 406.361816 425.779785 405.02063 L 433.826721 402.7854 L 433.826721 349.884155 L 433.826721 297.131958 L 424.140625 297.131958 L 414.454468 297.131958 L 414.454468 352.268494 Z"/>
        <path id="path15" fill="#ffffff" stroke="#000000" stroke-width="4" stroke-opacity="0.557038" stroke-linecap="round" stroke-linejoin="round" d="M 940.48584 326.935547 L 940.48584 356.589966 L 944.95636 358.974243 C 947.340637 360.166382 951.811157 363.295715 954.642517 365.829102 L 959.858154 370.448608 L 959.858154 333.790283 L 959.858154 297.131958 L 950.171997 297.131958 L 940.48584 297.131958 L 940.48584 326.935547 Z"/>
        <path id="path16" fill="#ffffff" stroke="#000000" stroke-width="4" stroke-opacity="0.557038" stroke-linecap="round" stroke-linejoin="round" d="M 331.302765 366.425171 C 331.00473 401.295166 331.302765 429.757507 331.749817 429.757507 C 332.345886 429.757507 336.369354 428.714417 340.839874 427.37323 L 348.88681 425.138 L 348.88681 364.040833 L 348.88681 303.092773 L 340.392822 303.092773 L 331.749817 303.092773 L 331.302765 366.425171 Z"/>
        <path id="path17" fill="#ffffff" stroke="#000000" stroke-width="4" stroke-opacity="0.557038" stroke-linecap="round" stroke-linejoin="round" d="M 1025.425781 361.805603 L 1025.425781 420.518433 L 1034.366821 422.753662 L 1043.307861 424.988953 L 1043.307861 364.040833 L 1043.307861 303.092773 L 1034.366821 303.092773 L 1025.425781 303.092773 L 1025.425781 361.805603 Z"/>
        <path id="path18" fill="#ffffff" stroke="#000000" stroke-width="4" stroke-opacity="0.557038" stroke-linecap="round" stroke-linejoin="round" d="M 289.279846 358.229126 C 289.279846 373.279907 289.577881 374.621094 292.409241 376.111267 C 294.048401 377.154358 298.071869 380.283752 301.350281 383.115051 L 307.161926 388.330688 L 307.161926 365.083984 L 307.161926 341.83728 L 298.220886 341.83728 L 289.279846 341.83728 L 289.279846 358.229126 Z"/>
        <path id="path19" fill="#ffffff" stroke="#000000" stroke-width="4" stroke-opacity="0.557038" stroke-linecap="round" stroke-linejoin="round" d="M 1068.640869 364.338867 C 1068.640869 386.989502 1068.640869 386.989502 1071.472168 383.264099 C 1073.111328 381.326843 1077.134766 378.346497 1080.413208 376.856323 L 1086.522949 374.174011 L 1086.522949 357.931152 L 1086.522949 341.83728 L 1077.581909 341.83728 L 1068.640869 341.83728 L 1068.640869 364.338867 Z"/>
        <path id="path20" fill="#ffffff" stroke="#000000" stroke-width="4" stroke-opacity="0.557038" stroke-linecap="round" stroke-linejoin="round" d="M 857.036133 364.934937 C 857.036133 375.96228 857.334167 385.052307 857.632202 385.052307 C 858.079224 385.052307 860.463501 381.326843 862.996826 376.856323 C 865.53009 372.385803 869.255493 367.468201 871.341797 365.829102 C 874.47113 363.444763 874.918213 361.805603 874.918213 353.907654 L 874.918213 344.817566 L 865.977173 344.817566 L 857.036133 344.817566 L 857.036133 364.934937 Z"/>
        <path id="path21" fill="#ffffff" stroke="#000000" stroke-width="4" stroke-opacity="0.557038" stroke-linecap="round" stroke-linejoin="round" d="M 501.927704 347.201904 C 501.331635 347.797974 500.884552 356.291931 500.884552 365.978088 C 500.884552 385.49939 500.288483 384.605286 512.060852 381.624878 L 519.51178 379.687683 L 519.51178 363.295715 L 519.51178 347.052856 L 511.315735 346.605835 C 506.696259 346.3078 502.523743 346.605835 501.927704 347.201904 Z"/>
        <path id="path22" fill="#ffffff" stroke="#000000" stroke-width="4" stroke-opacity="0.557038" stroke-linecap="round" stroke-linejoin="round" d="M 903.976624 373.72699 C 896.674805 374.770142 889.074829 376.409302 887.435608 377.303406 C 882.36908 379.985718 876.706421 396.973694 880.729858 396.973694 C 884.306274 396.973694 887.137573 394.738464 889.074829 390.118896 C 890.565063 386.393433 892.35321 384.90332 896.82373 383.711182 C 907.254944 380.730835 917.53717 382.66803 922.454773 388.479736 C 924.838989 391.60907 930.352661 391.60907 938.250549 388.777771 C 943.615234 386.840515 944.360291 386.840515 946.14856 389.075806 C 948.532776 392.354126 948.383789 400.401062 945.850525 406.361816 C 943.466187 412.32251 935.568298 419.177246 929.905579 420.369446 C 927.670349 420.816467 925.435059 422.008667 924.988037 423.200745 C 924.391968 424.690918 925.137024 424.839966 928.266479 423.647766 C 942.870117 418.134216 949.575928 410.087219 949.724915 397.718811 C 949.873962 392.652222 948.830811 389.671875 944.807373 384.009216 C 935.866333 371.640747 930.203674 370.150574 903.976624 373.72699 Z"/>
        <path id="path23" fill="#ffffff" stroke="#000000" stroke-width="4" stroke-opacity="0.557038" stroke-linecap="round" stroke-linejoin="round" d="M 203.147812 380.581787 C 189.289185 384.307251 179.75209 389.522827 168.575775 399.507019 C 132.066513 432.588806 122.529396 492.79187 146.52121 538.987244 C 157.250458 559.700684 174.685486 573.857361 196.143982 579.519958 C 226.245499 587.268921 262.158691 572.069153 281.679962 543.159729 C 297.326813 520.062073 303.287506 501.434875 303.436523 474.462708 C 303.436523 452.259155 301.648315 444.212219 292.707275 425.436035 C 281.232941 401.444214 262.158691 385.797424 236.974762 379.836731 C 224.457291 377.005371 216.41037 377.154358 203.147812 380.581787 Z M 245.021713 396.526611 C 271.546783 409.193115 287.789703 438.698547 287.789703 474.313721 C 287.640686 504.862305 277.954529 529.003113 257.837189 548.822388 C 243.084488 563.426147 228.182739 569.088806 207.916367 568.045654 C 170.513 566.108398 144.28595 532.281494 144.136932 485.639038 C 143.838898 442.125977 166.191513 404.871582 199.124344 393.993347 C 205.830124 391.758057 211.34375 391.161987 221.476944 391.460022 C 233.100296 391.758057 236.229691 392.354126 245.021713 396.526611 Z"/>
        <path id="path24" fill="#ffffff" stroke="#000000" stroke-width="4" stroke-opacity="0.557038" stroke-linecap="round" stroke-linejoin="round" d="M 205.830124 408.299072 C 194.504807 411.428406 186.606888 416.345947 177.51683 426.330139 C 163.658203 441.529846 156.654388 461.051147 156.654388 484.595947 C 156.654388 501.434875 159.485718 513.356323 166.63855 527.065918 C 176.920746 546.587097 192.567581 555.677246 214.026093 554.634094 C 229.672913 553.73999 239.806076 548.971436 250.833374 537.348022 C 257.539154 530.344238 270.205658 510.226868 267.970367 510.226868 C 267.672363 510.226868 264.841003 514.250427 261.860657 519.018982 C 247.107925 542.861694 222.073013 552.994873 199.273361 544.500916 C 172.301208 534.367737 156.952408 498.156494 164.850342 464.180603 C 169.767914 443.61615 184.371628 424.392883 200.912552 416.643982 C 213.280975 410.981323 230.119965 410.981323 240.849228 416.643982 C 256.794067 424.988953 269.460541 443.61615 273.484009 464.925598 C 276.911438 482.956726 277.060455 483.105713 277.209442 478.188171 C 277.507477 470.141235 274.378143 454.643372 270.354645 443.169067 C 267.076263 433.781006 264.841003 430.502625 256.64505 422.157654 C 241.445282 406.957886 226.394516 402.7854 205.830124 408.299072 Z"/>
        <path id="path25" fill="#ffffff" stroke="#000000" stroke-width="4" stroke-opacity="0.557038" stroke-linecap="round" stroke-linejoin="round" d="M 214.771164 459.859009 C 201.210587 469.247131 201.061569 488.917419 214.622147 497.858459 C 233.100296 510.226868 254.260788 487.278198 242.935471 467.011902 C 236.974762 456.580627 224.457291 453.302307 214.771164 459.859009 Z M 243.680542 484.446899 C 243.084488 487.129272 241.892334 489.960571 240.99823 490.705627 C 239.657074 491.897766 239.359039 490.109558 239.806076 482.956726 C 240.104111 477.890198 240.700211 472.674561 241.147247 471.482422 C 242.488388 467.906006 244.574631 478.933228 243.680542 484.446899 Z"/>
        <path id="path26" fill="#ffffff" stroke="#000000" stroke-width="4" stroke-opacity="0.557038" stroke-linecap="round" stroke-linejoin="round" d="M 177.963867 468.054993 C 173.34433 479.082275 174.089432 506.501465 179.156006 509.630859 C 179.901108 510.077881 179.75209 508.587708 178.857971 506.20343 C 176.473709 500.242798 176.920746 478.039124 179.454041 469.545166 C 182.136368 461.200195 181.242249 460.306091 177.963867 468.054993 Z"/>
        <path id="path27" fill="#ffffff" stroke="#000000" stroke-width="4" stroke-opacity="0.557038" stroke-linecap="round" stroke-linejoin="round" d="M 1137.188843 379.985718 C 1112.898926 385.201355 1091.142456 401.295166 1081.158203 421.561584 C 1072.664307 438.996582 1070.876099 448.384705 1071.025024 474.462708 C 1071.025024 496.964355 1071.174194 498.007507 1076.389771 512.760193 C 1083.095459 532.430542 1089.354248 542.56366 1102.467773 555.826294 C 1124.820435 578.327881 1154.027832 586.821838 1180.701904 578.327881 C 1231.516724 562.084961 1255.359619 499.348633 1233.156006 440.486816 C 1221.681641 409.789185 1195.603638 385.797424 1167.439331 379.836731 C 1155.070923 377.154358 1149.706299 377.154358 1137.188843 379.985718 Z M 1173.102051 393.993347 C 1192.772339 399.954041 1208.121094 413.812622 1218.552246 434.973145 C 1227.642456 453.600342 1230.175659 464.329529 1230.175659 484.148865 C 1230.026611 503.670166 1227.046265 516.932678 1219.446411 531.685425 C 1212.293579 545.39502 1202.458374 554.932129 1188.301758 561.935913 C 1177.125488 567.449585 1176.380371 567.598633 1160.435547 567.598633 C 1144.937744 567.598633 1143.298584 567.300598 1133.761475 562.830078 C 1090.099243 542.116577 1071.621094 476.399963 1095.762085 428.416382 C 1104.405029 411.279358 1119.008667 398.016846 1134.655518 393.248291 C 1144.192627 390.118896 1162.074707 390.565918 1173.102051 393.993347 Z"/>
        <path id="path28" fill="#ffffff" stroke="#000000" stroke-width="4" stroke-opacity="0.557038" stroke-linecap="round" stroke-linejoin="round" d="M 1137.635742 408.000977 C 1124.373291 412.32251 1112.302856 423.200745 1105.150024 437.208374 C 1100.679443 446.149414 1096.805054 463.882446 1097.103149 474.90979 C 1097.401123 482.509644 1097.401123 482.509644 1098.593384 472.227478 C 1103.361816 435.122192 1127.204712 409.49115 1154.176758 412.32251 C 1168.0354 413.812622 1178.764648 418.879211 1188.599854 428.863403 C 1203.650635 444.212219 1210.207275 460.306091 1210.207275 482.658691 C 1210.207275 512.611206 1195.156494 537.944153 1172.803955 545.246033 C 1162.670776 548.673401 1145.831787 547.630249 1136.443726 543.010742 C 1127.055664 538.391174 1115.730225 527.810974 1109.471558 517.528748 C 1100.679443 503.372131 1101.275513 507.246582 1110.067627 522.595398 C 1116.62439 533.920654 1128.098755 544.947998 1138.380981 550.014587 C 1145.831787 553.73999 1148.51416 554.187073 1161.031494 554.187073 C 1172.803955 554.187073 1176.380371 553.591003 1182.192017 550.759644 C 1194.262451 544.79895 1202.309326 536.453979 1208.717163 523.042419 C 1218.105225 503.372131 1220.191528 483.105713 1214.677856 461.945313 C 1206.630981 430.353577 1182.63916 408.150024 1154.921875 406.510803 C 1147.918091 406.212769 1141.659424 406.659851 1137.635742 408.000977 Z"/>
        <path id="path29" fill="#ffffff" stroke="#000000" stroke-width="4" stroke-opacity="0.557038" stroke-linecap="round" stroke-linejoin="round" d="M 1135.549683 460.604126 C 1130.333984 465.074646 1126.757568 472.227478 1126.757568 478.486206 C 1126.906616 485.192017 1132.122314 495.027161 1137.486816 498.305542 C 1151.79248 506.948547 1168.482544 495.921265 1168.482544 477.890198 C 1168.482544 461.051147 1147.918091 450.321899 1135.549683 460.604126 Z M 1166.99231 477.74115 C 1166.99231 480.125427 1166.39624 481.913635 1165.502075 481.913635 C 1164.75708 481.913635 1164.011963 479.082275 1164.011963 475.505859 C 1164.011963 470.886353 1164.458984 469.843201 1165.502075 471.482422 C 1166.247192 472.674561 1166.99231 475.505859 1166.99231 477.74115 Z M 1138.678955 485.192017 C 1138.678955 490.854675 1138.232056 492.493835 1137.188843 490.854675 C 1135.251587 487.874268 1135.251587 477.443115 1137.188843 477.443115 C 1138.082886 477.443115 1138.678955 481.019531 1138.678955 485.192017 Z"/>
        <path id="path30" fill="#ffffff" stroke="#000000" stroke-width="4" stroke-opacity="0.557038" stroke-linecap="round" stroke-linejoin="round" d="M 1194.709595 471.482422 C 1196.944824 479.38031 1196.795776 496.517273 1194.709595 505.756348 C 1193.964355 508.885803 1194.113525 508.736755 1195.901733 505.011353 C 1200.819336 494.878113 1200.074097 473.568604 1194.560425 466.117737 C 1192.921265 463.882446 1192.921265 464.776611 1194.709595 471.482422 Z"/>
        <path id="path31" fill="#ffffff" stroke="#000000" stroke-width="4" stroke-opacity="0.557038" stroke-linecap="round" stroke-linejoin="round" d="M 893.694397 388.181702 C 888.47876 392.205139 888.776794 394.142395 894.439514 392.205139 C 900.847168 389.96991 911.129395 394.142395 915.152893 400.55011 C 918.431274 405.914734 919.027405 414.706726 916.494019 419.773376 C 915.450928 422.008667 916.345032 421.561584 919.474365 418.134216 C 923.199829 414.259705 924.093994 412.024475 924.093994 406.808838 C 924.093994 391.161987 905.019714 379.389648 893.694397 388.181702 Z"/>
        <path id="path32" fill="#ffffff" stroke="#000000" stroke-width="4" stroke-opacity="0.557038" stroke-linecap="round" stroke-linejoin="round" d="M 597.745911 392.652222 C 559.150391 395.334473 525.62146 401.146179 499.841431 409.789185 C 474.806488 418.134216 463.630188 425.73407 456.775391 439.14563 C 448.728485 454.494446 460.351837 473.568604 485.684784 486.831238 C 502.374695 495.62323 520.405823 500.391785 564.962036 507.991638 C 598.937988 513.952393 618.310242 515.14447 663.313477 514.250427 C 719.195007 513.207275 751.233765 508.736755 785.358765 497.560425 C 822.762146 485.042969 845.412781 465.223633 840.942261 448.980774 C 839.750122 444.659302 839.452087 444.361267 838.557983 446.894531 C 833.640381 461.051147 823.656189 472.078491 806.519226 481.615601 C 754.810181 510.524902 636.788391 515.74054 531.433105 493.835022 C 498.351257 486.980164 470.335968 472.078491 462.587097 457.474792 C 459.60675 451.812073 460.798889 441.827942 464.971375 436.016296 C 470.783051 427.820251 498.053223 415.302856 525.472412 408.150024 C 562.875793 398.463867 603.855591 394.738464 660.184143 395.930542 C 706.975647 396.973694 740.951538 401.295166 775.076538 410.683289 C 791.17041 415.004822 816.056335 425.585022 813.523071 426.926208 C 811.88385 427.820251 778.354919 436.910339 767.17865 439.294617 C 763.602173 440.188782 763.155212 440.635803 764.645325 442.424011 C 765.688477 443.61615 768.072693 444.659302 770.009949 444.659302 C 776.268738 444.659302 820.377808 432.588806 833.193298 427.37323 C 858.079224 417.240112 894.290466 404.573547 905.317749 402.189331 C 909.341248 401.295166 909.490234 401.146179 907.254944 398.91095 C 905.913818 397.569763 902.635437 396.526611 899.953125 396.526611 C 895.929688 396.526611 861.506653 408.150024 830.063965 420.220398 L 823.358154 422.753662 L 803.985962 415.153809 C 756.002319 396.228577 674.042786 387.287537 597.745911 392.652222 Z"/>
        <path id="path33" fill="#ffffff" stroke="#000000" stroke-width="4" stroke-opacity="0.557038" stroke-linecap="round" stroke-linejoin="round" d="M 401.787994 437.208374 C 370.643372 446.894531 343.522217 455.537537 341.435974 456.282593 L 337.561493 457.772827 L 339.200714 470.886353 L 340.690857 483.85083 L 360.06311 490.258606 C 370.792389 493.685974 414.30545 507.991638 456.924408 521.850281 C 499.543396 535.85791 553.934753 553.441956 577.62854 560.892822 C 601.471313 568.343689 637.831543 579.967041 658.544922 586.672852 L 696.395386 598.743225 L 704.740356 596.359009 C 713.383362 593.97467 825.891479 550.461609 863.741943 534.814758 C 875.216248 530.195251 889.372864 524.532593 895.035583 522.595398 C 900.847168 520.509094 929.756592 508.885803 959.262085 496.666321 C 988.916504 484.446899 1017.08075 473.121643 1021.849365 471.333374 C 1032.578613 467.458923 1034.366821 466.117737 1034.366821 461.945313 C 1034.366821 459.113953 1031.68457 458.070862 1009.480896 451.663086 C 995.622314 447.788635 978.038269 443.020081 970.289307 440.933777 C 962.540405 438.996582 954.642517 436.910339 952.854309 436.314331 C 949.575928 435.420227 949.42688 435.718262 949.42688 445.255371 C 949.42688 453.749329 948.979858 455.239502 945.999512 457.176697 C 939.144714 461.796265 928.862488 464.329529 914.407837 465.074646 C 900.400208 465.819702 889.521912 464.329529 878.792664 460.157043 C 876.408386 459.263 876.110352 459.560974 877.153503 461.945313 C 877.898499 463.435486 878.643616 467.607971 879.090698 471.035339 C 881.176941 492.493835 842.581421 522.148315 794.299805 536.155945 C 756.151367 547.183228 663.760559 553.441956 612.647583 548.375366 C 583.738281 545.693054 541.566345 538.838257 519.95874 533.324585 C 494.178772 526.767883 456.626373 510.67395 440.830536 499.497681 C 432.634583 493.536987 424.140625 483.999817 421.905365 478.188171 C 419.37207 471.482422 420.266144 460.902161 423.991608 452.855225 C 427.866028 444.510254 437.999207 434.377075 450.66571 426.330139 C 455.285248 423.349731 459.159668 420.518433 459.159668 420.071411 C 459.159668 419.624329 459.010651 419.326294 458.861633 419.475342 C 458.563629 419.624329 432.932648 427.522217 401.787994 437.208374 Z M 401.937012 460.157043 C 403.12915 461.796265 404.023254 465.670715 404.023254 468.800049 C 404.023254 475.952942 400.744873 478.188171 385.992157 481.317566 C 373.772705 483.999817 362.745422 483.403748 354.251434 479.827393 C 348.737793 477.592163 348.588776 477.145081 349.333862 471.929443 C 350.526031 464.925598 350.973053 464.627563 363.192474 460.157043 C 371.686462 457.176697 375.709961 456.580627 386.588226 456.878662 C 397.615509 457.325745 400.148804 457.772827 401.937012 460.157043 Z M 1002.775085 465.670715 C 1003.222168 468.352966 990.406677 474.462708 984.296936 474.462708 C 979.975464 474.462708 976.399048 468.949097 979.826416 467.607971 C 993.536011 462.392334 1002.03009 461.647217 1002.775085 465.670715 Z M 963.583557 475.058777 C 966.265869 476.996033 966.116821 477.145081 962.689453 479.231262 C 960.752258 480.572449 944.062256 487.129272 925.733154 493.835022 C 897.121765 504.266235 891.757202 505.756348 888.776794 504.415283 C 882.816101 501.73291 885.200378 497.858459 895.035583 494.282043 C 899.953125 492.493835 914.705872 487.129272 927.819397 482.21167 C 952.705261 472.823547 958.963989 471.631409 963.583557 475.058777 Z M 744.975098 565.512329 C 742.292725 566.853516 736.182983 569.237854 731.563477 570.727966 C 724.708679 572.814209 722.324402 572.963257 719.195007 571.62207 C 717.108826 570.727966 715.469604 569.237854 715.469604 568.343689 C 715.469604 566.406433 723.069458 562.979065 733.798767 560.296814 C 740.653503 558.508545 741.99469 558.508545 745.720093 560.594849 L 749.743591 562.979065 L 744.975098 565.512329 Z M 702.058044 568.939758 C 707.124634 570.429932 709.061829 571.920105 710.253967 575.049438 C 711.446167 578.476929 711.148132 579.519958 708.316711 581.755249 C 701.76001 587.119934 678.81134 587.417969 671.211487 582.351318 C 666.889893 579.669006 666.442932 570.727966 670.46637 568.492737 C 674.191772 566.257446 694.160156 566.555481 702.058044 568.939758 Z"/>
        <path id="path34" fill="#ffffff" stroke="#000000" stroke-width="4" stroke-opacity="0.557038" stroke-linecap="round" stroke-linejoin="round" d="M 372.729614 463.435486 C 364.086609 464.925598 356.337677 467.458923 356.337677 468.800049 C 356.337677 470.886353 363.341492 472.972595 370.19632 472.972595 C 382.415741 472.972595 399.105652 467.607971 396.125336 464.627563 C 394.933197 463.435486 377.647186 462.541382 372.729614 463.435486 Z"/>
        <path id="path35" fill="#ffffff" stroke="#000000" stroke-width="4" stroke-opacity="0.557038" stroke-linecap="round" stroke-linejoin="round" d="M 674.93689 570.727966 C 670.317322 575.198486 680.301514 579.221924 694.160156 578.476929 C 709.806946 577.582764 703.846191 572.516174 684.921082 570.429932 C 680.003479 569.982849 675.532959 570.131897 674.93689 570.727966 Z"/>
        <path id="path36" fill="#ffffff" stroke="#000000" stroke-width="4" stroke-opacity="0.557038" stroke-linecap="round" stroke-linejoin="round" d="M 893.545349 421.561584 C 892.800293 421.859619 890.267029 422.455688 888.031738 422.90271 C 882.816101 424.094849 882.816101 426.181152 887.733704 431.396729 C 891.012085 434.824097 892.35321 435.271179 897.717834 434.67511 C 905.913818 433.631958 907.702026 431.992737 907.702026 425.883057 C 907.702026 420.965515 907.552979 420.816467 901.443298 420.965515 C 897.866882 420.965515 894.439514 421.26355 893.545349 421.561584 Z"/>
        <path id="path37" fill="#ffffff" stroke="#000000" stroke-width="4" stroke-opacity="0.557038" stroke-linecap="round" stroke-linejoin="round" d="M 310.88739 432.290771 C 313.271667 438.698547 316.251984 468.502075 315.35791 478.933228 C 313.271667 505.309387 306.118835 529.003113 295.091553 545.991089 C 288.236755 556.720337 276.911438 569.088806 270.652679 572.963257 C 268.119385 574.602417 267.225281 575.794556 268.566437 575.794556 C 269.758606 575.794556 273.782043 573.857361 277.507477 571.62207 C 309.546204 551.057678 328.918488 499.050598 319.977448 457.176697 C 317.742188 446.596497 312.079529 429.757507 310.589355 429.757507 C 310.142303 429.757507 310.291321 430.949707 310.88739 432.290771 Z"/>
        <path id="path38" fill="#ffffff" stroke="#000000" stroke-width="4" stroke-opacity="0.557038" stroke-linecap="round" stroke-linejoin="round" d="M 617.565186 431.843811 C 602.216431 434.824097 592.679321 438.251526 588.80481 442.274963 C 577.926575 454.047363 603.408508 463.137451 647.666687 463.137451 C 678.215271 463.286438 684.175964 462.243347 684.175964 457.474792 C 684.175964 453.153259 690.881714 446.745483 698.183594 444.212219 L 703.995239 442.274963 L 695.203186 438.996582 C 673.893738 431.098694 638.725647 427.820251 617.565186 431.843811 Z M 654.074402 435.122192 C 656.607727 436.910339 657.352844 438.847595 657.352844 443.765137 C 657.352844 450.768982 656.011658 452.110107 648.560791 452.110107 C 640.662842 452.110107 635.000183 449.129822 635.000183 445.106323 C 635.000183 441.082886 637.533508 435.569214 640.066772 433.929993 C 642.898132 431.992737 650.647034 432.588806 654.074402 435.122192 Z"/>
        <path id="path39" fill="#ffffff" stroke="#000000" stroke-width="4" stroke-opacity="0.557038" stroke-linecap="round" stroke-linejoin="round" d="M 643.494141 438.251526 C 641.258911 440.337769 642.451111 446.149414 645.133362 446.149414 C 647.666687 446.149414 651.839172 439.592712 650.199951 437.953491 C 649.15686 436.910339 644.68634 437.059326 643.494141 438.251526 Z"/>
        <path id="path40" fill="#ffffff" stroke="#000000" stroke-width="4" stroke-opacity="0.557038" stroke-linecap="round" stroke-linejoin="round" d="M 1057.017456 442.125977 C 1050.758667 459.263 1048.672485 475.803894 1050.758667 490.407593 C 1055.527222 525.426697 1074.452393 558.955627 1096.060059 571.473083 C 1106.491211 577.284729 1109.322632 576.986694 1100.530518 570.876953 C 1080.413208 557.018372 1064.319336 525.724731 1059.699707 491.15271 C 1057.613525 476.250977 1058.358643 452.259155 1061.189941 438.996582 C 1063.872314 426.777222 1062.084106 428.267334 1057.017456 442.125977 Z"/>
        <path id="path41" fill="#ffffff" stroke="#000000" stroke-width="4" stroke-opacity="0.557038" stroke-linecap="round" stroke-linejoin="round" d="M 722.026306 444.510254 C 690.881714 454.047363 690.434631 454.345398 700.716858 455.537537 C 707.571716 456.431641 712.340271 455.686523 727.539978 451.514038 C 737.673157 448.682739 747.955383 445.702332 750.190613 444.808289 C 756.151367 442.424011 756.896423 442.722046 759.429688 447.639587 C 762.70813 454.047363 762.261047 458.964966 757.790527 462.392334 C 755.555237 464.180603 754.661133 465.521667 755.555237 465.521667 C 756.598389 465.521667 758.982666 463.882446 761.068909 461.796265 C 764.198242 458.666931 764.645325 457.176697 763.900208 453.153259 C 763.304138 450.470886 762.112061 447.192566 761.366943 445.702332 C 759.578735 442.125977 751.233765 437.208374 747.508362 437.357422 C 745.869141 437.506409 734.394836 440.635803 722.026306 444.510254 Z"/>
        <path id="path42" fill="#ffffff" stroke="#000000" stroke-width="4" stroke-opacity="0.557038" stroke-linecap="round" stroke-linejoin="round" d="M 807.115295 446.149414 C 798.174255 448.533752 786.103882 451.365051 780.441223 452.259155 C 772.096252 453.749329 770.755066 454.494446 772.692261 455.835571 C 774.629517 457.325745 779.249023 456.580627 795.64093 451.961121 C 817.099487 446.000366 829.467896 441.827942 825.742493 441.976929 C 824.550293 441.976929 816.205383 443.914185 807.115295 446.149414 Z"/>
        <path id="path43" fill="#ffffff" stroke="#000000" stroke-width="4" stroke-opacity="0.557038" stroke-linecap="round" stroke-linejoin="round" d="M 852.267578 447.192566 C 862.102722 459.859009 863.145874 467.607971 857.036133 480.125427 C 854.502869 485.042969 849.883301 491.450745 846.753906 494.282043 C 826.934631 512.164124 789.53125 525.426697 740.802551 531.685425 C 666.889893 541.222534 589.102844 537.199097 525.174377 520.658142 C 489.857269 511.419067 479.277008 507.544617 464.971375 498.156494 C 442.469757 483.403748 436.210999 470.886353 442.32074 453.153259 L 445.450073 444.510254 L 440.979553 448.682739 C 431.740479 457.325745 429.952271 467.160889 435.465942 478.337158 C 440.08548 488.023315 448.877502 494.878113 468.994843 504.56427 C 532.178223 534.665771 617.267151 546.885254 712.042236 539.285278 C 767.625732 534.814758 796.833069 527.960022 827.232666 512.313171 C 834.23645 508.736755 843.326538 503.074097 847.349976 499.646667 C 855.843933 492.642822 867.318298 475.505859 867.467346 469.992188 C 867.467346 464.478577 862.549744 454.79248 856.291016 447.788635 C 849.287231 440.188782 846.306824 439.741699 852.267578 447.192566 Z"/>
        <path id="path44" fill="#ffffff" stroke="#000000" stroke-width="4" stroke-opacity="0.557038" stroke-linecap="round" stroke-linejoin="round" d="M 879.984802 444.957336 C 878.792664 449.129822 881.922058 451.365051 891.608154 453.451294 C 913.215698 458.219849 946.744629 451.812073 938.250549 444.659302 C 936.462402 443.169067 934.674194 443.169067 930.352661 444.361267 C 918.13324 447.937622 908.745178 447.937622 895.18457 444.808289 C 888.031738 443.020081 881.922058 441.678894 881.624023 441.678894 C 881.325989 441.678894 880.580872 443.169067 879.984802 444.957336 Z"/>
        <path id="path45" fill="#ffffff" stroke="#000000" stroke-width="4" stroke-opacity="0.557038" stroke-linecap="round" stroke-linejoin="round" d="M 547.97406 450.321899 C 553.785706 455.537537 565.707092 462.839417 572.114868 465.372681 C 581.353943 469.098083 582.248047 468.352966 573.903076 464.031494 C 570.624695 462.392334 563.769897 458.368896 558.852295 455.090454 C 550.656372 449.874878 543.950562 446.894531 547.97406 450.321899 Z"/>
        <path id="path46" fill="#ffffff" stroke="#000000" stroke-width="4" stroke-opacity="0.557038" stroke-linecap="round" stroke-linejoin="round" d="M 531.433105 457.02771 C 532.92334 460.753113 546.632935 467.458923 560.342529 470.886353 C 581.353943 476.250977 581.204895 475.207825 559.74646 467.160889 C 549.166199 463.286438 538.138855 458.964966 535.605591 457.623779 C 532.178223 455.835571 530.986084 455.686523 531.433105 457.02771 Z"/>
        <path id="path47" fill="#ffffff" stroke="#000000" stroke-width="4" stroke-opacity="0.557038" stroke-linecap="round" stroke-linejoin="round" d="M 509.080475 460.306091 C 517.127441 467.309937 537.244812 475.952942 552.44458 479.082275 C 560.342529 480.721497 567.048279 481.764587 567.346313 481.466553 C 567.644348 481.168518 557.064087 476.996033 543.801575 472.227478 C 530.390015 467.458923 516.233337 461.945313 512.060852 460.008057 L 504.609955 456.431641 L 509.080475 460.306091 Z"/>
        <path id="path48" fill="#ffffff" stroke="#000000" stroke-width="4" stroke-opacity="0.557038" stroke-linecap="round" stroke-linejoin="round" d="M 692.073853 458.964966 C 691.775818 460.008057 691.626831 462.690369 691.924866 464.925598 C 692.2229 468.502075 693.266052 469.247131 698.332642 470.290222 C 706.528564 472.078491 707.720703 471.184387 706.677612 464.478577 C 705.783447 459.113953 705.336426 458.815918 699.226685 457.921814 C 694.756165 457.325745 692.669922 457.623779 692.073853 458.964966 Z"/>
        <path id="path49" fill="#ffffff" stroke="#000000" stroke-width="4" stroke-opacity="0.557038" stroke-linecap="round" stroke-linejoin="round" d="M 445.897125 461.051147 C 445.748108 472.227478 460.798889 488.768433 478.979004 497.411377 C 499.096375 506.7995 540.821228 517.677795 581.353943 523.787537 C 600.279175 526.767883 609.220215 527.214905 652.882263 527.214905 C 705.63446 527.363953 718.896973 526.469788 755.40625 519.763977 C 790.425354 513.356323 812.479919 505.756348 830.809082 493.835022 C 842.283386 486.384155 848.691162 478.784241 850.330383 470.737305 C 851.224426 467.011902 850.479309 467.607971 846.902893 473.866638 C 839.154053 486.831238 824.252258 497.113342 800.856567 505.607361 C 760.770874 520.21106 689.98761 528.55603 634.10614 525.277649 C 595.361572 522.893433 540.076111 513.803345 507.292297 504.266235 C 476.743744 495.474243 454.987183 480.721497 448.877502 464.925598 C 446.642242 459.411926 445.897125 458.368896 445.897125 461.051147 Z"/>
        <path id="path50" fill="#ffffff" stroke="#000000" stroke-width="4" stroke-opacity="0.557038" stroke-linecap="round" stroke-linejoin="round" d="M 487.472992 462.541382 C 489.708252 466.564819 507.292297 476.549011 518.766663 480.274414 C 532.476257 484.595947 553.189636 487.874268 565.558044 487.725281 L 576.138306 487.427246 L 561.981689 485.490051 C 540.970215 482.360718 499.692444 468.949097 491.347443 462.392334 C 486.727905 458.815918 485.535767 458.815918 487.472992 462.541382 Z"/>
        <path id="path51" fill="#ffffff" stroke="#000000" stroke-width="4" stroke-opacity="0.557038" stroke-linecap="round" stroke-linejoin="round" d="M 727.390991 473.270569 C 720.983276 475.505859 716.363708 476.101929 706.826599 475.654907 C 700.120789 475.505859 694.607117 475.356873 694.607117 475.654907 C 694.607117 476.697998 698.481628 482.807678 699.822754 483.701782 C 700.716858 484.297913 704.144226 484.893982 707.571716 484.893982 C 710.999084 484.893982 714.128418 485.639038 714.5755 486.68219 C 715.320557 488.172302 715.618652 488.172302 716.363708 486.68219 C 716.810791 485.788086 718.151917 484.893982 719.344055 484.893982 C 723.963562 484.893982 733.500732 479.976379 732.755615 477.890198 C 732.308533 476.847046 733.202637 474.611755 734.841858 472.972595 C 738.418274 469.396118 737.822205 469.396118 727.390991 473.270569 Z M 726.943909 479.678345 C 723.665527 482.062683 712.787231 484.148865 711.297119 482.658691 C 710.10498 481.466553 714.128418 478.933228 716.959778 479.231262 C 718.151917 479.231262 720.238159 478.933228 721.430298 478.486206 C 728.58313 475.803894 731.414429 476.399963 726.943909 479.678345 Z M 707.124634 479.827393 C 711.148132 481.317566 709.806946 483.552795 705.485413 482.509644 C 699.971802 481.168518 697.587524 478.933228 701.610962 478.933228 C 703.399231 478.933228 705.783447 479.38031 707.124634 479.827393 Z"/>
        <path id="path52" fill="#ffffff" stroke="#000000" stroke-width="4" stroke-opacity="0.557038" stroke-linecap="round" stroke-linejoin="round" d="M 1009.778931 487.427246 C 998.304565 491.897766 967.159973 504.415283 940.48584 514.995422 C 913.811768 525.575684 880.282837 538.838257 865.977173 544.351868 C 831.852234 557.465393 756.151367 587.268921 728.881165 598.44519 C 716.959778 603.213745 704.591309 607.535278 701.16394 608.131348 C 696.097351 608.727417 685.815125 605.896118 637.831543 590.249268 C 606.388916 579.967041 564.515015 566.406433 544.844666 560.147766 C 525.174377 553.889038 487.02594 541.371582 459.904785 532.579529 C 432.932648 523.638428 406.407532 515.14447 401.042908 513.50531 C 395.678284 511.866089 379.733429 506.650513 365.576752 502.030945 C 351.271088 497.411377 339.498718 493.835022 339.200714 494.133057 C 338.902679 494.282043 338.455597 497.26239 338.30658 500.391785 L 337.71051 506.352417 L 410.729034 530.493286 C 450.963745 543.755798 500.139435 559.849731 520.256775 566.108398 C 540.374146 572.367188 587.016602 587.417969 623.823914 599.339294 C 677.321106 616.774353 692.520935 621.244873 699.077637 621.244873 C 706.23053 621.244873 717.108826 617.370422 786.252808 589.653198 C 829.76593 572.367188 886.690613 549.716553 912.917664 539.285278 C 939.144714 529.003113 976.846069 514.101379 996.814453 506.20343 L 1032.876587 491.748718 L 1032.876587 485.341003 C 1032.876587 481.764587 1032.429565 478.933228 1031.833496 479.082275 C 1031.088501 479.082275 1021.253235 482.807678 1009.778931 487.427246 Z"/>
        <path id="path53" fill="#ffffff" stroke="#000000" stroke-width="4" stroke-opacity="0.557038" stroke-linecap="round" stroke-linejoin="round" d="M 347.396637 544.500916 C 347.396637 545.246033 345.608459 545.991089 343.373199 545.991089 C 340.988892 545.991089 339.94577 546.587097 340.839874 547.332214 C 341.882996 548.524353 390.164612 565.363342 421.160248 575.496521 C 426.07785 577.135742 458.563629 588.460999 493.433685 600.829529 C 528.303772 613.197937 562.428711 624.672302 569.432556 626.311462 C 576.43634 627.950684 584.185242 630.036865 586.56958 630.930969 C 589.102844 631.825134 590.444031 631.974121 589.549866 631.229004 C 586.56958 628.397705 518.468628 602.170593 454.689148 579.519958 C 423.991608 568.641724 349.184845 543.010742 347.843719 543.010742 C 347.545654 543.010742 347.396637 543.606812 347.396637 544.500916 Z"/>
        <path id="path54" fill="#ffffff" stroke="#000000" stroke-width="4" stroke-opacity="0.557038" stroke-linecap="round" stroke-linejoin="round" d="M 958.36792 557.763428 C 906.509888 576.09259 777.460815 630.483948 784.911743 630.781982 C 785.805847 630.930969 798.174255 626.907532 812.479919 622.138977 C 838.408936 613.346924 886.094543 593.97467 921.113586 578.029846 C 931.395813 573.410278 948.085754 565.959412 958.218933 561.488892 C 988.618469 548.077332 988.618469 547.03418 958.36792 557.763428 Z"/>
        <path id="path55" fill="#ffffff" stroke="#000000" stroke-width="4" stroke-opacity="0.557038" stroke-linecap="round" stroke-linejoin="round" d="M 992.940002 571.920105 C 973.716736 579.669006 957.622864 586.374817 957.175781 586.821838 C 955.387634 588.610046 992.49292 587.566956 1002.179016 585.480713 C 1007.692688 584.288513 1016.931763 581.15918 1022.594421 578.625916 L 1032.876587 573.857361 L 1032.876587 565.959412 C 1032.876587 559.253662 1032.429565 557.912476 1030.343384 557.912476 C 1028.853149 557.912476 1012.01416 564.320251 992.940002 571.920105 Z"/>
        <path id="path56" fill="#ffffff" stroke="#000000" stroke-width="4" stroke-opacity="0.557038" stroke-linecap="round" stroke-linejoin="round" d="M 331.898834 563.2771 C 330.557678 566.704468 330.855713 579.967041 332.196899 580.861145 C 332.792938 581.15918 338.30658 582.798401 344.41629 584.437561 C 354.847534 587.119934 356.635712 587.268921 371.984497 585.331665 C 393.443024 582.500366 394.18811 582.202332 386.141174 578.625916 C 379.733429 575.645508 336.07132 560.892822 333.83606 560.892822 C 333.23999 560.892822 332.345886 561.935913 331.898834 563.2771 Z"/>
        <path id="path57" fill="#ffffff" stroke="#000000" stroke-width="4" stroke-opacity="0.557038" stroke-linecap="round" stroke-linejoin="round" d="M 1017.974915 595.911926 C 1011.865173 597.849121 999.198669 600.084412 990.108643 601.127563 C 980.869568 602.170593 973.716736 603.51178 974.014771 604.256897 C 974.461853 604.852966 979.826416 606.492188 986.085205 607.833313 C 1004.861389 612.154785 1022.892456 607.535278 1028.853149 596.955078 C 1030.343384 594.421753 1031.088501 592.33551 1030.343384 592.33551 C 1029.747314 592.484558 1024.084595 594.123718 1017.974915 595.911926 Z"/>
        <path id="path58" fill="#ffffff" stroke="#000000" stroke-width="4" stroke-opacity="0.557038" stroke-linecap="round" stroke-linejoin="round" d="M 341.733978 601.127563 C 347.24762 605.449036 353.655365 607.088196 365.1297 607.088196 C 376.306 607.088196 385.098022 604.703918 388.674469 600.829529 C 391.058746 598.147156 390.909729 597.998108 378.54126 599.190308 C 362.447388 600.680481 352.761292 600.680481 344.41629 599.04126 L 337.71051 597.849121 L 341.733978 601.127563 Z"/>
        <path id="path59" fill="#ffffff" stroke="#000000" stroke-width="4" stroke-opacity="0.557038" stroke-linecap="round" stroke-linejoin="round" d="M 1057.166504 608.131348 C 1058.50769 614.68811 1055.229248 624.821228 1050.013672 630.3349 L 1045.245117 635.401489 L 977.591187 635.550537 C 940.336853 635.699524 902.635437 636.146606 893.545349 636.742676 L 877.153503 637.63678 L 877.153503 642.1073 L 877.153503 646.57782 L 1018.719971 646.57782 L 1160.286499 646.57782 L 1160.733643 643.001465 C 1161.031494 641.064209 1160.584595 638.828979 1159.839478 638.083862 C 1158.945435 637.189758 1141.659424 636.295654 1117.518433 635.848572 L 1076.836792 635.252502 L 1071.770264 631.080017 C 1065.6604 626.311462 1061.189941 618.264526 1060.146851 610.068604 C 1059.699707 606.790161 1058.656616 604.107849 1057.911621 604.107849 C 1057.017456 604.107849 1056.71936 605.896118 1057.166504 608.131348 Z"/>
        <path id="path60" fill="#ffffff" stroke="#000000" stroke-width="4" stroke-opacity="0.557038" stroke-linecap="round" stroke-linejoin="round" d="M 647.070618 625.566345 C 647.368652 626.013428 657.05481 630.036865 668.529114 634.656433 C 693.415039 644.789612 698.034607 645.087646 715.916687 636.444641 C 722.175354 633.464294 727.987061 630.930969 728.732117 630.930969 C 729.626282 630.930969 730.520386 630.3349 730.967346 629.589905 C 731.414429 628.844788 726.049866 629.887878 718.896973 631.825134 C 701.16394 636.742676 691.775818 636.444641 667.933044 630.185913 C 647.219666 624.821228 646.027466 624.523254 647.070618 625.566345 Z"/>
        <path id="path61" fill="#ffffff" stroke="#000000" stroke-width="4" stroke-opacity="0.557038" stroke-linecap="round" stroke-linejoin="round" d="M 161.869995 630.930969 C 156.356354 637.04071 164.254272 646.726868 171.705139 642.852417 C 178.410919 639.126953 175.57959 627.950684 167.830688 627.950684 C 166.04248 627.950684 163.360168 629.291748 161.869995 630.930969 Z"/>
        <path id="path62" fill="#ffffff" stroke="#000000" stroke-width="4" stroke-opacity="0.557038" stroke-linecap="round" stroke-linejoin="round" d="M 1203.799561 629.738831 C 1199.776123 632.868225 1200.074097 638.381897 1204.39563 641.660278 C 1207.525024 644.044495 1209.015137 644.342529 1211.399414 643.001465 C 1215.720947 640.617126 1216.913086 635.997559 1214.081787 631.676086 C 1211.399414 627.652649 1207.674072 626.907532 1203.799561 629.738831 Z"/>
        <path id="path63" fill="#ffffff" stroke="#000000" stroke-width="4" stroke-opacity="0.557038" stroke-linecap="round" stroke-linejoin="round" d="M 246.809891 636.891724 C 215.367233 637.63678 212.535904 637.785828 212.088867 640.319092 C 210.598679 647.620972 205.234039 647.322937 355.59259 647.322937 C 481.959351 647.322937 496.265015 647.024902 498.053223 644.938599 C 499.394409 643.2995 499.543396 641.958313 498.351257 640.170044 C 497.010101 637.785828 487.472992 637.63678 388.972504 636.891724 C 329.663574 636.444641 265.735107 636.444641 246.809891 636.891724 Z"/>
        <path id="path64" fill="#ffffff" stroke="#000000" stroke-width="4" stroke-opacity="0.557038" stroke-linecap="round" stroke-linejoin="round" d="M 669.274231 652.6875 C 693.415039 661.777649 694.607117 661.926575 706.528564 657.903137 C 712.340271 655.965942 716.661743 654.028687 716.363708 653.730652 C 716.065674 653.432617 711.446167 654.326721 705.932495 655.816895 L 696.097351 658.350159 L 679.40741 653.432617 C 656.309692 646.57782 652.435242 646.279785 669.274231 652.6875 Z"/>
        <path id="path65" fill="#ffffff" stroke="#000000" stroke-width="4" stroke-opacity="0.557038" stroke-linecap="round" stroke-linejoin="round" d="M 605.941833 688.0047 C 579.267761 695.008484 563.173828 719.000305 567.942383 744.4823 C 571.369751 762.066345 581.353943 774.881836 601.769348 787.250244 C 639.917786 810.794983 643.941223 814.371399 643.941223 826.143799 C 643.941223 838.661255 636.490356 845.069031 620.247498 846.559143 C 605.643799 847.90033 589.549866 841.939636 574.648193 829.869202 L 566.303162 823.014404 L 567.346313 843.578796 C 568.091431 859.970703 568.836487 864.590332 570.773682 866.080444 C 574.797241 869.358887 591.785156 873.978394 605.792786 875.617554 C 638.427612 879.492004 664.207642 868.911743 674.787842 847.30426 C 678.513306 839.555359 678.960327 837.320068 678.960327 822.418396 C 678.960327 806.622498 678.81134 805.728394 673.893738 796.638306 C 667.336975 784.567932 657.203735 775.626892 636.788391 763.556458 C 610.859436 748.207703 603.706543 741.203857 603.706543 731.219666 C 603.706543 721.682556 612.647583 715.870911 627.251282 715.870911 C 640.960876 715.870911 648.709778 718.851257 664.654663 730.325623 L 668.082031 732.858887 L 667.03894 720.341431 C 666.442932 713.337585 665.548767 704.69458 664.952698 700.969177 L 664.058594 694.263367 L 653.62738 690.835999 C 640.662842 686.514465 617.118103 685.173279 605.941833 688.0047 Z"/>
        <path id="path66" fill="#ffffff" stroke="#000000" stroke-width="4" stroke-opacity="0.557038" stroke-linecap="round" stroke-linejoin="round" d="M 1001.583008 688.153687 C 956.728699 697.690796 928.564514 731.070679 926.031189 777.862122 C 924.540955 805.579346 933.481995 830.763367 951.364136 848.943481 C 966.414856 864.143188 982.955811 872.041138 1006.649597 875.319519 C 1028.704102 878.448853 1060.444824 874.425415 1081.456299 866.080444 L 1090.248413 862.653076 L 1090.993408 827.633911 C 1091.887573 788.740417 1092.483643 785.611084 1101.871582 779.948425 L 1106.640259 776.968018 L 1067.895752 776.968018 L 1029.151245 777.117065 L 1037.347168 780.395447 C 1042.711792 782.630676 1046.586182 785.313049 1048.821533 788.740417 C 1052.099854 793.508972 1052.248901 795.29718 1052.248901 818.692871 C 1052.248901 847.453247 1053.888062 844.770996 1035.111938 846.410156 C 1007.990723 848.794434 983.551819 835.829956 972.97168 813.328247 C 960.752258 787.399231 965.07373 754.615417 982.955811 735.392151 C 995.026245 722.57666 1010.524048 715.870911 1028.406128 715.870911 C 1045.096069 715.870911 1066.25647 723.917847 1076.687744 734.34906 L 1082.499512 740.160706 L 1081.605347 732.11377 C 1081.009277 727.64325 1080.562134 718.255188 1080.562134 711.251404 L 1080.562134 698.286804 L 1073.558472 695.306519 C 1058.656616 689.047791 1050.16272 687.259583 1030.641357 686.663513 C 1017.825867 686.365479 1007.990723 686.8125 1001.583008 688.153687 Z"/>
        <path id="path67" fill="#ffffff" stroke="#000000" stroke-width="4" stroke-opacity="0.557038" stroke-linecap="round" stroke-linejoin="round" d="M 125.95681 694.412415 C 128.043045 696.647705 130.427338 700.820129 131.321426 703.800476 C 132.21553 707.078918 132.811615 737.627441 132.811615 781.88562 C 132.811615 859.970703 132.811615 860.71582 125.062706 868.911743 L 121.933334 872.339111 L 151.140747 872.339111 L 180.348145 872.339111 L 176.771729 868.762817 C 171.407104 863.398071 170.065948 855.798218 170.065948 830.465271 L 170.065948 807.218567 L 187.351959 807.06958 C 227.437653 806.622498 248.300079 791.720764 253.813705 759.383972 C 258.433289 732.262817 246.958908 708.420044 224.457291 697.839844 C 212.535904 692.177185 196.889084 690.537964 155.313232 690.537964 L 121.933334 690.537964 L 125.95681 694.412415 Z M 202.849777 721.682556 C 213.131973 726.898193 218.943665 741.65094 216.261353 756.105591 C 212.684921 774.58374 203.147812 781.438538 180.199127 781.438538 L 170.065948 781.438538 L 170.065948 750.293945 L 170.065948 719.000305 L 174.983521 718.404175 C 183.179489 717.361084 197.485153 719.000305 202.849777 721.682556 Z"/>
        <path id="path68" fill="#ffffff" stroke="#000000" stroke-width="4" stroke-opacity="0.557038" stroke-linecap="round" stroke-linejoin="round" d="M 271.695801 694.561401 C 273.782043 696.94574 276.166321 700.969177 277.209442 703.800476 C 279.295715 710.059265 279.444702 849.241516 277.507477 858.033508 C 276.762421 861.162842 274.229126 865.633362 271.993866 868.0177 L 267.821381 872.339111 L 297.326813 872.339111 L 326.981262 872.339111 L 323.106781 868.61377 C 317.59317 862.95105 316.102966 854.308105 316.102966 826.143799 L 316.102966 800.661804 L 322.212708 801.108826 L 328.322418 801.555908 L 340.690857 821.673279 C 347.396637 832.7005 357.082794 848.645447 362.149353 856.990356 L 371.537445 872.339111 L 395.380249 872.339111 L 419.223022 872.339111 L 414.603485 868.61377 C 410.878052 865.335327 370.047272 802.748047 367.513977 796.191284 C 366.917908 794.403076 367.96106 793.210938 371.537445 791.720764 C 379.435394 788.591431 390.611694 776.968018 394.78418 768.026978 C 398.211578 760.874146 398.65863 757.744812 398.65863 744.184265 C 398.807617 730.027588 398.360596 727.792297 394.635132 720.043396 C 387.035278 704.69458 372.133514 695.008484 351.12207 691.879089 C 346.204498 691.134033 325.491089 690.537964 305.075684 690.537964 L 267.821381 690.537964 L 271.695801 694.561401 Z M 347.396637 722.129639 C 357.082794 727.04718 361.25528 735.541199 360.361145 748.95282 C 359.169037 768.026978 350.526031 775.626892 329.216522 776.669983 L 316.102966 777.266052 L 316.102966 748.058716 L 316.102966 718.851257 L 328.471436 718.851257 C 338.30658 718.851257 342.18103 719.596375 347.396637 722.129639 Z"/>
        <path id="path69" fill="#ffffff" stroke="#000000" stroke-width="4" stroke-opacity="0.557038" stroke-linecap="round" stroke-linejoin="round" d="M 436.509033 693.965332 C 438.446259 695.902588 440.532501 699.777039 441.277588 702.608398 C 443.363831 709.761169 443.214813 850.433594 441.128571 858.182556 C 440.234497 861.460876 437.701202 865.931396 435.61496 868.166626 L 431.740479 872.339111 L 487.02594 872.339111 L 542.162415 872.339111 L 545.440735 855.500244 C 547.228943 846.410156 549.166199 837.320068 549.61322 835.531921 C 550.358337 832.402466 549.762268 832.551514 540.076111 837.469116 L 529.644897 842.83374 L 504.90799 843.578796 L 480.022125 844.472961 L 480.022125 818.096802 L 480.022125 791.869751 L 501.0336 791.869751 C 521.15094 791.869751 526.813599 792.912903 529.49585 796.93634 C 530.09198 797.830505 530.688049 789.336487 530.688049 778.160156 L 530.688049 757.595825 L 525.919495 760.576111 C 521.597961 763.109375 518.31958 763.556458 500.586517 763.556458 L 480.022125 763.556458 L 480.022125 741.203857 L 480.022125 718.851257 L 498.500244 718.851257 C 519.95874 718.851257 530.688049 720.490479 536.946777 724.960999 L 541.417297 728.23938 L 540.523193 719.447327 C 540.076111 714.678772 539.331055 706.184814 538.734924 700.522095 L 537.84082 690.537964 L 485.535767 690.537964 L 433.3797 690.537964 L 436.509033 693.965332 Z"/>
        <path id="path70" fill="#ffffff" stroke="#000000" stroke-width="4" stroke-opacity="0.557038" stroke-linecap="round" stroke-linejoin="round" d="M 694.011108 696.796692 C 693.564087 700.373108 692.81897 709.612183 692.2229 717.361084 L 691.328796 731.5177 L 694.905151 728.388367 C 702.058044 721.682556 708.018677 719.894409 725.453796 719.149292 L 742.292725 718.404175 L 742.292725 786.058105 C 742.292725 826.888916 741.696655 855.798218 740.802551 859.07666 C 739.908447 862.057007 737.52417 866.229431 735.437866 868.464722 L 731.414429 872.339111 L 760.621887 872.339111 L 789.829285 872.339111 L 786.252808 868.762817 C 779.994141 862.504028 779.547058 857.288391 779.547058 786.207092 L 779.547058 718.851257 L 794.150818 718.851257 C 811.138733 718.851257 817.993591 720.490479 824.401306 726.00415 L 829.169861 730.027588 L 828.275757 720.490479 C 827.679749 715.274841 827.232666 706.333801 827.232666 700.820129 L 827.232666 690.537964 L 761.068909 690.537964 L 694.756165 690.537964 L 694.011108 696.796692 Z"/>
        <path id="path71" fill="#ffffff" stroke="#000000" stroke-width="4" stroke-opacity="0.557038" stroke-linecap="round" stroke-linejoin="round" d="M 846.604858 692.028137 C 846.604858 692.773254 847.200928 693.518311 848.095093 693.518311 C 848.840149 693.518311 850.926392 696.200623 852.565613 699.479004 C 855.545898 705.439697 855.694946 707.674927 855.545898 781.736572 C 855.545898 863.845215 855.396912 864.590332 847.499023 870.103882 C 844.816711 872.041138 847.64801 872.339111 874.024048 872.339111 L 903.529541 872.339111 L 899.65509 867.719604 C 897.568848 865.186401 895.333618 861.31189 894.588501 859.225586 C 893.992432 856.990356 893.545349 821.673279 893.545349 780.693481 L 893.545349 706.184814 L 896.972778 699.777039 C 898.760986 696.349609 900.996277 693.518311 901.741333 693.518311 C 902.635437 693.518311 903.231506 692.773254 903.231506 692.028137 C 903.231506 691.134033 892.800293 690.537964 874.918213 690.537964 C 857.036133 690.537964 846.604858 691.134033 846.604858 692.028137 Z"/>
        <path id="path72" fill="#ffffff" stroke="#000000" stroke-width="4" stroke-opacity="0.557038" stroke-linecap="round" stroke-linejoin="round" d="M 1127.800781 693.816284 C 1135.102539 701.863281 1134.953613 700.373108 1135.400513 777.4151 C 1135.847656 857.586487 1135.400513 862.802002 1127.353638 869.209839 L 1123.3302 872.339111 L 1179.956787 872.339111 L 1236.434326 872.339111 L 1240.308838 852.519836 C 1242.395142 841.790588 1244.034302 832.7005 1243.736206 832.402466 C 1243.438232 832.104431 1240.755859 833.445618 1237.477539 835.531921 C 1227.493286 841.790588 1222.128784 842.83374 1197.242798 843.578796 L 1172.953003 844.472961 L 1172.953003 818.096802 L 1172.953003 791.869751 L 1194.262451 791.869751 C 1212.740601 791.869751 1216.019043 792.316833 1220.340454 794.850159 L 1225.109009 797.830505 L 1225.109009 777.713135 L 1225.109009 757.595825 L 1220.340454 760.576111 C 1216.019043 763.109375 1212.740601 763.556458 1194.262451 763.556458 L 1172.953003 763.556458 L 1172.953003 741.203857 L 1172.953003 718.851257 L 1191.431152 718.851257 C 1212.740601 718.851257 1223.618896 720.490479 1229.728516 724.960999 L 1234.050171 728.090332 L 1233.156006 711.102356 C 1232.708984 701.863281 1232.112915 693.369324 1231.665894 692.326172 C 1231.21875 690.984985 1219.148315 690.537964 1178.019653 690.537964 L 1124.820435 690.537964 L 1127.800781 693.816284 Z"/>
        <path id="path73" fill="#ffffff" stroke="#000000" stroke-width="4" stroke-opacity="0.557038" stroke-linecap="round" stroke-linejoin="round" d="M 461.096893 915.405212 C 453.199005 919.130615 448.728485 925.985474 448.728485 934.628418 C 448.728485 946.549805 454.838165 953.404663 472.571228 961.451599 C 477.935883 963.835876 483.151489 966.816162 484.194611 968.157349 C 487.174957 971.584717 485.833801 975.608215 481.065247 977.843506 C 475.84964 980.37677 464.226288 977.992493 458.414612 973.372925 C 456.179352 971.733765 454.242096 970.541626 454.093079 970.839722 C 453.795074 971.137695 452.006836 974.416077 450.218628 977.992493 L 446.940277 984.549316 L 450.367645 987.380615 C 452.304871 988.870789 457.222443 991.106079 461.245911 992.298157 C 475.551605 996.619629 488.814148 994.533447 497.60614 986.337524 C 502.821777 981.56897 503.119812 980.972839 503.119812 971.584717 C 503.119812 962.941772 502.672729 961.451599 498.649292 957.130066 C 496.265015 954.596741 488.814148 949.828247 482.108368 946.698853 C 470.335968 941.185181 465.120392 937.608765 465.120392 934.777466 C 465.120392 934.032349 466.461548 932.095093 468.100708 930.455933 C 472.124207 926.432495 483.449524 926.432495 490.304321 930.60498 C 492.986603 932.244141 495.370941 933.436279 495.668945 933.138306 C 495.817963 932.84021 497.457184 929.412842 499.096375 925.53833 L 502.225739 918.385498 L 496.712067 915.852234 C 488.069061 912.126831 468.845825 911.828735 461.096893 915.405212 Z"/>
        <path id="path74" fill="#ffffff" stroke="#000000" stroke-width="4" stroke-opacity="0.557038" stroke-linecap="round" stroke-linejoin="round" d="M 564.962036 914.362061 C 562.130676 915.107178 557.064087 917.491455 553.785706 919.726685 C 532.92334 934.032349 531.73114 966.96521 551.252441 984.102234 C 566.303162 997.513794 591.934204 997.960815 608.624146 985.145325 C 615.627991 979.929749 621.737671 967.710327 622.631775 957.428101 C 625.016052 931.350098 606.537903 912.275879 579.267761 912.7229 C 574.350159 912.871948 567.793335 913.467957 564.962036 914.362061 Z M 592.977356 931.499084 C 600.279175 936.863708 602.812439 941.930298 603.408508 951.765442 C 604.302612 967.859314 595.51062 978.141479 580.757874 978.141479 C 570.177612 978.141479 563.471863 974.416077 559.448425 966.220154 C 552.593567 952.808594 557.064087 937.161743 569.432556 930.754028 C 577.330505 926.73053 586.867615 927.028564 592.977356 931.499084 Z"/>
        <path id="path75" fill="#ffffff" stroke="#000000" stroke-width="4" stroke-opacity="0.557038" stroke-linecap="round" stroke-linejoin="round" d="M 659.140991 944.61261 C 659.588074 975.90625 659.588074 976.204285 663.611511 982.165039 C 668.380066 989.466797 675.234924 992.894287 687.603333 994.086365 C 704.591309 995.576538 718.449951 989.168823 722.920471 977.545471 C 723.814575 975.161194 724.559692 961.004517 724.559692 943.271423 L 724.559692 913.31897 L 715.916687 913.31897 L 707.273682 913.31897 L 706.528564 942.526367 C 705.932495 968.60437 705.485413 972.180786 702.952148 975.012207 C 699.226685 979.035645 691.328796 980.525757 685.51709 977.992493 C 677.917236 974.863159 676.725037 969.796509 676.725037 939.546021 L 676.725037 912.871948 L 667.63501 912.871948 L 658.69397 913.020935 L 659.140991 944.61261 Z"/>
        <path id="path76" fill="#ffffff" stroke="#000000" stroke-width="4" stroke-opacity="0.557038" stroke-linecap="round" stroke-linejoin="round" d="M 763.155212 952.957581 L 763.155212 993.043274 L 772.245178 993.043274 L 781.186279 993.043274 L 780.739258 967.710327 C 780.441223 953.702637 780.292175 942.377319 780.441223 942.377319 C 780.59021 942.377319 788.190063 953.702637 797.429138 967.710327 L 814.268127 993.043274 L 822.166077 993.043274 L 830.213013 993.043274 L 830.213013 952.808594 L 830.213013 912.7229 L 822.017029 912.871948 L 813.821045 913.169922 L 813.821045 937.608765 L 813.821045 962.196655 L 805.923157 949.679199 C 801.601624 942.824402 794.299805 931.648071 789.829285 924.942261 L 781.782288 912.7229 L 772.543213 912.7229 L 763.155212 912.871948 L 763.155212 952.957581 Z"/>
        <path id="path77" fill="#ffffff" stroke="#000000" stroke-width="4" stroke-opacity="0.557038" stroke-linecap="round" stroke-linejoin="round" d="M 868.808533 912.7229 C 868.808533 913.020935 868.510498 931.350098 868.063416 953.404663 L 867.467346 993.341309 L 888.776794 992.745239 C 912.321594 992.14917 917.388184 990.51001 926.627258 980.823853 C 933.631042 973.521973 936.01532 966.518188 936.01532 953.255615 C 936.01532 944.165527 935.270264 939.993042 932.438965 934.181396 C 925.286072 918.832581 915.897949 914.362061 888.329773 913.020935 C 877.749573 912.573853 868.957458 912.424866 868.808533 912.7229 Z M 908.000061 931.350098 C 917.388184 936.118652 921.113586 954.447754 915.30188 967.114258 C 912.023499 974.416077 904.274658 978.141479 892.800293 978.141479 L 885.349426 978.141479 L 885.349426 953.851685 C 885.349426 940.440125 885.647461 929.114807 886.094543 928.667725 C 887.435608 927.326538 903.976624 929.263794 908.000061 931.350098 Z"/>
        <path id="path78" fill="#ffffff" stroke="#000000" stroke-width="4" stroke-opacity="0.557038" stroke-linecap="round" stroke-linejoin="round" d="M 136.089996 924.793274 C 135.046875 925.836426 134.301773 927.624634 134.301773 928.96582 C 134.301773 934.926514 132.811615 934.926514 272.291901 934.926514 C 392.54892 934.926514 407.003601 934.628418 409.089844 932.542236 C 412.07019 929.710815 412.07019 928.220703 409.089844 925.389343 C 407.003601 923.303101 392.54892 923.005066 272.291901 923.005066 C 169.767914 923.005066 137.431152 923.452148 136.089996 924.793274 Z"/>
        <path id="path79" fill="#ffffff" stroke="#000000" stroke-width="4" stroke-opacity="0.557038" stroke-linecap="round" stroke-linejoin="round" d="M 974.163818 925.389343 C 972.822632 926.581543 971.77948 928.220703 971.77948 928.96582 C 971.77948 929.710815 972.822632 931.350098 974.163818 932.542236 C 976.25 934.628418 990.257629 934.926514 1106.640259 934.926514 C 1233.901123 934.926514 1237.030396 934.926514 1238.52063 932.095093 C 1240.457764 928.369751 1240.457764 928.071655 1237.626465 925.389343 C 1235.540283 923.303101 1221.532715 923.005066 1105.895264 923.005066 C 990.257629 923.005066 976.25 923.303101 974.163818 925.389343 Z"/>
        <path id="path80" fill="#ffffff" stroke="#000000" stroke-width="4" stroke-opacity="0.557038" stroke-linecap="round" stroke-linejoin="round" d="M 187.650009 963.388794 C 184.520645 965.177002 184.22261 969.349487 186.755905 971.882813 C 188.097046 973.223938 212.684921 973.671021 288.087738 973.671021 C 383.160797 973.671021 387.631317 973.521973 388.972504 970.988647 C 390.015594 968.902466 389.866577 967.263245 388.227417 965.027954 L 385.992157 961.749634 L 288.087738 961.749634 C 224.308273 961.898621 189.289185 962.345703 187.650009 963.388794 Z"/>
        <path id="path81" fill="#ffffff" stroke="#000000" stroke-width="4" stroke-opacity="0.557038" stroke-linecap="round" stroke-linejoin="round" d="M 992.343933 963.388794 C 989.214539 965.177002 988.916504 969.349487 991.449829 971.882813 C 993.983093 974.416077 1188.003784 974.416077 1190.536987 971.882813 C 1193.21936 969.200439 1192.623291 965.027954 1189.493896 963.239746 C 1185.470459 961.153564 995.920349 961.302551 992.343933 963.388794 Z"/>
        <path id="path82" fill="#ffffff" stroke="#000000" stroke-width="4" stroke-opacity="0.557038" stroke-linecap="round" stroke-linejoin="round" d="M 327.428314 1004.964661 C 259.029327 1005.709717 252.919617 1005.858765 251.429428 1008.243042 C 250.237305 1010.329224 250.386322 1011.372437 252.174545 1013.160645 C 254.111771 1015.097839 263.201843 1015.395874 319.82843 1015.544922 C 415.050568 1015.693909 408.19574 1015.842896 409.83493 1012.564514 C 411.623138 1009.286133 409.238861 1005.560669 404.768341 1004.815674 C 403.12915 1004.517578 368.259094 1004.517578 327.428314 1004.964661 Z"/>
        <path id="path83" fill="#ffffff" stroke="#000000" stroke-width="4" stroke-opacity="0.557038" stroke-linecap="round" stroke-linejoin="round" d="M 965.669739 1008.243042 C 964.179626 1010.925354 964.477661 1011.819458 967.30896 1014.203735 C 970.438354 1016.737 975.355896 1016.885986 1044.798096 1016.885986 C 1115.879395 1016.885986 1119.008667 1016.737 1121.392944 1014.054688 C 1123.479248 1011.819458 1123.628174 1010.478271 1122.287109 1008.093994 C 1120.647827 1004.964661 1120.200806 1004.964661 1044.052979 1004.964661 L 967.458008 1004.964661 L 965.669739 1008.243042 Z"/>
        <path id="path84" fill="#ffffff" stroke="#000000" stroke-width="4" stroke-opacity="0.557038" stroke-linecap="round" stroke-linejoin="round" d="M 663.313477 1029.55249 C 644.835327 1033.427002 633.510071 1038.642578 617.565186 1050.563965 C 598.937988 1064.422607 585.37738 1083.7948 576.585388 1109.276855 C 571.96582 1122.688354 571.816833 1124.62561 571.816833 1144.295898 C 571.816833 1161.283936 572.412903 1167.542603 575.095215 1177.824829 C 586.122498 1218.804565 614.882874 1249.353149 654.372437 1261.572632 C 664.058594 1264.552979 668.529114 1265 688.646484 1265 C 709.955933 1264.850952 712.638306 1264.552979 723.665527 1260.827515 C 763.006165 1246.968872 789.382263 1218.357544 800.558533 1176.930664 C 805.327087 1159.34668 805.476074 1129.394165 800.70752 1113.151245 C 794.597839 1092.139893 785.209778 1076.045898 769.860962 1060.697144 C 758.535583 1049.222778 754.214111 1046.093506 742.292725 1040.281738 C 734.543823 1036.407349 724.11261 1032.234863 719.195007 1030.893677 C 706.975647 1027.615234 675.830933 1026.870239 663.313477 1029.55249 Z M 706.528564 1044.305298 C 743.782898 1052.203125 773.28833 1078.579224 785.06073 1114.492432 C 788.339111 1124.62561 788.935181 1129.096191 788.935181 1144.295898 C 789.084167 1165.754395 786.401855 1177.675781 777.75885 1195.706909 C 772.841248 1205.989136 769.264893 1210.75769 758.833618 1221.188843 C 747.955383 1232.067139 743.931946 1235.047485 731.861511 1240.859131 C 724.11261 1244.435547 714.5755 1248.310059 710.70105 1249.204102 C 665.101746 1259.93335 618.757324 1237.729858 597.298828 1194.812744 C 588.953796 1178.271851 586.718567 1167.840698 586.56958 1145.786133 C 586.56958 1124.178589 589.400879 1112.108154 598.192871 1095.120117 C 604.302612 1083.645752 623.972961 1063.67749 636.192322 1056.524658 C 657.799866 1044.007202 683.87793 1039.536621 706.528564 1044.305298 Z"/>
        <path id="path85" fill="#ffffff" stroke="#000000" stroke-width="4" stroke-opacity="0.557038" stroke-linecap="round" stroke-linejoin="round" d="M 671.956482 1074.85376 C 657.203735 1080.814453 648.262695 1090.649658 645.431396 1104.210205 C 643.941223 1111.214111 644.090271 1113.002197 646.474548 1117.770752 C 650.945068 1126.711792 658.0979 1131.331421 672.10553 1134.16272 C 693.266052 1138.335205 704.889343 1149.213501 705.038391 1164.860352 C 705.038391 1184.083496 687.454346 1200.17749 668.231079 1198.240234 C 659.140991 1197.346069 649.603882 1192.428467 646.772583 1187.361938 C 642.600098 1179.613037 645.729431 1168.883789 653.180298 1165.009277 C 658.69397 1162.177979 661.823364 1162.327026 665.846802 1166.201416 L 669.274231 1169.330811 L 669.274231 1166.201416 C 669.274231 1154.578125 647.5177 1151.44873 637.086426 1161.581909 C 625.910095 1172.311157 624.419983 1189.895264 633.659058 1199.581299 C 640.662842 1206.883179 647.964722 1210.310669 659.886108 1212.098877 C 679.109375 1214.781128 694.905151 1210.310669 706.23053 1198.985352 C 718.300903 1186.914917 723.069458 1166.797485 717.257751 1153.534912 C 715.469604 1149.660522 714.724487 1146.531128 715.320557 1146.531128 C 717.704834 1146.531128 727.838013 1157.70752 729.924316 1162.625 C 733.649719 1171.566162 732.755615 1184.381592 727.390991 1195.11084 C 720.685242 1208.969482 709.806946 1217.910522 696.097351 1221.188843 C 692.2229 1222.083008 693.415039 1222.231934 701.461975 1221.93396 C 720.983276 1221.039795 738.418274 1208.075317 744.528015 1189.597168 C 750.93573 1170.522949 740.355469 1148.766357 719.791077 1138.186157 L 712.042236 1134.311768 L 717.704834 1131.182373 C 720.834229 1129.394165 724.708679 1126.115723 726.3479 1123.880493 C 730.073303 1118.813965 731.414429 1105.700439 728.881165 1098.100586 C 726.496826 1090.947632 718.300903 1081.857666 709.806946 1076.940063 C 700.716858 1071.575439 682.387756 1070.532227 671.956482 1074.85376 Z M 702.505127 1087.520264 C 719.195007 1094.673096 721.579346 1115.386475 706.677612 1125.22168 C 702.207092 1128.202026 699.673706 1128.649048 687.007263 1128.649048 C 678.960327 1128.649048 670.764404 1127.904053 668.678162 1126.86084 C 657.799866 1121.943237 656.309692 1104.657227 665.99585 1093.779053 C 672.701599 1086.328125 691.775818 1082.900757 702.505127 1087.520264 Z"/>
        <path id="path86" fill="#ffffff" stroke="#000000" stroke-width="4" stroke-opacity="0.557038" stroke-linecap="round" stroke-linejoin="round" d="M 300.009094 1044.007202 C 297.624847 1046.391479 297.773834 1050.414917 300.307129 1052.501221 C 301.797333 1053.693359 338.455597 1053.991333 436.061981 1053.842285 C 561.683655 1053.395264 570.028564 1053.246338 571.518799 1050.713013 C 572.710938 1048.924805 572.710938 1047.43457 571.518799 1045.497314 C 570.028564 1043.113037 561.683655 1042.964111 435.763947 1042.51709 C 332.792938 1042.218994 301.350281 1042.666016 300.009094 1044.007202 Z"/>
        <path id="path87" fill="#ffffff" stroke="#000000" stroke-width="4" stroke-opacity="0.557038" stroke-linecap="round" stroke-linejoin="round" d="M 802.197693 1044.007202 C 799.813477 1046.391479 799.962402 1048.924805 802.793823 1051.756104 C 804.880005 1053.842285 819.185669 1054.140381 938.846619 1054.140381 C 1083.691528 1054.140381 1076.98584 1054.587402 1075.793701 1046.391479 L 1075.346558 1042.964111 L 939.740784 1042.51709 C 835.428589 1042.218994 803.538879 1042.666016 802.197693 1044.007202 Z"/>
        <path id="path88" fill="#ffffff" stroke="#000000" stroke-width="4" stroke-opacity="0.557038" stroke-linecap="round" stroke-linejoin="round" d="M 390.611694 1080.665527 C 390.611694 1082.751709 395.529266 1086.626221 401.48996 1089.159424 C 406.109497 1091.09668 417.13681 1091.394775 475.402588 1091.394775 C 543.950562 1091.394775 543.950562 1091.394775 546.185852 1088.116333 C 547.825012 1085.881104 547.97406 1084.241943 546.930969 1082.15564 C 545.589783 1079.622314 541.86438 1079.473389 468.100708 1079.473389 C 425.48175 1079.473389 390.611694 1080.069458 390.611694 1080.665527 Z"/>
        <path id="path89" fill="#ffffff" stroke="#000000" stroke-width="4" stroke-opacity="0.557038" stroke-linecap="round" stroke-linejoin="round" d="M 825.891479 1081.55957 C 823.805237 1084.092896 825.146423 1087.967285 828.871826 1089.904541 C 830.511047 1090.798584 858.079224 1091.394775 899.059021 1091.394775 C 952.109192 1091.245728 967.756042 1090.798584 972.226563 1089.308472 C 978.038269 1087.22229 983.700928 1083.049805 983.700928 1080.665527 C 983.700928 1080.069458 948.532776 1079.473389 905.615845 1079.473389 C 841.240234 1079.473389 827.232666 1079.771362 825.891479 1081.55957 Z"/>
        <path id="path90" fill="#ffffff" stroke="#000000" stroke-width="4" stroke-opacity="0.557038" stroke-linecap="round" stroke-linejoin="round" d="M 350.526031 1084.092896 C 349.929932 1097.504395 340.839874 1113.002197 331.153748 1117.472778 L 325.193054 1120.155151 L 331.153748 1123.135498 C 334.432159 1124.774658 338.753632 1128.202026 340.839874 1131.033325 C 345.310394 1136.844971 350.377014 1149.362549 350.377014 1155.174194 C 350.526031 1157.70752 351.867157 1155.174194 354.102417 1148.021362 C 358.274902 1135.056885 364.086609 1127.307983 373.027649 1122.837402 C 377.498169 1120.751221 378.392242 1119.708008 376.306 1119.708008 C 374.517792 1119.708008 370.345337 1117.621826 366.917908 1115.088501 C 359.765106 1110.021973 353.9534 1098.994629 351.867157 1087.22229 C 351.271088 1083.347778 350.675018 1082.006592 350.526031 1084.092896 Z"/>
        <path id="path91" fill="#ffffff" stroke="#000000" stroke-width="4" stroke-opacity="0.557038" stroke-linecap="round" stroke-linejoin="round" d="M 1020.50824 1086.924194 C 1018.123901 1101.677002 1007.54364 1116.727661 997.708496 1119.111938 L 993.834045 1120.155151 L 998.006531 1121.943237 C 1009.182861 1126.562866 1016.48468 1136.696045 1020.061157 1152.193848 L 1021.998352 1160.687866 L 1022.892456 1153.534912 C 1024.680664 1140.86853 1033.174683 1128.052979 1042.86084 1123.433472 L 1048.37439 1120.751221 L 1043.009766 1118.068848 C 1033.32373 1113.151245 1025.127686 1100.335815 1022.594421 1086.477173 L 1021.55127 1080.218506 L 1020.50824 1086.924194 Z"/>
        <path id="path92" fill="#ffffff" stroke="#000000" stroke-width="4" stroke-opacity="0.557038" stroke-linecap="round" stroke-linejoin="round" d="M 476.296692 1109.872925 C 460.798889 1114.790527 448.43045 1125.370728 442.469757 1138.782227 C 438.148224 1148.766357 438.148224 1164.115234 442.767761 1174.546387 C 454.391113 1201.369629 490.900421 1208.820435 511.166779 1188.554077 C 522.343079 1177.377808 524.131226 1164.860352 515.339233 1157.558472 C 509.080475 1152.342896 499.692444 1152.938965 496.414032 1158.899658 C 494.327789 1162.923096 494.327789 1163.221191 498.351257 1166.797485 C 501.629669 1169.628906 502.523743 1171.268066 501.778656 1173.950439 C 500.586517 1178.569946 490.155304 1183.785522 482.108368 1183.785522 C 473.763397 1183.785522 463.779205 1178.271851 460.351837 1171.864136 C 456.775391 1165.009277 456.775391 1150.703613 460.500854 1142.656738 C 471.37912 1118.664917 510.868744 1116.28064 534.711487 1138.037231 C 544.099609 1146.680176 550.954407 1156.068359 554.679871 1165.754395 C 558.703308 1176.036621 557.958191 1168.28772 553.934753 1156.515381 C 545.1427 1131.92749 528.601807 1116.28064 504.311951 1110.021973 C 494.178772 1107.3396 484.343628 1107.3396 476.296692 1109.872925 Z"/>
        <path id="path93" fill="#ffffff" stroke="#000000" stroke-width="4" stroke-opacity="0.557038" stroke-linecap="round" stroke-linejoin="round" d="M 874.47113 1109.276855 C 864.188904 1111.065063 849.287231 1118.515869 841.538269 1125.668701 C 833.044312 1133.56665 824.252258 1147.425293 820.079773 1159.644653 C 815.758301 1172.162109 816.056335 1176.334717 820.377808 1165.456421 C 824.848328 1154.727173 834.534485 1141.762573 842.581421 1135.950928 C 859.867432 1123.135498 884.455322 1119.708008 900.102173 1127.755005 C 905.168762 1130.437256 913.364685 1139.527344 915.30188 1144.593994 C 917.388184 1150.107544 916.941101 1163.966187 914.556885 1168.585693 C 907.254944 1182.593384 890.117981 1187.361938 876.706421 1179.314941 C 871.043762 1175.738525 870.745728 1173.056274 875.663269 1169.777832 C 879.835754 1167.095581 880.878906 1159.048584 877.600525 1155.770264 C 874.620178 1152.789917 866.573242 1153.684082 861.804688 1157.70752 C 851.075378 1166.797485 857.18512 1186.020752 873.875061 1195.11084 C 884.306274 1200.773438 900.549194 1201.220581 910.682373 1195.855957 C 926.180176 1187.80896 933.18396 1177.079712 934.227112 1159.793701 C 935.121216 1144.593994 932.140869 1135.652832 922.60376 1125.072632 C 910.682373 1112.108154 892.502258 1106.147461 874.47113 1109.276855 Z"/>
    </g>
</svg>
